<svg width="301" height="328" viewBox="0 0 301 328" fill="none" xmlns="http://www.w3.org/2000/svg">
<path d="M190 270.785C190 275.421 191.715 279.716 194.296 282.217C195.339 283.232 195.818 285.002 195.633 286.772C195.095 292.046 196.121 298.016 199.643 303.927C199.828 304.233 200.038 304.517 200.265 304.741C207.445 312.056 214.827 309.13 218.964 302.145C219.821 300.706 221.234 300.198 222.503 300.777C224.269 301.579 226.261 301.626 228.313 300.576C232.138 298.617 234.576 293.332 234.568 287.609C234.568 285.769 235.282 284.034 236.459 283.244C239.73 281.026 242 276.141 242 270.785C242 266.75 240.705 263.151 238.671 260.732C237.981 259.918 237.603 258.715 237.527 257.452C236.67 242.645 227.842 231 217.072 231C206.756 231 198.222 241.678 196.76 255.588C196.6 257.098 195.961 258.408 195.002 259.128C192.026 261.346 190 265.735 190 270.785Z" fill="#74C20F" fill-opacity="0.7"/>
<path d="M234.911 286.431C234.911 287.47 234.31 288.32 233.557 288.32H231.991C225.802 288.32 221.983 293.549 221.983 302.662V325.87C221.983 326.909 221.382 327.759 220.629 327.759H216.802C216.057 327.759 215.447 326.921 215.447 325.87V282.359C215.447 281.32 216.048 280.47 216.802 280.47H220.315C221.018 280.47 221.602 281.225 221.662 282.205C221.755 283.787 218.967 281.603 219.772 280.47C221.541 277.979 228.291 279.407 231.432 279.407C232.253 279.407 232.981 279.502 233.786 279.691C234.429 279.844 234.903 280.635 234.903 281.544V286.431H234.911Z" fill="black"/>
<path opacity="0.8" d="M208.48 291.047C212.789 291.047 216.023 293.88 217.59 298.224C217.683 298.484 217.725 298.779 217.725 299.074V302.639C217.725 304.315 216.235 305.2 215.414 303.961C213.678 301.352 211.121 299.959 207.921 299.959H206.355C205.61 299.959 205 299.121 205 298.07V293.183C205 292.274 205.474 291.472 206.118 291.33C206.93 291.141 207.658 291.047 208.48 291.047Z" fill="black"/>
<path d="M254 246.125C254 229.201 264.501 229 277.449 229C290.397 229 300.898 229.201 300.898 246.125C300.898 263.049 300.907 318.101 277.449 318.101C254 318.101 254 263.049 254 246.125Z" fill="#60BF91" fill-opacity="0.7"/>
<path d="M295.346 284.077C295.346 285.181 294.707 286.084 293.906 286.084H292.242C285.664 286.084 281.606 291.642 281.606 301.328V325.993C281.606 327.097 280.967 328 280.166 328H276.099C275.307 328 274.659 327.109 274.659 325.993V279.749C274.659 278.645 275.298 277.741 276.099 277.741H279.833C280.58 277.741 287.205 277.658 287.268 278.699C287.367 280.38 282.553 277.419 286.08 278.698C287.96 276.051 288.31 276.612 291.648 276.612C292.521 276.612 293.294 276.713 294.149 276.913C294.833 277.076 295.337 277.917 295.337 278.883V284.077H295.346Z" fill="black"/>
<path opacity="0.8" d="M267.254 288.982C271.834 288.982 275.271 291.993 276.936 296.61C277.035 296.886 277.08 297.2 277.08 297.514V301.302C277.08 303.084 275.496 304.025 274.623 302.708C272.778 299.935 270.061 298.455 266.66 298.455H264.995C264.203 298.455 263.555 297.564 263.555 296.447V291.253C263.555 290.287 264.059 289.434 264.743 289.284C265.616 289.083 266.381 288.982 267.254 288.982Z" fill="black"/>
<path d="M126 246.125C126 229.201 136.501 229 149.449 229C162.397 229 172.898 229.201 172.898 246.125C172.898 263.049 172.907 318.101 149.449 318.101C126 318.101 126 263.049 126 246.125Z" fill="#60BF91" fill-opacity="0.7"/>
<path d="M167.346 284.077C167.346 285.181 166.707 286.084 165.906 286.084H164.242C157.664 286.084 153.606 291.642 153.606 301.328V325.993C153.606 327.097 152.967 328 152.166 328H148.099C147.307 328 146.659 327.109 146.659 325.993V279.749C146.659 278.645 147.298 277.741 148.099 277.741H151.833C152.58 277.741 159.205 277.658 159.268 278.699C159.367 280.38 154.553 277.419 158.08 278.698C159.96 276.051 160.31 276.612 163.648 276.612C164.521 276.612 165.294 276.713 166.149 276.913C166.833 277.076 167.337 277.917 167.337 278.883V284.077H167.346Z" fill="black"/>
<path opacity="0.8" d="M139.254 288.982C143.834 288.982 147.271 291.993 148.936 296.61C149.035 296.886 149.08 297.2 149.08 297.514V301.302C149.08 303.084 147.496 304.025 146.623 302.708C144.778 299.935 142.061 298.455 138.66 298.455H136.995C136.203 298.455 135.555 297.564 135.555 296.447V291.253C135.555 290.287 136.059 289.434 136.743 289.284C137.616 289.083 138.381 288.982 139.254 288.982Z" fill="black"/>
<path d="M0.705708 0C36.4232 0 72.2825 0 108 0C107.294 109.125 106.588 218.25 105.882 327.374C70.588 327.625 35.294 327.75 0 328C0.141176 218.625 0.423218 109.375 0.564394 0H0.705708Z" fill="#A8D8DE"/>
<path d="M8.04858 7.5105C38.6838 7.5105 69.4604 7.5105 100.096 7.5105C99.2486 13.2671 80.3307 144.667 53.9308 144.667C27.672 144.667 8.89564 13.1419 8.04858 7.5105Z" fill="#75C2C0"/>
<path d="M15.6721 24.0282C25.2721 21.9007 38.2603 19.7733 53.6485 19.7733C69.4602 19.7733 82.7308 21.9007 92.4719 24.2785C84.8484 81.9694 69.7431 123.892 55.0608 124.018C40.3785 124.018 24.2839 82.2197 15.6721 24.0282Z" fill="white"/>
<path d="M14.1176 14.2639C14.5412 15.6405 14.8238 16.8919 15.2473 18.2685C25.9767 16.7667 38.5407 15.5153 52.5171 15.3902C67.7641 15.3902 81.3174 16.3913 92.6115 18.0182C93.035 16.6416 93.4589 15.1399 93.8824 13.7633C81.6001 12.3867 67.4819 11.3856 51.8114 11.6359C37.835 11.761 25.1292 12.8873 13.9763 14.2639H14.1176Z" fill="#769591"/>
<path d="M228.749 319.137C229.305 319.485 229.166 320.509 229.704 320.666C230.26 320.839 231.042 319.919 231.702 318.946C234.22 316.671 236.721 314.396 239.239 312.12C239.517 311.947 241.063 311.026 242.487 311.651C242.487 311.651 243.929 312.277 244.398 314.465C244.919 316.931 242.192 319.155 239.622 321.308C237.728 322.889 234.776 325.025 230.59 326.779C230.138 326.918 229.478 327.092 228.645 327.075C227.568 327.057 226.752 326.745 226.265 326.536C226.005 326.241 225.727 325.893 225.466 325.494C224.563 324.087 224.233 322.698 224.112 321.725C226.891 319.189 228.158 318.79 228.732 319.155L228.749 319.137Z" fill="#2D1A8E"/>
<path d="M221.212 314.778C221.212 315.021 221.316 315.09 221.716 315.82C221.716 315.82 221.907 316.167 222.74 317.991C223.904 320.544 223.539 321.395 224.234 321.812C225.537 322.576 228.316 321.048 228.646 319.102C228.75 318.477 228.298 317.522 227.378 315.629C226.162 313.11 225.728 312.659 225.502 312.52C225.485 312.52 225.467 312.503 225.432 312.485C223.765 311.686 221.195 313.458 221.247 314.778H221.212Z" fill="#FF004F"/>
<path d="M75.5082 320.127C74.3966 321.1 73.4934 321.985 72.7813 322.68C71.5829 323.879 71.0792 324.487 71.0098 325.338C70.9924 325.563 70.9577 326.171 71.3224 326.762C71.7566 327.456 72.4687 327.648 72.6771 327.7C73.5282 327.7 74.8134 327.734 76.3592 327.734C78.565 327.734 79.416 327.7 80.3713 327.7C86.3981 327.682 87.7529 327.891 90.7402 327.7C91.817 327.63 92.6681 326.744 92.6855 325.668C92.7028 324.608 91.9039 323.688 90.827 323.566C88.2565 323.601 85.5644 323.566 82.7508 323.444C81.2918 323.375 79.8676 323.288 78.4781 323.167C78.4955 323.01 78.4955 322.784 78.3913 322.559C78.0787 321.985 77.2797 322.124 76.585 321.708C76.2203 321.482 75.7687 321.048 75.4908 320.11L75.5082 320.127Z" fill="#2D1A8E"/>
<path d="M78.5481 315.576C79.7118 316.306 80.8754 317.035 82.0218 317.764C81.7265 318.685 81.2923 319.814 80.6323 320.995C80.1112 321.933 79.5555 322.715 79.0344 323.34C78.6697 323.375 77.6449 323.409 76.5855 322.749C75.7344 322.228 75.3002 321.516 75.1091 321.169C75.4218 320.335 75.856 319.362 76.4639 318.32C77.1586 317.157 77.9055 316.253 78.5481 315.576Z" fill="#FF004F"/>
<path d="M122.125 209.647C123.028 208.588 123.775 207.737 124.262 207.198C124.262 207.198 130.914 199.712 137.722 194.207C137.965 193.998 138.452 193.616 139.181 193.182C141.508 191.827 143.749 191.706 145.329 191.619C146.84 191.549 149.81 191.445 153.041 192.939C154.882 193.79 156.098 194.849 156.81 195.475C161.968 200.077 168.308 207.024 170.01 208.918C175.064 214.128 180.118 219.356 185.172 224.567C190.192 229.76 195.229 234.953 200.248 240.146C202.958 243.012 205.65 245.877 208.359 248.761C208.724 249.247 209.071 249.733 209.419 250.237C213.605 256.212 216.453 262.43 218.346 268.439C221.681 274.97 225.015 281.5 228.35 288.03C229.67 290.809 230.973 293.606 232.293 296.385C232.605 297.548 233.873 302.742 230.973 307.935C227.256 314.604 219.892 315.525 218.85 315.646C209.975 316.601 204.243 309.671 203.843 309.168C201.412 304.253 198.98 299.337 196.549 294.422C194.777 290.809 192.988 287.197 191.217 283.567C189.706 280.441 188.177 277.297 186.666 274.171C185.763 271.947 184.86 269.724 183.957 267.501C183.245 266.719 182.168 265.538 180.865 264.132C169.454 251.8 160.874 243.672 156.879 239.764C150.835 233.841 142.429 224.949 132.668 212.374C131.504 213.59 130.358 214.823 129.194 216.039C126.832 213.902 124.47 211.766 122.108 209.63L122.125 209.647Z" fill="#2D1A8E"/>
<path d="M132.685 212.373C129.073 215.726 124.383 220.936 120.684 228.283C113.285 242.959 114.449 256.906 115.3 262.777C114.275 264.427 112.434 265.364 110.558 265.208C107.988 265 106.702 262.846 106.581 262.638C96.2813 273.701 85.9819 284.782 75.6651 295.846C74.8314 297.235 71.1146 303.818 73.6156 310.088C76.9677 318.494 89.3687 320.891 97.3408 318.164C103.333 316.115 105.261 311.721 112.729 302.255C117.106 296.714 123.359 289.489 131.834 281.604C132.529 281.031 133.467 280.11 134.266 278.79C135.447 276.827 135.725 274.952 135.812 273.91C141.144 260.796 146.476 247.701 151.791 234.588C145.416 227.171 139.042 219.755 132.685 212.339V212.373Z" fill="#2D1A8E"/>
<path d="M122.35 209.213C124.816 211.349 127.3 213.485 129.766 215.621C126.622 219.772 122.715 225.956 119.831 234.154C115.576 246.259 115.611 256.941 116.114 263.176C116.028 263.419 115.107 265.868 112.797 266.476C110.591 267.067 108.038 265.747 106.892 263.193C106.579 259.112 106.545 254.527 107.013 249.542C108.577 233.059 114.986 220.502 119.797 212.964C120.648 211.714 121.499 210.446 122.367 209.195L122.35 209.213Z" fill="#CE1963"/>
<path d="M141.855 257.74L145.729 248.709C148.577 251.974 151.408 255.257 154.257 258.522C155.941 260.172 156.15 262.847 154.778 264.722C153.371 266.65 150.679 267.223 148.577 266.008C146.336 263.246 144.096 260.502 141.855 257.74Z" fill="#CE1963"/>
<path d="M133.17 184.473C134.517 186.873 139.658 190.484 146.187 190.648C152.124 190.792 156.225 188.043 158.021 186.34C158.408 185.971 159.224 185.13 159.735 183.735C160.428 181.889 160.347 180.001 160.061 179.94C159.877 179.899 159.653 180.678 159.306 180.637C159.02 180.596 158.755 180.042 158.653 179.796C158.653 179.796 158.653 179.796 158.653 179.776C157.857 177.683 159.796 175.714 159.571 172.206C159.571 172.206 159.408 169.785 158.245 168.411C158.204 168.37 158.061 168.165 157.837 167.98C157.429 167.652 157.286 167.426 157.205 167.467C157.021 167.549 157.347 168.329 157.266 169.457C157.245 169.724 157.164 170.647 156.858 170.709C156.49 170.791 155.98 169.56 155.878 169.334C154.777 166.77 155.572 163.775 155.654 162.544C155.817 160.226 153.961 156.821 145.085 152C145.412 154.174 145.412 155.651 145.249 156.636C145.106 157.477 144.575 158.031 144.331 158.4C143.474 159.652 142.576 160.267 141.372 161.17C139.312 162.708 138.291 163.467 137.883 163.96C135.252 167.119 137.557 172.678 136.965 172.801C136.557 172.883 135.231 170.442 135.129 168.514C135.129 168.309 135.088 167.693 134.986 167.673C134.884 167.673 134.741 168.247 134.578 168.78C134.048 170.462 133.374 170.791 132.864 172.534C132.742 172.945 132.62 173.457 132.762 173.991C132.864 174.36 133.007 174.627 133.089 174.729C133.334 175.14 134.272 178.011 133.558 178.401C133.354 178.504 133.089 178.381 133.007 178.34C132.171 177.909 132.293 176.35 132.109 176.35C131.946 176.35 131.722 177.519 131.742 178.955C131.742 179.406 131.742 180.063 131.906 180.924C131.906 180.924 132.232 182.812 133.211 184.555L133.17 184.473Z" fill="#FF004F"/>
<path d="M155.462 185.676C154.47 187.365 150.817 189.794 146.291 189.732C142.182 189.67 139.402 187.591 138.211 186.335C137.437 185.532 137.08 184.441 137.08 184.441C136.584 183.309 136.445 182.341 136.405 182.032C136.167 180.118 136.663 178.553 137.06 177.276C137.199 176.844 137.219 176.865 137.556 175.876C137.814 175.115 137.933 174.724 138.033 174.724C138.132 174.724 138.172 175.094 138.251 175.444C138.45 176.391 138.886 176.926 139.144 177.359C140.137 179.088 139.522 181.538 139.819 181.579C140.018 181.6 140.435 180.612 140.574 179.376C140.812 177.05 139.74 175.979 139.541 173.879C139.363 172.129 139.919 170.771 140.474 169.371C142.4 164.574 147.184 162.494 148.058 162.124C147.78 163.668 147.74 164.718 147.819 165.418C147.899 166.035 148.256 166.427 148.415 166.694C149.05 167.724 149.685 168.053 150.38 168.753C151.333 169.721 151.81 170.812 151.968 171.285C153.04 174.332 150.281 177.215 151.512 178.553C151.532 178.594 151.949 179.006 152.405 178.944C153.596 178.779 154.41 175.465 154.509 174.168C154.509 174.044 154.549 173.591 154.629 173.571C154.708 173.571 154.787 173.982 154.887 174.374C155.204 175.588 155.661 175.835 155.978 177.091C156.058 177.4 156.117 177.75 155.998 178.121C155.919 178.388 155.82 178.574 155.76 178.635C155.581 178.924 154.847 180.941 155.343 181.25C155.482 181.332 155.681 181.25 155.72 181.209C156.316 180.921 156.256 179.809 156.395 179.809C156.514 179.809 156.633 180.653 156.574 181.682C156.574 181.991 156.534 182.465 156.415 183.082C156.415 183.082 156.137 184.42 155.423 185.635L155.462 185.676Z" fill="#CE1963"/>
<path d="M146.33 171.219C144.616 169.893 144.289 169.546 144.33 169.485C144.391 169.403 144.881 169.791 145.799 169.975C146.881 170.199 147.574 169.975 147.656 170.158C147.697 170.281 147.513 170.546 146.35 171.219H146.33Z" fill="black"/>
<path d="M146.799 170.505C145.657 168.669 145.473 168.22 145.535 168.179C145.616 168.118 145.963 168.648 146.738 169.158C147.677 169.75 148.411 169.77 148.411 169.995C148.411 170.117 148.126 170.301 146.799 170.525V170.505Z" fill="black"/>
<path d="M148.105 170.281C147.248 168.628 147.105 168.241 147.166 168.2C147.248 168.159 147.493 168.628 148.145 169.118C148.921 169.71 149.553 169.791 149.553 169.955C149.553 170.057 149.288 170.199 148.105 170.261V170.281Z" fill="black"/>
<path d="M153.92 171.342C152.43 169.363 147.493 169.281 146.493 170.628C145.942 171.383 146.595 172.546 147.309 173.158C149.247 174.872 153.573 174.198 154.266 172.852C154.593 172.219 154.062 171.505 153.92 171.322V171.342Z" fill="white"/>
<path d="M153.226 170.159C154.124 170.648 154.43 171.811 154.042 172.729C153.654 173.627 152.614 174.219 151.675 173.933C150.594 173.607 150.043 172.219 150.533 171.158C150.982 170.179 152.267 169.648 153.246 170.179L153.226 170.159Z" fill="black"/>
</svg>
