<svg width="214" height="142" viewBox="0 0 214 142" fill="none" xmlns="http://www.w3.org/2000/svg">
<path d="M177.352 97.4622C177.352 92.2854 181.831 92.224 187.353 92.224C192.875 92.224 197.353 92.2854 197.353 97.4622C197.353 102.639 197.357 119.478 187.353 119.478C177.352 119.478 177.352 102.639 177.352 97.4622Z" fill="#60BF91" fill-opacity="0.7"/>
<path d="M194.986 109.071C194.986 109.409 194.713 109.685 194.372 109.685H193.662C190.857 109.685 189.126 111.385 189.126 114.348V121.892C189.126 122.23 188.853 122.506 188.512 122.506H186.777C186.44 122.506 186.163 122.234 186.163 121.892V107.747C186.163 107.409 186.436 107.133 186.777 107.133H188.37C188.688 107.133 191.514 107.107 191.541 107.426C191.583 107.94 189.53 107.034 191.034 107.426C191.836 106.616 191.985 106.788 193.409 106.788C193.781 106.788 194.111 106.818 194.475 106.88C194.767 106.93 194.982 107.187 194.982 107.482V109.071H194.986Z" fill="black"/>
<path opacity="0.8" d="M183.005 110.571C184.958 110.571 186.424 111.492 187.134 112.905C187.176 112.989 187.195 113.085 187.195 113.181V114.34C187.195 114.885 186.52 115.173 186.148 114.77C185.361 113.922 184.202 113.469 182.752 113.469H182.042C181.704 113.469 181.428 113.196 181.428 112.855V111.266C181.428 110.971 181.643 110.71 181.934 110.664C182.307 110.602 182.633 110.571 183.005 110.571Z" fill="black"/>
<path d="M173.826 18.4139C175.665 18.4002 177.535 18.3566 179.375 18.3429C180.098 28.4814 180.699 38.8298 181.147 49.388C182.187 74.6972 182.241 99.0325 181.551 122.215C174.647 122.123 167.712 122.001 160.808 121.909C159.958 98.9538 159.81 74.9794 160.516 50.0779C160.824 39.225 161.311 28.5847 161.917 18.1565C163.846 18.2341 165.745 18.2813 167.675 18.3588C168.661 22.6496 169.679 26.9407 170.665 31.2315C171.729 26.9591 172.762 22.6863 173.826 18.4139Z" fill="#7695CE" stroke="#7695CE" stroke-miterlimit="10"/>
<path d="M181.346 54.0934C178.633 54.0691 175.949 54.0149 173.236 53.9605C173.244 59.7503 173.253 65.5401 173.261 71.3299C175.966 65.5945 178.641 59.8287 181.346 54.0934Z" fill="#0D295B"/>
<path d="M160.544 53.6069C163.259 53.5708 165.943 53.5345 168.657 53.4985C168.665 59.2883 168.674 65.0781 168.682 70.8679C165.96 65.1141 163.267 59.3606 160.544 53.6069Z" fill="#0D295B"/>
<path d="M181.346 54.1238C178.632 54.1599 175.948 54.1962 173.233 54.2322C173.225 48.4424 173.216 42.6526 173.208 36.8628C175.931 42.6166 178.623 48.3701 181.346 54.1238Z" fill="#0D295B"/>
<path d="M160.544 53.6668C163.257 53.691 165.941 53.7452 168.654 53.7996C168.646 48.0098 168.637 42.2201 168.629 36.4303C165.924 42.1656 163.249 47.9314 160.544 53.6668Z" fill="#0D295B"/>
<path d="M181.91 122.58C178.925 122.553 175.94 122.527 172.955 122.5C173.048 118.792 173.112 115.083 173.205 111.375C176.097 115.11 179.019 118.845 181.91 122.61L181.91 122.58Z" fill="#0D295B"/>
<path d="M160.443 122.237C163.217 122.262 165.96 122.316 168.734 122.371C168.767 118.633 168.801 114.894 168.804 111.155C166.027 114.839 163.25 118.553 160.443 122.237Z" fill="#0D295B"/>
<path d="M181.399 92.0598C178.685 92.0355 176.002 91.9814 173.289 91.9269C173.297 97.7167 173.306 103.507 173.314 109.296C176.019 103.561 178.694 97.7952 181.399 92.0598Z" fill="#0D295B"/>
<path d="M160.597 91.6013C163.31 91.6255 165.994 91.6194 168.708 91.6135C168.596 97.4022 168.484 103.191 168.402 108.98C165.8 103.197 163.199 97.3841 160.627 91.6015L160.597 91.6013Z" fill="#0D295B"/>
<path d="M181.399 92.059C178.685 92.0951 176.001 92.1314 173.287 92.1674C173.278 86.3776 173.27 80.5878 173.261 74.798C175.984 80.5518 178.676 86.3053 181.399 92.059Z" fill="#0D295B"/>
<path d="M160.596 91.6316C163.31 91.6559 165.993 91.71 168.707 91.7645C168.698 85.9747 168.69 80.1849 168.681 74.3951C165.976 80.1305 163.301 85.8962 160.596 91.6316Z" fill="#0D295B"/>
<path d="M166.208 74.4333C164.851 74.4212 163.494 74.409 162.168 74.3972C162.142 77.2918 162.176 80.187 162.18 83.0819C163.533 80.1991 164.885 77.3465 166.238 74.4637L166.208 74.4333Z" fill="#0D295B"/>
<path d="M166.193 72.8042C164.836 72.8222 163.479 72.8403 162.152 72.8585C162.147 69.9636 162.143 67.0688 162.139 64.1739C163.5 67.0507 164.862 69.9276 166.193 72.8042Z" fill="#0D295B"/>
<path d="M175.46 74.9686C176.818 74.9204 178.175 74.9024 179.502 74.8539C179.537 77.7491 179.571 80.6443 179.636 83.5397C178.244 80.6927 176.852 77.8156 175.46 74.9686Z" fill="#0D295B"/>
<path d="M175.45 72.798C176.808 72.7498 178.135 72.6713 179.492 72.6231C179.307 69.7266 179.092 66.8298 178.907 63.9634C177.765 66.9084 176.592 69.8531 175.45 72.798Z" fill="#0D295B"/>
<path d="M179.81 47.2054L174.702 35.0374L175.408 20.2378L178.333 20.2338L179.81 47.2054Z" fill="#0D295B"/>
<path d="M162.049 47.1973L167.133 35.0301L166.421 20.2479L163.466 20.2517L162.049 47.1973Z" fill="#0D295B"/>
<path d="M165.915 110.587C164.437 110.574 162.96 110.56 161.482 110.547C161.456 113.532 161.489 116.518 161.493 119.503C162.967 116.531 164.441 113.559 165.945 110.617L165.915 110.587Z" fill="#0D295B"/>
<path d="M165.929 108.928C164.452 108.945 162.974 108.962 161.496 108.979C161.493 105.993 161.489 103.008 161.486 100.022C162.967 102.991 164.448 105.959 165.96 108.928L165.929 108.928Z" fill="#0D295B"/>
<path d="M176.102 111.131C177.58 111.084 179.058 111.067 180.536 111.02C180.57 114.005 180.634 116.991 180.667 119.977C179.156 117.038 177.614 114.069 176.102 111.131Z" fill="#0D295B"/>
<path d="M176.092 108.899C177.57 108.851 179.048 108.774 180.526 108.727C180.312 105.74 180.097 102.753 179.882 99.7955C178.619 102.83 177.356 105.864 176.062 108.928L176.092 108.899Z" fill="#0D295B"/>
<path d="M58.9829 57.9027H55.0902V59.2144H58.9829V57.9027Z" fill="#835B30"/>
<path d="M76.0082 98.4758C76.0082 93.299 80.4865 93.2375 86.0087 93.2375C91.5308 93.2375 96.0092 93.299 96.0092 98.4758C96.0092 103.653 96.013 120.492 86.0087 120.492C76.0082 120.492 76.0082 103.653 76.0082 98.4758Z" fill="#60BF91" fill-opacity="0.7"/>
<path d="M93.6415 110.084C93.6415 110.422 93.3691 110.698 93.0275 110.698H92.3176C89.5124 110.698 87.7817 112.398 87.7817 115.361V122.906C87.7817 123.243 87.5092 123.52 87.1677 123.52H85.4332C85.0955 123.52 84.8192 123.247 84.8192 122.906V108.761C84.8192 108.423 85.0916 108.147 85.4332 108.147H87.0257C87.3442 108.147 91.183 108.121 91.2098 108.44C91.2098 108.44 87.504 107.981 88.6762 108.711C87.0257 108.147 90.6406 107.801 92.0643 107.801C92.4366 107.801 92.7666 107.832 93.1311 107.893C93.4228 107.943 93.6377 108.2 93.6377 108.496V110.084H93.6415Z" fill="black"/>
<path opacity="0.8" d="M81.6607 111.585C83.614 111.585 85.0799 112.506 85.7899 113.918C85.8321 114.003 85.8512 114.099 85.8512 114.194V115.353C85.8512 115.898 85.1759 116.186 84.8036 115.783C84.0169 114.935 82.858 114.482 81.4075 114.482H80.6975C80.3598 114.482 80.0835 114.21 80.0835 113.868V112.28C80.0835 111.984 80.2984 111.723 80.5901 111.677C80.9623 111.616 81.2885 111.585 81.6607 111.585Z" fill="black"/>
<path d="M49.6587 105.413C49.6587 106.832 50.3953 108.146 51.5038 108.912C51.9515 109.222 52.1573 109.764 52.0779 110.306C51.8468 111.92 52.2873 113.747 53.8002 115.556C53.8796 115.649 53.9699 115.736 54.0674 115.805C57.1509 118.043 60.3212 117.148 62.0976 115.01C62.4659 114.57 63.0725 114.415 63.6178 114.592C64.376 114.837 65.2318 114.852 66.1128 114.53C67.7557 113.931 68.8027 112.313 68.7991 110.562C68.7991 109.999 69.106 109.468 69.6115 109.226C71.0161 108.547 71.991 107.052 71.991 105.413C71.991 104.178 71.435 103.077 70.5612 102.337C70.2651 102.087 70.1026 101.719 70.0701 101.333C69.7018 96.8013 65.9106 93.2375 61.2852 93.2375C56.8549 93.2375 53.19 96.5053 52.5617 100.762C52.4931 101.225 52.2187 101.625 51.8071 101.846C50.5289 102.524 49.6587 103.868 49.6587 105.413Z" fill="#74C20F" fill-opacity="0.7"/>
<path d="M67.7701 109.175C67.7701 109.493 67.5137 109.753 67.1924 109.753H66.5244C63.885 109.753 62.2565 111.353 62.2565 114.14V121.239C62.2565 121.557 62.0001 121.817 61.6788 121.817H60.0467C59.729 121.817 59.469 121.56 59.469 121.239V107.93C59.469 107.612 59.7254 107.352 60.0467 107.352H61.5452C61.8449 107.352 62.094 107.583 62.1193 107.883C62.159 108.367 61.2958 108.027 61.6388 107.681C62.3935 106.919 64.9465 107.027 66.2861 107.027C66.6363 107.027 66.9469 107.056 67.2899 107.114C67.5643 107.161 67.7665 107.403 67.7665 107.681V109.175H67.7701Z" fill="black"/>
<path opacity="0.8" d="M56.4974 110.587C58.3353 110.587 59.7146 111.454 60.3826 112.783C60.4223 112.862 60.4404 112.952 60.4404 113.042V114.133C60.4404 114.646 59.8049 114.916 59.4546 114.537C58.7144 113.739 57.624 113.313 56.2591 113.313H55.5912C55.2734 113.313 55.0134 113.057 55.0134 112.736V111.241C55.0134 110.963 55.2156 110.717 55.49 110.674C55.8367 110.616 56.1472 110.587 56.4974 110.587Z" fill="black"/>
<path d="M135.801 105.413C135.801 106.832 136.538 108.146 137.646 108.912C138.094 109.222 138.3 109.764 138.221 110.306C137.989 111.92 138.43 113.747 139.943 115.556C140.022 115.649 140.113 115.736 140.21 115.805C143.294 118.043 146.464 117.148 148.24 115.01C148.609 114.57 149.215 114.415 149.76 114.592C150.519 114.837 151.374 114.852 152.255 114.53C153.898 113.931 154.945 112.313 154.942 110.562C154.942 109.999 155.249 109.468 155.754 109.226C157.159 108.547 158.134 107.052 158.134 105.413C158.134 104.178 157.578 103.077 156.704 102.337C156.408 102.087 156.245 101.719 156.213 101.333C155.844 96.8013 152.053 93.2375 147.428 93.2375C142.998 93.2375 139.333 96.5053 138.704 100.762C138.636 101.225 138.361 101.625 137.95 101.846C136.672 102.524 135.801 103.868 135.801 105.413Z" fill="#74C20F" fill-opacity="0.7"/>
<path d="M135.801 105.413C135.801 106.832 136.538 108.146 137.646 108.912C138.094 109.222 138.3 109.764 138.221 110.306C137.989 111.92 138.43 113.747 139.943 115.556C140.022 115.649 140.113 115.736 140.21 115.805C143.294 118.043 146.464 117.148 148.24 115.01C148.609 114.57 149.215 114.415 149.76 114.592C150.519 114.837 151.374 114.852 152.255 114.53C153.898 113.931 154.945 112.313 154.942 110.562C154.942 109.999 155.249 109.468 155.754 109.226C157.159 108.547 158.134 107.052 158.134 105.413C158.134 104.178 157.578 103.077 156.704 102.337C156.408 102.087 156.245 101.719 156.213 101.333C155.844 96.8013 152.053 93.2375 147.428 93.2375C142.998 93.2375 139.333 96.5053 138.704 100.762C138.636 101.225 138.361 101.625 137.95 101.846C136.672 102.524 135.801 103.868 135.801 105.413Z" fill="#74C20F" fill-opacity="0.7"/>
<path d="M153.913 109.175C153.913 109.493 153.656 109.753 153.335 109.753H152.667C150.028 109.753 148.399 111.353 148.399 114.14V121.239C148.399 121.557 148.143 121.817 147.821 121.817H146.189C145.872 121.817 145.612 121.56 145.612 121.239V107.93C145.612 107.612 145.868 107.352 146.189 107.352H147.688C147.987 107.352 148.237 107.583 148.262 107.883C148.302 108.367 147.113 107.699 147.456 107.352C148.211 106.59 151.089 107.027 152.429 107.027C152.779 107.027 153.089 107.056 153.432 107.114C153.707 107.161 153.909 107.402 153.909 107.681V109.175H153.913Z" fill="black"/>
<path opacity="0.8" d="M142.64 110.587C144.478 110.587 145.857 111.454 146.525 112.783C146.565 112.862 146.583 112.952 146.583 113.042V114.133C146.583 114.646 145.947 114.916 145.597 114.537C144.857 113.739 143.767 113.313 142.402 113.313H141.734C141.416 113.313 141.156 113.057 141.156 112.736V111.241C141.156 110.963 141.358 110.717 141.633 110.674C141.979 110.616 142.29 110.587 142.64 110.587Z" fill="black"/>
<path d="M0 120.906C3.34265 98.3956 6.60088 75.7162 9.73196 52.9098C10.5359 46.9438 11.3819 40.9354 12.1859 34.9694C16.1632 33.2346 23.0602 30.8228 31.9458 30.6958C41.6352 30.5689 49.1666 33.1923 53.2709 35.0117C53.821 40.1315 54.3287 45.2936 54.8788 50.4134C57.5444 74.2352 60.1678 98.0148 62.8334 121.837C59.1946 124.46 47.1357 132.415 29.9993 131.738C14.4285 131.145 3.76581 123.783 0.0423533 120.948L0 120.906Z" fill="#D29B5A"/>
<path d="M12.7781 101.951C13.3155 101.951 13.7511 101.515 13.7511 100.978C13.7511 100.44 13.3155 100.005 12.7781 100.005C12.2406 100.005 11.805 100.44 11.805 100.978C11.805 101.515 12.2406 101.951 12.7781 101.951Z" fill="#76512B"/>
<path d="M20.3522 102.923C20.8897 102.923 21.3256 102.488 21.3256 101.95C21.3256 101.413 20.8897 100.977 20.3522 100.977C19.8147 100.977 19.3791 101.413 19.3791 101.95C19.3791 102.488 19.8147 102.923 20.3522 102.923Z" fill="#76512B"/>
<path d="M28.7305 103.684C29.2679 103.684 29.7036 103.248 29.7036 102.711C29.7036 102.173 29.2679 101.737 28.7305 101.737C28.193 101.737 27.7571 102.173 27.7571 102.711C27.7571 103.248 28.193 103.684 28.7305 103.684Z" fill="#76512B"/>
<path d="M36.9806 103.345C37.518 103.345 37.9539 102.91 37.9539 102.372C37.9539 101.835 37.518 101.399 36.9806 101.399C36.4431 101.399 36.0075 101.835 36.0075 102.372C36.0075 102.91 36.4431 103.345 36.9806 103.345Z" fill="#76512B"/>
<path d="M45.0632 101.951C45.6007 101.951 46.0363 101.515 46.0363 100.978C46.0363 100.44 45.6007 100.005 45.0632 100.005C44.5257 100.005 44.0901 100.44 44.0901 100.978C44.0901 101.515 44.5257 101.951 45.0632 101.951Z" fill="#76512B"/>
<path d="M52.4676 99.961C53.0051 99.961 53.4407 99.5253 53.4407 98.9878C53.4407 98.4504 53.0051 98.0146 52.4676 98.0146C51.9301 98.0146 51.4945 98.4504 51.4945 98.9878C51.4945 99.5253 51.9301 99.961 52.4676 99.961Z" fill="#76512B"/>
<path d="M56.9097 106.098C57.4471 106.098 57.8828 105.662 57.8828 105.125C57.8828 104.587 57.4471 104.151 56.9097 104.151C56.3722 104.151 55.9366 104.587 55.9366 105.125C55.9366 105.662 56.3722 106.098 56.9097 106.098Z" fill="#76512B"/>
<path d="M49.4204 108.678C49.9578 108.678 50.3937 108.242 50.3937 107.705C50.3937 107.167 49.9578 106.731 49.4204 106.731C48.8829 106.731 48.4473 107.167 48.4473 107.705C48.4473 108.242 48.8829 108.678 49.4204 108.678Z" fill="#76512B"/>
<path d="M40.3659 110.878C40.9033 110.878 41.339 110.443 41.339 109.905C41.339 109.368 40.9033 108.932 40.3659 108.932C39.8284 108.932 39.3925 109.368 39.3925 109.905C39.3925 110.443 39.8284 110.878 40.3659 110.878Z" fill="#76512B"/>
<path d="M31.3957 111.892C31.9332 111.892 32.3688 111.457 32.3688 110.919C32.3688 110.382 31.9332 109.946 31.3957 109.946C30.8582 109.946 30.4223 110.382 30.4223 110.919C30.4223 111.457 30.8582 111.892 31.3957 111.892Z" fill="#76512B"/>
<path d="M23.3989 111.427C23.9363 111.427 24.372 110.992 24.372 110.454C24.372 109.917 23.9363 109.481 23.3989 109.481C22.8614 109.481 22.4258 109.917 22.4258 110.454C22.4258 110.992 22.8614 111.427 23.3989 111.427Z" fill="#76512B"/>
<path d="M14.7246 110.455C15.2621 110.455 15.6977 110.019 15.6977 109.481C15.6977 108.944 15.2621 108.508 14.7246 108.508C14.1871 108.508 13.7513 108.944 13.7513 109.481C13.7513 110.019 14.1871 110.455 14.7246 110.455Z" fill="#76512B"/>
<path d="M7.27805 108.297C7.81552 108.297 8.25115 107.862 8.25115 107.324C8.25115 106.787 7.81552 106.351 7.27805 106.351C6.74058 106.351 6.3047 106.787 6.3047 107.324C6.3047 107.862 6.74058 108.297 7.27805 108.297Z" fill="#76512B"/>
<path d="M52.2552 66.9176C52.7927 66.9176 53.2283 66.4818 53.2283 65.9444C53.2283 65.4069 52.7927 64.9712 52.2552 64.9712C51.7177 64.9712 51.2818 65.4069 51.2818 65.9444C51.2818 66.4818 51.7177 66.9176 52.2552 66.9176Z" fill="#76512B"/>
<path d="M44.7241 65.6058C45.2615 65.6058 45.6974 65.1701 45.6974 64.6326C45.6974 64.0951 45.2615 63.6594 44.7241 63.6594C44.1866 63.6594 43.751 64.0951 43.751 64.6326C43.751 65.1701 44.1866 65.6058 44.7241 65.6058Z" fill="#76512B"/>
<path d="M36.3879 64.5046C36.9254 64.5046 37.361 64.0689 37.361 63.5314C37.361 62.9939 36.9254 62.5582 36.3879 62.5582C35.8504 62.5582 35.4146 62.9939 35.4146 63.5314C35.4146 64.0689 35.8504 64.5046 36.3879 64.5046Z" fill="#76512B"/>
<path d="M28.1367 64.4627C28.6742 64.4627 29.1098 64.027 29.1098 63.4895C29.1098 62.9521 28.6742 62.5164 28.1367 62.5164C27.5992 62.5164 27.1636 62.9521 27.1636 63.4895C27.1636 64.027 27.5992 64.4627 28.1367 64.4627Z" fill="#76512B"/>
<path d="M20.0133 65.5203C20.5508 65.5203 20.9864 65.0846 20.9864 64.5472C20.9864 64.0097 20.5508 63.574 20.0133 63.574C19.4759 63.574 19.04 64.0097 19.04 64.5472C19.04 65.0846 19.4759 65.5203 20.0133 65.5203Z" fill="#76512B"/>
<path d="M12.5238 67.1716C13.0613 67.1716 13.4969 66.7359 13.4969 66.1984C13.4969 65.6609 13.0613 65.2252 12.5238 65.2252C11.9863 65.2252 11.5507 65.6609 11.5507 66.1984C11.5507 66.7359 11.9863 67.1716 12.5238 67.1716Z" fill="#76512B"/>
<path d="M11.34 35.4352C10.9592 40.555 10.5362 45.6748 10.1554 50.7946C14.7674 48.7636 22.7221 45.971 33.004 45.7594C42.5242 45.5902 50.098 47.7481 54.6677 49.4406C54.5407 44.5324 54.4137 39.6241 54.2867 34.7582C49.4209 33.0234 41.3393 30.8232 31.269 31.2463C22.6797 31.5848 15.8251 33.7004 11.34 35.4775V35.4352Z" fill="#D29B5A" stroke="#76512B" stroke-width="0.25" stroke-miterlimit="10"/>
<path d="M23.3139 42.4168C23.7579 42.4168 24.1179 42.0569 24.1179 41.6129C24.1179 41.1689 23.7579 40.809 23.3139 40.809C22.8699 40.809 22.51 41.1689 22.51 41.6129C22.51 42.0569 22.8699 42.4168 23.3139 42.4168Z" fill="#76512B"/>
<path d="M48.8706 38.1439C49.3146 38.1439 49.6743 37.7839 49.6743 37.3399C49.6743 36.8959 49.3146 36.536 48.8706 36.536C48.4266 36.536 48.0666 36.8959 48.0666 37.3399C48.0666 37.7839 48.4266 38.1439 48.8706 38.1439Z" fill="#76512B"/>
<path d="M28.0528 35.7746C28.4968 35.7746 28.8567 35.4147 28.8567 34.9707C28.8567 34.5267 28.4968 34.1667 28.0528 34.1667C27.6088 34.1667 27.2489 34.5267 27.2489 34.9707C27.2489 35.4147 27.6088 35.7746 28.0528 35.7746Z" fill="#76512B"/>
<path d="M17.4744 37.3823C17.9184 37.3823 18.2784 37.0223 18.2784 36.5783C18.2784 36.1343 17.9184 35.7744 17.4744 35.7744C17.0304 35.7744 16.6705 36.1343 16.6705 36.5783C16.6705 37.0223 17.0304 37.3823 17.4744 37.3823Z" fill="#76512B"/>
<path d="M14.301 44.5321C14.745 44.5321 15.105 44.1721 15.105 43.7281C15.105 43.2841 14.745 42.9242 14.301 42.9242C13.857 42.9242 13.4971 43.2841 13.4971 43.7281C13.4971 44.1721 13.857 44.5321 14.301 44.5321Z" fill="#76512B"/>
<path d="M52.0858 44.5321C52.5298 44.5321 52.8898 44.1721 52.8898 43.7281C52.8898 43.2841 52.5298 42.9242 52.0858 42.9242C51.6418 42.9242 51.2819 43.2841 51.2819 43.7281C51.2819 44.1721 51.6418 44.5321 52.0858 44.5321Z" fill="#76512B"/>
<path d="M37.6576 36.1549C38.1016 36.1549 38.4615 35.7949 38.4615 35.3509C38.4615 34.9069 38.1016 34.547 37.6576 34.547C37.2136 34.547 36.8536 34.9069 36.8536 35.3509C36.8536 35.7949 37.2136 36.1549 37.6576 36.1549Z" fill="#76512B"/>
<path d="M32.6228 41.6132C33.0668 41.6132 33.4267 41.2533 33.4267 40.8093C33.4267 40.3653 33.0668 40.0054 32.6228 40.0054C32.1788 40.0054 31.8188 40.3653 31.8188 40.8093C31.8188 41.2533 32.1788 41.6132 32.6228 41.6132Z" fill="#76512B"/>
<path d="M42.5654 42.4168C43.0094 42.4168 43.3693 42.0569 43.3693 41.6129C43.3693 41.1689 43.0094 40.809 42.5654 40.809C42.1214 40.809 41.7614 41.1689 41.7614 41.6129C41.7614 42.0569 42.1214 42.4168 42.5654 42.4168Z" fill="#76512B"/>
<path d="M10.9595 34.8968C11.848 33.4582 12.6943 32.0619 13.5828 30.6233C13.9636 30.8348 16.4599 32.3581 16.8407 32.5696L17.1369 32.7389C18.1524 31.2156 19.168 29.7347 20.1835 28.2115C21.5798 29.1 22.9337 29.9886 24.33 30.8348C25.5147 29.4808 26.6572 28.0845 27.8419 26.7305C29.069 27.7884 30.3384 28.8885 31.5654 29.9463C32.9617 28.7615 34.3156 27.5768 35.7119 26.3497C36.9389 27.5768 38.1236 28.8462 39.3507 30.0732C40.9162 29.0577 42.4819 27.9999 44.0051 26.9844C45.2322 28.6346 46.4592 30.2425 47.6863 31.8926C48.9133 31.0464 50.1403 30.2002 51.3674 29.3539C52.3829 30.9195 53.4406 32.485 54.4561 34.0506C54.4561 34.4737 54.4561 34.9391 54.4984 35.3623C51.1981 34.1352 47.0092 32.9081 42.0587 32.1888C33.6809 31.0041 26.9534 31.808 23.3569 32.4004C18.4487 33.2466 14.3019 34.5583 11.0016 35.9123C11.0016 35.5315 11.0016 35.193 11.0016 34.8122L10.9595 34.8968Z" fill="#D29B5A"/>
<path d="M33.4268 57.8605V55.3643H30.9304V57.8605H33.4268Z" fill="#835B30"/>
<path d="M97.53 0C109.65 0 121.819 0 133.939 0C133.7 41.7749 133.46 83.5497 133.22 125.325C121.244 125.42 109.267 125.468 97.2905 125.564C97.3384 83.6934 97.4341 41.8707 97.482 0H97.53Z" fill="#A8D8DE"/>
<path d="M100.022 2.87512C110.417 2.87512 120.861 2.87512 131.257 2.87512C130.969 5.07884 124.55 55.3811 115.591 55.3811C106.681 55.3811 100.309 5.03093 100.022 2.87512Z" fill="#75C2C0"/>
<path d="M102.609 9.19841C105.866 8.384 110.274 7.56958 115.496 7.56958C120.861 7.56958 125.364 8.384 128.67 9.29423C126.083 31.3793 120.957 47.4282 115.975 47.4761C110.993 47.4761 105.531 31.4751 102.609 9.19841Z" fill="white"/>
<path d="M102.081 5.46047C102.225 5.98745 102.321 6.46651 102.465 6.99349C106.105 6.41861 110.369 5.93954 115.112 5.89163C120.286 5.89163 124.885 6.27489 128.717 6.89768C128.861 6.3707 129.005 5.79582 129.149 5.26884C124.981 4.74187 120.19 4.35861 114.872 4.45442C110.129 4.50233 105.818 4.93349 102.033 5.46047H102.081Z" fill="#769591"/>
<path d="M121.123 118.723C121.459 118.933 121.375 119.551 121.7 119.646C122.035 119.751 122.507 119.195 122.906 118.607C124.427 117.233 125.937 115.859 127.458 114.485C127.626 114.38 128.559 113.825 129.419 114.202C129.419 114.202 130.29 114.58 130.573 115.901C130.888 117.391 129.241 118.733 127.689 120.034C126.545 120.988 124.762 122.278 122.235 123.338C121.962 123.422 121.563 123.527 121.06 123.516C120.41 123.506 119.917 123.317 119.623 123.191C119.466 123.013 119.298 122.803 119.141 122.562C118.595 121.712 118.396 120.873 118.322 120.286C120.001 118.754 120.766 118.513 121.112 118.733L121.123 118.723Z" fill="#2D1A8E"/>
<path d="M116.571 116.09C116.571 116.237 116.634 116.278 116.875 116.719C116.875 116.719 116.991 116.929 117.494 118.03C118.197 119.572 117.977 120.086 118.396 120.338C119.183 120.799 120.861 119.876 121.06 118.701C121.123 118.324 120.851 117.747 120.295 116.604C119.56 115.083 119.298 114.81 119.162 114.726C119.151 114.726 119.141 114.716 119.12 114.705C118.113 114.223 116.561 115.293 116.592 116.09H116.571Z" fill="#FF004F"/>
<path d="M28.5816 119.32C27.9103 119.908 27.3649 120.443 26.9349 120.862C26.2112 121.586 25.907 121.953 25.8651 122.467C25.8546 122.603 25.8336 122.97 26.0539 123.327C26.3161 123.746 26.7461 123.862 26.872 123.893C27.3859 123.893 28.1621 123.914 29.0956 123.914C30.4276 123.914 30.9416 123.893 31.5184 123.893C35.158 123.883 35.9761 124.009 37.7802 123.893C38.4305 123.851 38.9444 123.316 38.9549 122.666C38.9654 122.026 38.4829 121.47 37.8326 121.397C36.2803 121.418 34.6545 121.397 32.9554 121.324C32.0743 121.282 31.2143 121.229 30.3752 121.156C30.3857 121.061 30.3857 120.925 30.3227 120.789C30.1339 120.443 29.6515 120.526 29.2319 120.275C29.0117 120.138 28.7389 119.876 28.5711 119.31L28.5816 119.32Z" fill="#2D1A8E"/>
<path d="M30.4174 116.572C31.1201 117.013 31.8229 117.453 32.5151 117.894C32.3368 118.45 32.0746 119.131 31.676 119.845C31.3614 120.411 31.0257 120.883 30.7111 121.261C30.4908 121.282 29.872 121.303 29.2322 120.904C28.7182 120.589 28.456 120.159 28.3406 119.95C28.5294 119.446 28.7916 118.859 29.1588 118.229C29.5783 117.527 30.0293 116.981 30.4174 116.572Z" fill="#FF004F"/>
<path d="M56.7335 52.6023C57.2789 51.9625 57.7299 51.4486 58.0236 51.1234C58.0236 51.1234 62.0407 46.6028 66.1523 43.2779C66.2991 43.152 66.5928 42.9213 67.0334 42.6591C68.4389 41.841 69.7919 41.7676 70.7463 41.7151C71.6588 41.6732 73.4524 41.6102 75.4033 42.5122C76.5151 43.0262 77.2493 43.666 77.6794 44.0436C80.7945 46.8231 84.6229 51.0185 85.6508 52.1618C88.703 55.3084 91.7551 58.4655 94.8073 61.6121C97.8386 64.7482 100.88 67.8843 103.911 71.0204C105.548 72.7511 107.173 74.4817 108.81 76.2228C109.03 76.5165 109.24 76.8102 109.45 77.1144C111.977 80.7225 113.697 84.4774 114.841 88.1065C116.854 92.0502 118.868 95.9939 120.882 99.9377C121.679 101.616 122.466 103.305 123.263 104.983C123.452 105.685 124.218 108.822 122.466 111.958C120.221 115.985 115.774 116.541 115.145 116.615C109.785 117.192 106.324 113.007 106.083 112.702C104.614 109.734 103.146 106.766 101.677 103.797C100.608 101.616 99.5272 99.4342 98.4574 97.2421C97.5449 95.3541 96.6219 93.4557 95.7094 91.5677C95.1639 90.2252 94.6185 88.8826 94.0731 87.5401C93.6431 87.0681 92.9928 86.3548 92.2062 85.5052C85.3151 78.0583 80.1337 73.1496 77.7213 70.7897C74.0712 67.2131 68.9948 61.8428 63.1001 54.249C62.3974 54.9833 61.7051 55.728 61.0024 56.4622C59.5759 55.1721 58.1495 53.882 56.723 52.5918L56.7335 52.6023Z" fill="#2D1A8E"/>
<path d="M63.1105 54.2487C60.9288 56.2731 58.0969 59.4197 55.8628 63.8564C51.3946 72.7193 52.0974 81.1417 52.6114 84.6869C51.9925 85.6833 50.8807 86.2497 49.7479 86.1553C48.1956 86.0294 47.4194 84.7288 47.346 84.603C41.1262 91.2842 34.9065 97.976 28.6762 104.657C28.1728 105.496 25.9282 109.472 27.4386 113.258C29.4629 118.335 36.9517 119.782 41.766 118.135C45.3846 116.898 46.5489 114.244 51.059 108.528C53.7022 105.182 57.4781 100.818 62.5966 96.0566C63.0161 95.7104 63.5825 95.1545 64.065 94.3574C64.7782 93.1722 64.946 92.0394 64.9985 91.4101C68.2185 83.4911 71.4385 75.5827 74.648 67.6638C70.7987 63.1851 66.9493 58.7064 63.1105 54.2278V54.2487Z" fill="#2D1A8E"/>
<path d="M56.8689 52.3398C58.3583 53.63 59.8581 54.92 61.3475 56.2101C59.4491 58.7169 57.0891 62.4509 55.348 67.4016C52.7783 74.7122 52.7993 81.1627 53.1034 84.9281C53.051 85.0749 52.4951 86.5539 51.1001 86.921C49.7681 87.2776 48.2262 86.4804 47.5339 84.9386C47.3451 82.4738 47.3242 79.7048 47.6074 76.6945C48.5514 66.7408 52.4217 59.1574 55.327 54.6054C55.841 53.8502 56.3549 53.0845 56.8794 52.3293L56.8689 52.3398Z" fill="#CE1963"/>
<path d="M68.6484 81.6452L70.9874 76.1912C72.7075 78.163 74.4172 80.1454 76.1373 82.1173C77.1547 83.1137 77.2806 84.7289 76.4519 85.8617C75.6024 87.026 73.9766 87.3721 72.7075 86.6379C71.3544 84.9702 70.0014 83.3129 68.6484 81.6452Z" fill="#CE1963"/>
<path d="M63.4036 37.3999C64.2168 38.8493 67.3216 41.0296 71.2644 41.1287C74.8497 41.2155 77.3262 39.5555 78.4105 38.5273C78.6446 38.3043 79.1375 37.7963 79.4455 36.9539C79.8644 35.839 79.8151 34.6993 79.6426 34.6621C79.5317 34.6373 79.3962 35.1081 79.1867 35.0833C79.0142 35.0586 78.854 34.7241 78.7924 34.5754C78.7924 34.5754 78.7924 34.5754 78.7924 34.563C78.3119 33.2994 79.4824 32.1102 79.3469 29.9918C79.3469 29.9918 79.2483 28.53 78.546 27.7C78.5214 27.6752 78.4351 27.5513 78.2996 27.4398C78.0531 27.2416 77.9669 27.1053 77.9176 27.1301C77.8067 27.1797 78.0039 27.6504 77.9546 28.3318C77.9423 28.4928 77.893 29.0503 77.7082 29.0874C77.4864 29.137 77.1784 28.3937 77.1168 28.2574C76.4515 26.7089 76.932 24.9003 76.9813 24.157C77.0799 22.7571 75.9586 20.7006 70.599 17.7894C70.7961 19.1026 70.7961 19.9945 70.6976 20.5892C70.6113 21.0971 70.291 21.4315 70.1431 21.6545C69.6256 22.4102 69.0836 22.7819 68.3566 23.3269C67.1122 24.2561 66.4961 24.7144 66.2497 25.0118C64.6603 26.9195 66.0526 30.2767 65.6953 30.3511C65.4488 30.4006 64.6479 28.9264 64.5863 27.7619C64.5863 27.638 64.5618 27.2664 64.5002 27.254C64.4386 27.254 64.3523 27.6009 64.2537 27.923C63.9334 28.9388 63.5268 29.137 63.2187 30.19C63.1448 30.4378 63.0709 30.7475 63.1571 31.0695C63.2188 31.2925 63.305 31.4536 63.3542 31.5155C63.5021 31.7633 64.0689 33.4976 63.6377 33.733C63.5145 33.7949 63.3543 33.7206 63.305 33.6958C62.7998 33.4357 62.8738 32.4942 62.7629 32.4942C62.6643 32.4942 62.5288 33.2003 62.5411 34.0675C62.5411 34.34 62.5411 34.7365 62.6397 35.2568C62.6397 35.2568 62.8368 36.3965 63.4282 37.4494L63.4036 37.3999Z" fill="#FF004F"/>
<path d="M76.8655 38.1261C76.2661 39.1456 74.0603 40.6127 71.3269 40.5754C68.8454 40.5381 67.167 39.2824 66.4477 38.524C65.9802 38.0391 65.7645 37.3801 65.7645 37.3801C65.4648 36.6963 65.3808 36.112 65.3568 35.9255C65.213 34.7692 65.5127 33.8243 65.7525 33.0535C65.8364 32.7924 65.8484 32.8048 66.0522 32.208C66.208 31.748 66.2799 31.5118 66.3399 31.5118C66.3998 31.5118 66.4238 31.7356 66.4717 31.9469C66.5916 32.5189 66.8554 32.8421 67.0112 33.1032C67.6106 34.1476 67.239 35.6271 67.4188 35.652C67.5387 35.6644 67.7904 35.0676 67.8743 34.3216C68.0182 32.9167 67.3709 32.2702 67.251 31.002C67.1431 29.9452 67.4787 29.1247 67.8144 28.2792C68.9773 25.3824 71.8664 24.1266 72.3939 23.9028C72.2261 24.8353 72.2021 25.4694 72.2501 25.8921C72.298 26.2651 72.5138 26.5013 72.6097 26.6629C72.9933 27.2846 73.3769 27.4835 73.7965 27.9062C74.3719 28.4906 74.6597 29.1495 74.7556 29.4355C75.403 31.2756 73.7366 33.0162 74.4799 33.8243C74.4918 33.8492 74.7436 34.0979 75.0193 34.0606C75.7386 33.9611 76.2301 31.9594 76.2901 31.1761C76.2901 31.1015 76.3141 30.828 76.362 30.8155C76.41 30.8155 76.4579 31.0642 76.5179 31.3004C76.7097 32.034 76.9854 32.1832 77.1772 32.9416C77.2252 33.1281 77.2611 33.3395 77.1892 33.5632C77.1412 33.7249 77.0813 33.8368 77.0453 33.8741C76.9375 34.0481 76.4939 35.2665 76.7936 35.453C76.8775 35.5028 76.9974 35.4531 77.0213 35.4282C77.381 35.2541 77.3451 34.5827 77.429 34.5827C77.5009 34.5827 77.5728 35.0925 77.5368 35.7141C77.5368 35.9006 77.5129 36.1866 77.441 36.5596C77.441 36.5596 77.2731 37.3677 76.8416 38.1013L76.8655 38.1261Z" fill="#CE1963"/>
<path d="M71.3505 29.3962C70.3155 28.5953 70.1183 28.3859 70.143 28.3489C70.1799 28.2996 70.4757 28.5337 71.0301 28.6446C71.6831 28.7801 72.102 28.6446 72.1513 28.7555C72.1759 28.8294 72.065 28.9896 71.3627 29.3962H71.3505Z" fill="black"/>
<path d="M71.6343 28.9643C70.9443 27.8554 70.8334 27.5843 70.8704 27.5597C70.9196 27.5227 71.1291 27.843 71.5973 28.1511C72.164 28.5084 72.6076 28.5207 72.6076 28.6562C72.6076 28.7302 72.4351 28.8411 71.6343 28.9766V28.9643Z" fill="black"/>
<path d="M72.4224 28.8293C71.9049 27.8313 71.8186 27.5972 71.8556 27.5725C71.9049 27.5479 72.0527 27.8313 72.447 28.127C72.9152 28.4843 73.2971 28.5336 73.2971 28.6322C73.2971 28.6938 73.137 28.78 72.4224 28.817V28.8293Z" fill="black"/>
<path d="M75.9339 29.4698C75.0344 28.2747 72.0527 28.2254 71.449 29.0386C71.1163 29.4944 71.5106 30.1967 71.9419 30.5664C73.1124 31.6013 75.7244 31.1947 76.1433 30.3816C76.3404 29.9996 76.0201 29.5684 75.9339 29.4575V29.4698Z" fill="white"/>
<path d="M75.5151 28.7556C76.0572 29.0513 76.2419 29.7535 76.0078 30.308C75.7737 30.8501 75.1454 31.2074 74.5786 31.0349C73.9256 30.8378 73.593 30 73.8887 29.3593C74.1597 28.7679 74.9359 28.4475 75.5273 28.7679L75.5151 28.7556Z" fill="black"/>
</svg>
