<svg width="114" height="155" viewBox="0 0 114 155" fill="none" xmlns="http://www.w3.org/2000/svg">
<path d="M107.462 129.701C102.178 139.313 81.9451 153.615 56.3527 154.23C32.9497 154.845 16.8698 143.849 9.84889 137.006C8.26353 135.545 5.1681 132.161 3.05428 126.702C0.336514 119.32 0.638618 111.861 1.77102 111.631C2.52596 111.477 3.35611 114.552 4.79049 114.399C5.92289 114.245 6.98001 112.092 7.35747 111.015V110.939C10.4527 102.634 2.82801 94.7906 3.73393 80.7958C3.73393 80.7958 4.3379 71.184 8.94301 65.6476C9.09399 65.4169 9.69772 64.6481 10.6036 63.8791C12.189 62.5719 12.7931 61.6491 13.0951 61.8028C13.7745 62.1873 12.4909 65.2631 12.8684 69.723C12.9439 70.7226 13.246 74.4135 14.4539 74.7211C15.8883 75.0286 17.9267 70.1844 18.3041 69.2616C22.6073 59.0346 19.512 47.1161 19.21 42.1948C18.6061 32.9675 25.8535 19.3572 60.8071 0.210449C59.5237 8.82264 59.5235 14.7435 60.1274 18.6651C60.6559 22.0485 62.7696 24.2784 63.751 25.6625C67.0727 30.6607 70.6967 33.1213 75.3773 36.6584C83.4551 42.81 87.5317 45.8089 89.0416 47.7312C99.3842 60.2651 90.3248 82.4106 92.6651 82.9488C94.2505 83.3333 99.4597 73.5677 99.9127 65.8782C99.9127 65.0324 100.063 62.6487 100.516 62.5718C100.969 62.5718 101.422 64.8787 102.102 66.9549C104.216 73.6447 106.783 74.9519 108.896 81.8724C109.349 83.4872 109.878 85.4865 109.274 87.6395C108.896 89.1005 108.292 90.1771 108.066 90.5616C107.084 92.1764 103.385 103.634 106.254 105.171C107.084 105.633 108.142 105.095 108.444 104.941C111.765 103.249 111.236 97.0207 111.916 97.0207C112.52 97.0207 113.426 101.711 113.35 107.401C113.35 109.17 113.351 111.784 112.747 115.245C112.747 115.245 111.463 122.78 107.613 129.701H107.462Z" fill="#FF004F"/>
<path d="M19.4353 134.083C23.4364 140.773 38.2334 150.385 56.4273 150.154C73.0359 149.924 84.2091 141.696 89.1162 136.698C92.2114 133.468 93.6456 129.162 93.6456 129.162C95.6084 124.702 96.2123 120.858 96.3633 119.627C97.3447 112.015 95.3065 105.786 93.7212 100.711C93.1927 98.9425 93.0417 99.0963 91.7583 95.1747C90.7014 92.1758 90.2483 90.561 89.7954 90.6379C89.3424 90.6379 89.267 92.0989 88.965 93.5599C88.2101 97.2509 86.3984 99.4038 85.3415 101.172C81.3403 108.016 83.8313 117.782 82.6234 117.936C81.8684 118.013 80.1324 114.091 79.6039 109.246C78.6225 100.019 83.0011 95.79 83.8315 87.4085C84.511 80.4111 82.3217 75.1052 80.0569 69.4919C72.281 50.422 52.9547 42.1944 49.4065 40.7334C50.5389 46.885 50.6898 51.0374 50.3124 53.8056C50.0104 56.1893 48.576 57.8808 47.9721 58.8804C45.4053 63.0327 42.8386 64.263 40.0453 67.0312C36.1952 70.799 34.3075 75.1822 33.6281 77.0276C29.2495 89.1001 40.4979 100.48 35.4399 105.863C35.2889 106.017 33.7037 107.708 31.8163 107.401C27.0602 106.709 23.7385 93.637 23.2855 88.4081C23.2855 87.8699 23.1345 86.1011 22.757 86.0242C22.455 86.0242 22.153 87.639 21.7756 89.1769C20.4922 94.0212 18.6051 95.0209 17.3217 100.019C17.0197 101.172 16.7176 102.633 17.1706 104.094C17.4725 105.171 17.9255 105.863 18.152 106.171C18.9069 107.324 21.7759 115.321 19.8131 116.475C19.2092 116.782 18.4541 116.474 18.2276 116.321C15.8118 115.167 16.0384 110.784 15.5099 110.784C15.057 110.784 14.6037 114.168 14.7547 118.166C14.7547 119.397 14.9059 121.319 15.4343 123.703C15.4343 123.703 16.5665 129.008 19.4353 133.853V134.083Z" fill="#CE1963"/>
<path d="M84.9649 81.5599C87.9092 74.6414 88.3624 73.0271 88.0604 72.9502C87.7584 72.7965 86.8526 74.7951 84.4369 76.9475C81.5681 79.4843 79.0012 80.0224 79.1522 80.7911C79.1522 81.2524 80.2843 81.7137 84.9649 81.6369V81.5599Z" fill="black"/>
<path d="M20.0414 85.0984C13.6245 79.2561 12.4167 77.7956 12.6432 77.4881C12.8697 77.1806 14.757 78.8718 18.3052 79.8711C22.5328 81.1011 25.3259 80.3325 25.6279 81.1781C25.7789 81.7162 24.9486 82.7154 20.117 85.0984H20.0414Z" fill="black"/>
<path d="M22.1537 82.4065C18.1526 74.6424 17.5485 72.7975 17.775 72.6438C18.0769 72.49 19.2846 74.7195 22.2288 76.8719C25.777 79.5624 28.6461 79.8699 28.6461 80.7155C28.6461 81.2536 27.4383 81.8684 22.1537 82.4065Z" fill="black"/>
<path d="M27.2877 81.7899C24.3434 74.8714 23.8902 73.2571 24.1922 73.1802C24.4941 73.0265 25.4004 75.0251 27.8162 77.1775C30.6849 79.7143 33.2513 80.2524 33.1004 81.0211C33.1004 81.4824 31.9683 81.9437 27.2877 81.8668V81.7899Z" fill="black"/>
<path d="M91.3076 85.0978C97.7245 79.2555 98.9323 77.795 98.7058 77.4875C98.4793 77.18 96.592 78.8712 93.0438 79.8705C88.8162 81.1005 86.0231 80.3319 85.7211 81.1775C85.5701 81.7156 86.4004 82.7148 91.232 85.0978H91.3076Z" fill="black"/>
<path d="M89.1928 82.4065C93.194 74.6424 93.798 72.7975 93.5716 72.6438C93.2696 72.49 92.062 74.7195 89.1177 76.8719C85.5695 79.5624 82.7005 79.8699 82.7005 80.7155C82.7005 81.2536 83.9083 81.8684 89.1928 82.4065Z" fill="black"/>
<path d="M50.0869 87.793C44.7268 79.4115 25.174 77.643 20.8709 82.7949C18.4551 85.64 20.72 90.5612 23.3623 93.2525C30.6097 100.711 47.8975 99.2503 50.9927 94.0215C52.5026 91.5608 50.5398 88.485 50.0869 87.716V87.793Z" fill="white"/>
<path d="M42.2355 82.4112C45.7082 84.6411 46.5388 89.4855 44.7269 93.0227C42.9151 96.5598 38.6116 98.6361 34.9879 97.1751C30.7603 95.4834 28.9485 89.7932 31.2133 85.6409C33.3271 81.7961 38.4608 80.0275 42.2355 82.4112Z" fill="black"/>
<path d="M61.5607 87.793C66.9208 79.4115 86.4736 77.643 90.7767 82.7949C93.1925 85.64 90.9276 90.5612 88.2853 93.2525C81.0379 100.711 63.7501 99.2503 60.6548 94.0215C59.145 91.5608 61.1078 88.485 61.5607 87.716V87.793Z" fill="white"/>
<path d="M69.4883 82.4107C66.0156 84.6406 65.1855 89.485 66.9973 93.0222C68.8092 96.5593 73.1121 98.6356 76.7358 97.1746C80.9635 95.4829 82.7753 89.7927 80.5105 85.6404C78.3967 81.7957 73.263 80.027 69.4883 82.4107Z" fill="black"/>
</svg>
