<svg width="309" height="320" viewBox="0 0 309 320" fill="none" xmlns="http://www.w3.org/2000/svg">
<path d="M196 235.125C196 218.201 206.501 218 219.449 218C232.397 218 242.898 218.201 242.898 235.125C242.898 252.049 242.907 307.101 219.449 307.101C196 307.101 196 252.049 196 235.125Z" fill="#60BF91" fill-opacity="0.7"/>
<path d="M237.346 273.077C237.346 274.181 236.707 275.084 235.906 275.084H234.242C227.664 275.084 223.606 280.642 223.606 290.328V314.993C223.606 316.097 222.967 317 222.166 317H218.099C217.307 317 216.659 316.109 216.659 314.993V268.749C216.659 267.645 217.298 266.741 218.099 266.741H221.833C222.58 266.741 229.205 266.658 229.268 267.699C229.367 269.38 224.553 266.419 228.08 267.698C229.96 265.051 230.31 265.612 233.648 265.612C234.521 265.612 235.294 265.713 236.149 265.913C236.833 266.076 237.337 266.917 237.337 267.883V273.077H237.346Z" fill="black"/>
<path opacity="0.8" d="M209.254 277.982C213.834 277.982 217.271 280.993 218.936 285.61C219.035 285.886 219.08 286.2 219.08 286.514V290.302C219.08 292.084 217.496 293.025 216.623 291.708C214.778 288.935 212.061 287.455 208.66 287.455H206.995C206.203 287.455 205.555 286.564 205.555 285.447V280.253C205.555 279.287 206.059 278.434 206.743 278.284C207.616 278.083 208.381 277.982 209.254 277.982Z" fill="black"/>
<path d="M257 258.785C257 263.421 258.715 267.716 261.296 270.217C262.339 271.232 262.818 273.002 262.633 274.772C262.095 280.046 263.121 286.016 266.643 291.927C266.828 292.233 267.038 292.517 267.265 292.741C274.445 300.056 281.827 297.13 285.964 290.145C286.821 288.706 288.234 288.198 289.503 288.777C291.269 289.579 293.261 289.626 295.313 288.576C299.138 286.617 301.576 281.332 301.568 275.609C301.568 273.769 302.282 272.034 303.459 271.244C306.73 269.026 309 264.141 309 258.785C309 254.75 307.705 251.151 305.671 248.732C304.981 247.918 304.603 246.715 304.527 245.452C303.67 230.645 294.842 219 284.072 219C273.756 219 265.222 229.678 263.76 243.588C263.6 245.098 262.961 246.408 262.002 247.128C259.026 249.346 257 253.735 257 258.785Z" fill="#74C20F" fill-opacity="0.7"/>
<path d="M297.912 276.431C297.912 277.47 297.311 278.32 296.557 278.32H294.991C288.802 278.32 284.983 283.549 284.983 292.662V315.87C284.983 316.909 284.382 317.759 283.629 317.759H279.802C279.057 317.759 278.447 316.921 278.447 315.87V272.359C278.447 271.32 279.048 270.47 279.802 270.47H283.316C284.018 270.47 284.602 271.225 284.662 272.205C284.755 273.787 281.968 271.603 282.772 270.47C284.541 267.979 291.291 269.407 294.432 269.407C295.253 269.407 295.981 269.502 296.786 269.691C297.429 269.844 297.903 270.635 297.903 271.544V276.431H297.912Z" fill="black"/>
<path opacity="0.8" d="M271.48 281.047C275.789 281.047 279.023 283.88 280.59 288.224C280.683 288.484 280.725 288.779 280.725 289.074V292.639C280.725 294.315 279.235 295.2 278.414 293.961C276.678 291.352 274.121 289.959 270.921 289.959H269.355C268.61 289.959 268 289.121 268 288.07V283.183C268 282.274 268.474 281.472 269.118 281.33C269.93 281.141 270.658 281.047 271.48 281.047Z" fill="black"/>
<path d="M130 257.785C130 262.421 131.715 266.716 134.296 269.217C135.339 270.232 135.818 272.002 135.633 273.772C135.095 279.046 136.121 285.016 139.643 290.927C139.828 291.233 140.038 291.517 140.265 291.741C147.445 299.056 154.827 296.13 158.964 289.145C159.821 287.706 161.234 287.198 162.503 287.776C164.269 288.579 166.261 288.626 168.313 287.576C172.138 285.617 174.576 280.332 174.568 274.609C174.568 272.769 175.282 271.034 176.459 270.244C179.73 268.026 182 263.141 182 257.785C182 253.75 180.705 250.151 178.671 247.732C177.981 246.918 177.603 245.715 177.527 244.452C176.67 229.645 167.842 218 157.072 218C146.756 218 138.222 228.678 136.76 242.588C136.6 244.098 135.961 245.408 135.002 246.128C132.026 248.346 130 252.735 130 257.785Z" fill="#74C20F" fill-opacity="0.7"/>
<path d="M173.912 278.431C173.912 279.47 173.311 280.32 172.557 280.32H170.991C164.802 280.32 160.983 285.549 160.983 294.662V317.87C160.983 318.909 160.382 319.759 159.629 319.759H155.802C155.057 319.759 154.447 318.921 154.447 317.87V274.359C154.447 273.32 155.048 272.47 155.802 272.47H159.316C160.018 272.47 160.602 273.225 160.662 274.205C160.755 275.787 157.968 273.603 158.772 272.47C160.541 269.979 167.291 271.407 170.432 271.407C171.253 271.407 171.981 271.502 172.786 271.691C173.429 271.844 173.903 272.635 173.903 273.544V278.431H173.912Z" fill="black"/>
<path opacity="0.8" d="M147.48 283.047C151.789 283.047 155.023 285.88 156.59 290.224C156.683 290.484 156.725 290.779 156.725 291.074V294.639C156.725 296.315 155.235 297.2 154.414 295.961C152.678 293.352 150.121 291.959 146.921 291.959H145.355C144.61 291.959 144 291.121 144 290.07V285.183C144 284.274 144.474 283.472 145.118 283.33C145.93 283.141 146.658 283.047 147.48 283.047Z" fill="black"/>
<path d="M49.3195 1.87141C55.7827 1.83814 62.3523 1.71473 68.8155 1.68146C71.4021 32.3111 73.5592 63.5745 75.1809 95.4708C78.9467 171.93 79.243 245.443 76.9213 315.471C52.6617 315.162 28.2969 314.762 4.03729 314.454C0.949481 245.106 0.32605 172.684 2.69419 97.4639C3.72913 64.6805 5.39396 32.5404 7.4769 1.04161C14.2555 1.28444 20.9286 1.43523 27.7072 1.67805C31.1935 14.6441 34.786 27.6112 38.2723 40.5772C41.99 27.6756 45.6018 14.773 49.3195 1.87141Z" fill="#7695CE" stroke="#7695CE" stroke-miterlimit="10"/>
<path d="M75.9003 109.686C66.3657 109.6 56.9377 109.425 47.4038 109.249C47.4592 126.739 47.5146 144.228 47.5701 161.718C57.0485 144.405 66.4219 126.999 75.9003 109.686Z" fill="#0D295B"/>
<path d="M2.81017 108.124C12.3465 108.027 21.7769 107.93 31.3132 107.833C31.3687 125.323 31.4241 142.813 31.4795 160.303C21.8877 142.909 12.4019 125.517 2.81017 108.124Z" fill="#0D295B"/>
<path d="M75.8997 109.778C66.3633 109.875 56.9329 109.972 47.3966 110.069C47.3412 92.5794 47.2858 75.0895 47.2303 57.5996C56.8221 74.9926 66.3079 92.3847 75.8997 109.778Z" fill="#0D295B"/>
<path d="M2.80826 108.305C12.3429 108.391 21.7709 108.566 31.3048 108.742C31.2494 91.2525 31.194 73.7626 31.1385 56.2727C21.6601 73.5862 12.2867 90.9918 2.80826 108.305Z" fill="#0D295B"/>
<path d="M78.1833 316.574C67.6951 316.48 57.2066 316.386 46.7184 316.293C47.0306 305.091 47.2372 293.889 47.5494 282.688C57.7254 293.983 68.0072 305.279 78.1825 316.665L78.1833 316.574Z" fill="#0D295B"/>
<path d="M2.75571 315.443C12.5023 315.53 22.1421 315.707 31.8879 315.885C31.9889 304.591 32.0899 293.297 32.085 282.002C22.3441 293.119 12.6025 304.327 2.75571 315.443Z" fill="#0D295B"/>
<path d="M76.2535 224.375C66.7188 224.29 57.2908 224.115 47.757 223.938C47.8124 241.428 47.8678 258.918 47.9232 276.408C57.4017 259.095 66.775 241.689 76.2535 224.375Z" fill="#0D295B"/>
<path d="M3.16158 222.899C12.6963 222.984 22.1259 222.977 31.6614 222.971C31.293 240.458 30.9248 257.944 30.6624 275.431C21.4953 257.95 12.3288 240.379 3.26762 222.9L3.16158 222.899Z" fill="#0D295B"/>
<path d="M76.2534 224.373C66.7171 224.47 57.2867 224.568 47.7503 224.665C47.6949 207.175 47.6395 189.685 47.5841 172.195C57.1759 189.588 66.6617 206.98 76.2534 224.373Z" fill="#0D295B"/>
<path d="M3.16092 222.99C12.6956 223.076 22.1236 223.251 31.6575 223.427C31.602 205.937 31.5466 188.448 31.4912 170.958C22.0128 188.271 12.6394 205.677 3.16092 222.99Z" fill="#0D295B"/>
<path d="M22.8009 171.062C18.0336 171.02 13.2666 170.977 8.6052 170.935C8.52697 179.679 8.66029 188.425 8.688 197.17C13.4276 188.468 18.1665 179.857 22.9062 171.154L22.8009 171.062Z" fill="#0D295B"/>
<path d="M22.7411 166.141C17.973 166.189 13.2045 166.238 8.54232 166.287C8.5146 157.542 8.48723 148.797 8.45951 140.052C13.2554 148.749 18.0512 157.445 22.7411 166.141Z" fill="#0D295B"/>
<path d="M55.3121 172.72C60.0811 172.58 64.8496 172.532 69.5126 172.391C69.6463 181.137 69.78 189.883 70.0196 198.63C65.117 190.024 60.2148 181.326 55.3121 172.72Z" fill="#0D295B"/>
<path d="M55.2668 166.163C60.0358 166.023 64.6999 165.792 69.4689 165.652C68.8055 156.902 68.0365 148.15 67.3724 139.491C63.3727 148.382 59.2665 157.272 55.2668 166.163Z" fill="#0D295B"/>
<path d="M70.4736 88.8715L52.4731 52.092L54.8861 7.38801L65.1635 7.38886L70.4736 88.8715Z" fill="#0D295B"/>
<path d="M8.06822 88.769L25.8781 52.0366L23.3113 7.37917L12.9286 7.37737L8.06822 88.769Z" fill="#0D295B"/>
<path d="M21.9301 280.274C16.739 280.228 11.5482 280.181 6.35706 280.135C6.27639 289.152 6.40726 298.171 6.43253 307.189C11.5984 298.218 16.7643 289.246 22.0353 280.366L21.9301 280.274Z" fill="#0D295B"/>
<path d="M21.9747 275.262C16.7828 275.307 11.5911 275.351 6.39922 275.396C6.37395 266.378 6.34837 257.36 6.3231 248.341C11.5403 257.315 16.7576 266.289 22.0807 275.263L21.9747 275.262Z" fill="#0D295B"/>
<path d="M57.7275 281.962C62.9202 281.826 68.1125 281.781 73.3052 281.646C73.4364 290.665 73.6736 299.685 73.8049 308.704C68.4809 299.821 63.0514 290.845 57.7275 281.962Z" fill="#0D295B"/>
<path d="M57.681 275.219C62.8737 275.083 68.0676 274.856 73.2604 274.72C72.4935 265.696 71.7268 256.671 70.9591 247.737C66.5332 256.898 62.1074 266.058 57.5748 275.309L57.681 275.219Z" fill="#0D295B"/>
</svg>
