<svg width="375" height="428" viewBox="0 0 375 428" fill="none" xmlns="http://www.w3.org/2000/svg">
<g clip-path="url(#clip0_379_1376)">
<path d="M111.248 44.7679C111.969 39.4729 104.512 35.133 98.8979 34.6806C96.2167 34.4628 93.4516 34.8817 90.9044 33.9936C85.4079 32.0834 83.2126 24.9787 77.8668 22.7333C73.8617 21.041 69.2533 22.549 65.3655 24.5095C61.4777 26.47 57.6401 28.9164 53.2999 29.2013C49.5294 29.4359 45.4237 28.0451 42.1224 29.8883C39.659 31.2623 38.3687 34.0941 36.1064 35.7697C33.8943 37.4119 30.9952 37.747 28.2469 37.8978C25.4986 38.0486 22.6498 38.0821 20.1361 39.2215C17.6225 40.361 15.5613 43.0252 16.0807 45.723L111.248 44.7846V44.7679Z" fill="#EBEBEB"/>
<path d="M393.248 53.7679C393.969 48.4729 386.512 44.133 380.898 43.6806C378.217 43.4628 375.452 43.8817 372.904 42.9936C367.408 41.0834 365.213 33.9787 359.867 31.7333C355.862 30.041 351.253 31.549 347.365 33.5095C343.478 35.47 339.64 37.9164 335.3 38.2013C331.529 38.4359 327.424 37.0451 324.122 38.8883C321.659 40.2623 320.369 43.0941 318.106 44.7697C315.894 46.4119 312.995 46.747 310.247 46.8978C307.499 47.0486 304.65 47.0821 302.136 48.2215C299.622 49.361 297.561 52.0252 298.081 54.723L393.248 53.7846V53.7679Z" fill="#EBEBEB"/>
<path d="M53.2484 124.768C53.969 119.473 46.5118 115.133 40.8979 114.681C38.2167 114.463 35.4516 114.882 32.9044 113.994C27.4079 112.083 25.2126 104.979 19.8668 102.733C15.8617 101.041 11.2533 102.549 7.3655 104.51C3.47768 106.47 -0.359855 108.916 -4.70013 109.201C-8.47064 109.436 -12.5763 108.045 -15.8776 109.888C-18.341 111.262 -19.6313 114.094 -21.8936 115.77C-24.1057 117.412 -27.0048 117.747 -29.7531 117.898C-32.5014 118.049 -35.3502 118.082 -37.8639 119.222C-40.3775 120.361 -42.4387 123.025 -41.9193 125.723L53.2484 124.785V124.768Z" fill="#EBEBEB"/>
<path d="M361.248 124.768C361.969 119.473 354.512 115.133 348.898 114.681C346.217 114.463 343.452 114.882 340.904 113.994C335.408 112.083 333.213 104.979 327.867 102.733C323.862 101.041 319.253 102.549 315.365 104.51C311.478 106.47 307.64 108.916 303.3 109.201C299.529 109.436 295.424 108.045 292.122 109.888C289.659 111.262 288.369 114.094 286.106 115.77C283.894 117.412 280.995 117.747 278.247 117.898C275.499 118.049 272.65 118.082 270.136 119.222C267.622 120.361 265.561 123.025 266.081 125.723L361.248 124.785V124.768Z" fill="#EBEBEB"/>
<path d="M188.248 92.7679C188.969 87.4729 181.512 83.133 175.898 82.6806C173.217 82.4628 170.452 82.8817 167.904 81.9936C162.408 80.0834 160.213 72.9787 154.867 70.7333C150.862 69.041 146.253 70.549 142.365 72.5095C138.478 74.47 134.64 76.9164 130.3 77.2013C126.529 77.4359 122.424 76.0451 119.122 77.8883C116.659 79.2623 115.369 82.0941 113.106 83.7697C110.894 85.4119 107.995 85.747 105.247 85.8978C102.499 86.0486 99.6498 86.0821 97.1361 87.2215C94.6225 88.361 92.5613 91.0252 93.0807 93.723L188.248 92.7846V92.7679Z" fill="#EBEBEB"/>
<path d="M183.196 166.267C184.453 157.152 171.583 149.645 161.913 148.874C157.305 148.505 152.512 149.209 148.138 147.684C138.67 144.383 134.9 132.151 125.649 128.264C118.745 125.348 110.802 127.945 104.099 131.313C97.4124 134.681 90.7931 138.921 83.3023 139.407C76.8003 139.826 69.7285 137.413 64.0476 140.596C59.8079 142.959 57.5791 147.852 53.6745 150.734C49.8537 153.549 44.8599 154.152 40.1174 154.404C35.375 154.655 30.4649 154.705 26.1414 156.683C21.8179 158.66 18.2485 163.234 19.1366 167.893L183.179 166.267H183.196Z" fill="#F5F5F5"/>
</g>
<defs>
<clipPath id="clip0_379_1376">
<rect width="375" height="428" fill="white"/>
</clipPath>
</defs>
</svg>
