<svg width="309" height="320" viewBox="0 0 309 320" fill="none" xmlns="http://www.w3.org/2000/svg">
<path d="M196 235.125C196 218.201 206.501 218 219.449 218C232.397 218 242.898 218.201 242.898 235.125C242.898 252.049 242.907 307.101 219.449 307.101C196 307.101 196 252.049 196 235.125Z" fill="#60BF91" fill-opacity="0.7"/>
<path d="M237.346 273.077C237.346 274.181 236.707 275.084 235.906 275.084H234.242C227.664 275.084 223.606 280.642 223.606 290.328V314.993C223.606 316.097 222.967 317 222.166 317H218.099C217.307 317 216.659 316.109 216.659 314.993V268.749C216.659 267.645 217.298 266.741 218.099 266.741H221.833C222.58 266.741 229.205 266.658 229.268 267.699C229.367 269.38 224.553 266.419 228.08 267.698C229.96 265.051 230.31 265.612 233.648 265.612C234.521 265.612 235.294 265.713 236.149 265.913C236.833 266.076 237.337 266.917 237.337 267.883V273.077H237.346Z" fill="black"/>
<path opacity="0.8" d="M209.254 277.982C213.834 277.982 217.271 280.993 218.936 285.61C219.035 285.886 219.08 286.2 219.08 286.514V290.302C219.08 292.084 217.496 293.025 216.623 291.708C214.778 288.935 212.061 287.455 208.66 287.455H206.995C206.203 287.455 205.555 286.564 205.555 285.447V280.253C205.555 279.287 206.059 278.434 206.743 278.284C207.616 278.083 208.381 277.982 209.254 277.982Z" fill="black"/>
<path d="M257 258.785C257 263.421 258.715 267.716 261.296 270.217C262.339 271.232 262.818 273.002 262.633 274.772C262.095 280.046 263.121 286.016 266.643 291.927C266.828 292.233 267.038 292.517 267.265 292.741C274.445 300.056 281.827 297.13 285.964 290.145C286.821 288.706 288.234 288.198 289.503 288.777C291.269 289.579 293.261 289.626 295.313 288.576C299.138 286.617 301.576 281.332 301.568 275.609C301.568 273.769 302.282 272.034 303.459 271.244C306.73 269.026 309 264.141 309 258.785C309 254.75 307.705 251.151 305.671 248.732C304.981 247.918 304.603 246.715 304.527 245.452C303.67 230.645 294.842 219 284.072 219C273.756 219 265.222 229.678 263.76 243.588C263.6 245.098 262.961 246.408 262.002 247.128C259.026 249.346 257 253.735 257 258.785Z" fill="#74C20F" fill-opacity="0.7"/>
<path d="M297.912 276.431C297.912 277.47 297.311 278.32 296.557 278.32H294.991C288.802 278.32 284.983 283.549 284.983 292.662V315.87C284.983 316.909 284.382 317.759 283.629 317.759H279.802C279.057 317.759 278.447 316.921 278.447 315.87V272.359C278.447 271.32 279.048 270.47 279.802 270.47H283.316C284.018 270.47 284.602 271.225 284.662 272.205C284.755 273.787 281.968 271.603 282.772 270.47C284.541 267.979 291.291 269.407 294.432 269.407C295.253 269.407 295.981 269.502 296.786 269.691C297.429 269.844 297.903 270.635 297.903 271.544V276.431H297.912Z" fill="black"/>
<path opacity="0.8" d="M271.48 281.047C275.789 281.047 279.023 283.88 280.59 288.224C280.683 288.484 280.725 288.779 280.725 289.074V292.639C280.725 294.315 279.235 295.2 278.414 293.961C276.678 291.352 274.121 289.959 270.921 289.959H269.355C268.61 289.959 268 289.121 268 288.07V283.183C268 282.274 268.474 281.472 269.118 281.33C269.93 281.141 270.658 281.047 271.48 281.047Z" fill="black"/>
<path d="M130 257.785C130 262.421 131.715 266.716 134.296 269.217C135.339 270.232 135.818 272.002 135.633 273.772C135.095 279.046 136.121 285.016 139.643 290.927C139.828 291.233 140.038 291.517 140.265 291.741C147.445 299.056 154.827 296.13 158.964 289.145C159.821 287.706 161.234 287.198 162.503 287.776C164.269 288.579 166.261 288.626 168.313 287.576C172.138 285.617 174.576 280.332 174.568 274.609C174.568 272.769 175.282 271.034 176.459 270.244C179.73 268.026 182 263.141 182 257.785C182 253.749 180.705 250.151 178.671 247.732C177.981 246.918 177.603 245.715 177.527 244.452C176.67 229.645 167.842 218 157.072 218C146.756 218 138.222 228.678 136.76 242.588C136.6 244.098 135.961 245.408 135.002 246.128C132.026 248.346 130 252.735 130 257.785Z" fill="#74C20F" fill-opacity="0.7"/>
<path d="M173.912 278.431C173.912 279.47 173.311 280.32 172.557 280.32H170.991C164.802 280.32 160.983 285.549 160.983 294.662V317.87C160.983 318.909 160.382 319.759 159.629 319.759H155.802C155.057 319.759 154.447 318.921 154.447 317.87V274.359C154.447 273.32 155.048 272.47 155.802 272.47H159.316C160.018 272.47 160.602 273.225 160.662 274.205C160.755 275.787 157.968 273.603 158.772 272.47C160.541 269.979 167.291 271.407 170.432 271.407C171.253 271.407 171.981 271.502 172.786 271.691C173.429 271.844 173.903 272.635 173.903 273.544V278.431H173.912Z" fill="black"/>
<path opacity="0.8" d="M147.48 283.047C151.789 283.047 155.023 285.88 156.59 290.224C156.683 290.484 156.725 290.779 156.725 291.074V294.639C156.725 296.315 155.235 297.2 154.414 295.961C152.678 293.352 150.121 291.959 146.921 291.959H145.355C144.61 291.959 144 291.121 144 290.07V285.183C144 284.274 144.474 283.472 145.118 283.33C145.93 283.141 146.658 283.047 147.48 283.047Z" fill="black"/>
<path d="M49.3195 1.87142C55.7827 1.83815 62.3523 1.71475 68.8155 1.68148C71.4021 32.3111 73.5592 63.5745 75.1809 95.4708C78.9467 171.93 79.243 245.443 76.9213 315.471C52.6617 315.162 28.2969 314.762 4.03729 314.454C0.949483 245.106 0.326047 172.684 2.69419 97.4639C3.72913 64.6805 5.39396 32.5404 7.4769 1.04163C14.2555 1.28445 20.9286 1.43524 27.7072 1.67807C31.1935 14.6441 34.786 27.6112 38.2723 40.5773C41.99 27.6756 45.6018 14.773 49.3195 1.87142Z" fill="#7695CE" stroke="#7695CE" stroke-miterlimit="10"/>
<path d="M75.9003 109.686C66.3657 109.6 56.9377 109.425 47.4038 109.249C47.4592 126.738 47.5146 144.228 47.5701 161.718C57.0485 144.405 66.4219 126.999 75.9003 109.686Z" fill="#0D295B"/>
<path d="M2.81017 108.124C12.3465 108.027 21.7769 107.93 31.3132 107.833C31.3687 125.323 31.4241 142.813 31.4795 160.303C21.8877 142.909 12.4019 125.517 2.81017 108.124Z" fill="#0D295B"/>
<path d="M75.8997 109.778C66.3633 109.875 56.9329 109.972 47.3966 110.069C47.3412 92.5794 47.2858 75.0895 47.2303 57.5996C56.8221 74.9926 66.3079 92.3847 75.8997 109.778Z" fill="#0D295B"/>
<path d="M2.80825 108.305C12.343 108.391 21.7709 108.566 31.3048 108.742C31.2494 91.2525 31.194 73.7625 31.1385 56.2726C21.6601 73.5862 12.2867 90.9917 2.80825 108.305Z" fill="#0D295B"/>
<path d="M78.1833 316.574C67.6951 316.48 57.2066 316.386 46.7184 316.293C47.0306 305.091 47.2372 293.889 47.5494 282.688C57.7254 293.983 68.0072 305.279 78.1825 316.665L78.1833 316.574Z" fill="#0D295B"/>
<path d="M2.75571 315.443C12.5023 315.53 22.1421 315.707 31.8879 315.885C31.9889 304.591 32.0899 293.297 32.085 282.001C22.3441 293.118 12.6025 304.327 2.75571 315.443Z" fill="#0D295B"/>
<path d="M76.2535 224.375C66.7188 224.29 57.2908 224.115 47.757 223.938C47.8124 241.428 47.8678 258.918 47.9232 276.408C57.4017 259.095 66.775 241.689 76.2535 224.375Z" fill="#0D295B"/>
<path d="M3.16158 222.899C12.6963 222.984 22.1259 222.977 31.6614 222.971C31.293 240.457 30.9248 257.944 30.6624 275.431C21.4953 257.95 12.3288 240.379 3.26762 222.9L3.16158 222.899Z" fill="#0D295B"/>
<path d="M76.2534 224.373C66.7171 224.47 57.2867 224.568 47.7503 224.665C47.6949 207.175 47.6395 189.685 47.5841 172.195C57.1759 189.588 66.6617 206.98 76.2534 224.373Z" fill="#0D295B"/>
<path d="M3.16092 222.99C12.6956 223.076 22.1236 223.251 31.6575 223.427C31.602 205.937 31.5466 188.448 31.4912 170.958C22.0128 188.271 12.6394 205.677 3.16092 222.99Z" fill="#0D295B"/>
<path d="M22.8009 171.062C18.0336 171.02 13.2666 170.977 8.6052 170.935C8.52697 179.679 8.66029 188.425 8.688 197.17C13.4276 188.468 18.1665 179.857 22.9062 171.154L22.8009 171.062Z" fill="#0D295B"/>
<path d="M22.7411 166.141C17.973 166.189 13.2045 166.238 8.54232 166.287C8.5146 157.542 8.48723 148.797 8.45951 140.052C13.2554 148.749 18.0512 157.445 22.7411 166.141Z" fill="#0D295B"/>
<path d="M55.3121 172.72C60.0811 172.58 64.8496 172.532 69.5126 172.391C69.6463 181.137 69.78 189.883 70.0196 198.63C65.117 190.024 60.2148 181.326 55.3121 172.72Z" fill="#0D295B"/>
<path d="M55.2668 166.163C60.0358 166.023 64.6999 165.792 69.4689 165.652C68.8055 156.902 68.0365 148.15 67.3724 139.491C63.3727 148.382 59.2665 157.272 55.2668 166.163Z" fill="#0D295B"/>
<path d="M70.4736 88.8715L52.4731 52.092L54.8861 7.38799L65.1635 7.38885L70.4736 88.8715Z" fill="#0D295B"/>
<path d="M8.06822 88.7691L25.8781 52.0367L23.3113 7.37923L12.9286 7.37743L8.06822 88.7691Z" fill="#0D295B"/>
<path d="M21.9301 280.274C16.739 280.228 11.5482 280.181 6.35706 280.135C6.27639 289.152 6.40726 298.171 6.43253 307.189C11.5984 298.218 16.7643 289.246 22.0353 280.366L21.9301 280.274Z" fill="#0D295B"/>
<path d="M21.9747 275.262C16.7828 275.307 11.5911 275.351 6.39922 275.396C6.37395 266.378 6.34837 257.36 6.3231 248.342C11.5403 257.315 16.7576 266.289 22.0807 275.263L21.9747 275.262Z" fill="#0D295B"/>
<path d="M57.7275 281.962C62.9202 281.826 68.1125 281.781 73.3052 281.646C73.4364 290.665 73.6736 299.685 73.8049 308.704C68.4809 299.821 63.0514 290.845 57.7275 281.962Z" fill="#0D295B"/>
<path d="M57.681 275.219C62.8737 275.083 68.0676 274.856 73.2604 274.72C72.4935 265.696 71.7268 256.671 70.9591 247.737C66.5332 256.898 62.1074 266.058 57.5748 275.309L57.681 275.219Z" fill="#0D295B"/>
<path d="M291.264 312.933C291.599 313.143 291.515 313.762 291.841 313.856C292.176 313.961 292.648 313.405 293.047 312.818C294.568 311.444 296.078 310.07 297.599 308.696C297.767 308.591 298.7 308.035 299.56 308.413C299.56 308.413 300.431 308.79 300.714 310.112C301.029 311.601 299.382 312.944 297.83 314.244C296.686 315.199 294.903 316.489 292.375 317.548C292.103 317.632 291.704 317.737 291.201 317.727C290.55 317.716 290.057 317.527 289.764 317.402C289.606 317.223 289.439 317.013 289.281 316.772C288.736 315.923 288.537 315.084 288.463 314.496C290.141 312.965 290.907 312.724 291.253 312.944L291.264 312.933Z" fill="#2D1A8E"/>
<path d="M286.712 310.3C286.712 310.447 286.775 310.489 287.016 310.93C287.016 310.93 287.132 311.139 287.635 312.241C288.338 313.783 288.118 314.297 288.537 314.548C289.324 315.01 291.002 314.087 291.201 312.912C291.264 312.534 290.991 311.958 290.435 310.814C289.701 309.293 289.439 309.021 289.303 308.937C289.292 308.937 289.282 308.926 289.261 308.916C288.254 308.433 286.702 309.503 286.733 310.3H286.712Z" fill="#FF004F"/>
<path d="M198.722 313.531C198.051 314.118 197.506 314.653 197.076 315.073C196.352 315.796 196.048 316.164 196.006 316.678C195.995 316.814 195.974 317.181 196.195 317.538C196.457 317.957 196.887 318.073 197.013 318.104C197.527 318.104 198.303 318.125 199.236 318.125C200.568 318.125 201.082 318.104 201.659 318.104C205.299 318.094 206.117 318.219 207.921 318.104C208.571 318.062 209.085 317.527 209.096 316.877C209.106 316.237 208.624 315.681 207.973 315.608C206.421 315.629 204.795 315.608 203.096 315.534C202.215 315.492 201.355 315.44 200.516 315.366C200.527 315.272 200.527 315.136 200.464 314.999C200.275 314.653 199.792 314.737 199.373 314.485C199.152 314.349 198.88 314.087 198.712 313.52L198.722 313.531Z" fill="#2D1A8E"/>
<path d="M200.558 310.783C201.261 311.223 201.964 311.664 202.656 312.104C202.478 312.66 202.215 313.342 201.817 314.055C201.502 314.622 201.167 315.094 200.852 315.471C200.632 315.492 200.013 315.513 199.373 315.115C198.859 314.8 198.597 314.37 198.481 314.16C198.67 313.657 198.932 313.069 199.3 312.44C199.719 311.737 200.17 311.192 200.558 310.783Z" fill="#FF004F"/>
<path d="M226.874 246.813C227.42 246.173 227.871 245.659 228.164 245.334C228.164 245.334 232.182 240.813 236.293 237.488C236.44 237.363 236.734 237.132 237.174 236.87C238.58 236.052 239.933 235.978 240.887 235.926C241.8 235.884 243.593 235.821 245.544 236.723C246.656 237.237 247.39 237.877 247.82 238.254C250.935 241.034 254.764 245.229 255.792 246.372C258.844 249.519 261.896 252.676 264.948 255.823C267.979 258.959 271.021 262.095 274.052 265.231C275.689 266.962 277.314 268.692 278.95 270.433C279.171 270.727 279.381 271.021 279.59 271.325C282.118 274.933 283.838 278.688 284.981 282.317C286.995 286.261 289.009 290.204 291.023 294.148C291.82 295.826 292.607 297.515 293.404 299.193C293.593 299.896 294.358 303.032 292.607 306.168C290.362 310.196 285.915 310.752 285.286 310.825C279.926 311.402 276.465 307.217 276.223 306.913C274.755 303.945 273.287 300.976 271.818 298.008C270.748 295.826 269.668 293.645 268.598 291.453C267.686 289.565 266.763 287.666 265.85 285.778C265.305 284.436 264.759 283.093 264.214 281.751C263.784 281.279 263.134 280.565 262.347 279.716C255.456 272.269 250.274 267.36 247.862 265C244.212 261.424 239.136 256.053 233.241 248.46C232.538 249.194 231.846 249.939 231.143 250.673C229.717 249.383 228.29 248.093 226.864 246.802L226.874 246.813Z" fill="#2D1A8E"/>
<path d="M233.251 248.459C231.07 250.484 228.238 253.63 226.004 258.067C221.535 266.93 222.238 275.352 222.752 278.897C222.133 279.894 221.022 280.46 219.889 280.366C218.336 280.24 217.56 278.939 217.487 278.814C211.267 285.495 205.047 292.187 198.817 298.868C198.314 299.707 196.069 303.682 197.579 307.469C199.604 312.545 207.093 313.993 211.907 312.346C215.525 311.108 216.69 308.455 221.2 302.738C223.843 299.392 227.619 295.029 232.737 290.267C233.157 289.921 233.723 289.365 234.206 288.568C234.919 287.383 235.087 286.25 235.139 285.621C238.359 277.702 241.579 269.793 244.789 261.874C240.939 257.396 237.09 252.917 233.251 248.438V248.459Z" fill="#2D1A8E"/>
<path d="M227.01 246.55C228.499 247.841 229.999 249.131 231.488 250.421C229.59 252.927 227.23 256.661 225.489 261.612C222.919 268.923 222.94 275.373 223.244 279.139C223.192 279.286 222.636 280.764 221.241 281.132C219.909 281.488 218.367 280.691 217.675 279.149C217.486 276.684 217.465 273.915 217.748 270.905C218.692 260.951 222.563 253.368 225.468 248.816C225.982 248.061 226.496 247.295 227.02 246.54L227.01 246.55Z" fill="#CE1963"/>
<path d="M238.789 275.856L241.128 270.402C242.848 272.374 244.558 274.356 246.278 276.328C247.296 277.324 247.421 278.94 246.593 280.072C245.743 281.237 244.117 281.583 242.848 280.848C241.495 279.181 240.142 277.524 238.789 275.856Z" fill="#CE1963"/>
<path d="M233.544 231.61C234.358 233.06 237.462 235.24 241.405 235.339C244.991 235.426 247.467 233.766 248.551 232.738C248.785 232.515 249.278 232.007 249.586 231.165C250.005 230.05 249.956 228.91 249.783 228.873C249.673 228.848 249.537 229.319 249.328 229.294C249.155 229.269 248.995 228.935 248.933 228.786C248.933 228.786 248.933 228.786 248.933 228.774C248.453 227.51 249.623 226.321 249.488 224.202C249.488 224.202 249.389 222.741 248.687 221.911C248.662 221.886 248.576 221.762 248.44 221.65C248.194 221.452 248.108 221.316 248.058 221.341C247.948 221.39 248.145 221.861 248.095 222.542C248.083 222.703 248.034 223.261 247.849 223.298C247.627 223.348 247.319 222.604 247.258 222.468C246.592 220.919 247.073 219.111 247.122 218.368C247.221 216.968 246.099 214.911 240.74 212C240.937 213.313 240.937 214.205 240.838 214.8C240.752 215.308 240.432 215.642 240.284 215.865C239.766 216.621 239.224 216.992 238.497 217.538C237.253 218.467 236.637 218.925 236.391 219.222C234.801 221.13 236.193 224.487 235.836 224.562C235.59 224.611 234.789 223.137 234.727 221.973C234.727 221.849 234.703 221.477 234.641 221.465C234.579 221.465 234.493 221.811 234.395 222.134C234.074 223.149 233.668 223.348 233.36 224.401C233.286 224.648 233.212 224.958 233.298 225.28C233.36 225.503 233.446 225.664 233.495 225.726C233.643 225.974 234.21 227.708 233.779 227.944C233.655 228.006 233.495 227.931 233.446 227.906C232.941 227.646 233.015 226.705 232.904 226.705C232.805 226.705 232.67 227.411 232.682 228.278C232.682 228.551 232.682 228.947 232.781 229.467C232.781 229.467 232.978 230.607 233.569 231.66L233.544 231.61Z" fill="#FF004F"/>
<path d="M247.006 232.337C246.407 233.356 244.201 234.823 241.468 234.786C238.986 234.749 237.308 233.493 236.589 232.735C236.121 232.25 235.905 231.591 235.905 231.591C235.606 230.907 235.522 230.323 235.498 230.136C235.354 228.98 235.654 228.035 235.893 227.264C235.977 227.003 235.989 227.015 236.193 226.419C236.349 225.959 236.421 225.722 236.481 225.722C236.541 225.722 236.565 225.946 236.613 226.158C236.732 226.729 236.996 227.053 237.152 227.314C237.751 228.358 237.38 229.838 237.56 229.863C237.68 229.875 237.931 229.278 238.015 228.532C238.159 227.127 237.512 226.481 237.392 225.213C237.284 224.156 237.62 223.335 237.955 222.49C239.118 219.593 242.007 218.337 242.535 218.113C242.367 219.046 242.343 219.68 242.391 220.103C242.439 220.476 242.655 220.712 242.751 220.874C243.134 221.495 243.518 221.694 243.937 222.117C244.513 222.701 244.801 223.36 244.896 223.646C245.544 225.486 243.877 227.227 244.621 228.035C244.633 228.06 244.884 228.308 245.16 228.271C245.879 228.172 246.371 226.17 246.431 225.387C246.431 225.312 246.455 225.039 246.503 225.026C246.551 225.026 246.599 225.275 246.659 225.511C246.851 226.245 247.126 226.394 247.318 227.152C247.366 227.339 247.402 227.55 247.33 227.774C247.282 227.936 247.222 228.047 247.186 228.085C247.078 228.259 246.635 229.477 246.934 229.664C247.018 229.713 247.138 229.664 247.162 229.639C247.522 229.465 247.486 228.793 247.57 228.793C247.642 228.793 247.714 229.303 247.678 229.925C247.678 230.111 247.654 230.397 247.582 230.77C247.582 230.77 247.414 231.578 246.982 232.312L247.006 232.337Z" fill="#CE1963"/>
<path d="M241.491 223.607C240.456 222.806 240.259 222.596 240.284 222.559C240.321 222.51 240.617 222.744 241.171 222.855C241.824 222.991 242.243 222.855 242.292 222.966C242.317 223.04 242.206 223.2 241.504 223.607H241.491Z" fill="black"/>
<path d="M241.775 223.175C241.085 222.066 240.974 221.795 241.011 221.77C241.06 221.733 241.27 222.054 241.738 222.362C242.305 222.719 242.748 222.731 242.748 222.867C242.748 222.941 242.576 223.052 241.775 223.187V223.175Z" fill="black"/>
<path d="M242.563 223.04C242.046 222.042 241.959 221.808 241.996 221.783C242.046 221.759 242.193 222.042 242.588 222.338C243.056 222.695 243.438 222.744 243.438 222.843C243.438 222.904 243.278 222.991 242.563 223.028V223.04Z" fill="black"/>
<path d="M246.075 223.68C245.175 222.485 242.194 222.436 241.59 223.249C241.257 223.705 241.652 224.407 242.083 224.777C243.253 225.812 245.865 225.405 246.284 224.592C246.481 224.21 246.161 223.779 246.075 223.668V223.68Z" fill="white"/>
<path d="M245.656 222.966C246.198 223.262 246.383 223.964 246.149 224.519C245.914 225.061 245.286 225.418 244.719 225.245C244.066 225.048 243.734 224.211 244.029 223.57C244.3 222.978 245.077 222.658 245.668 222.978L245.656 222.966Z" fill="black"/>
</svg>
