<svg width="375" height="273" viewBox="0 0 375 273" fill="none" xmlns="http://www.w3.org/2000/svg">
<path d="M29.7744 221.299C26.9971 221.299 25.2041 219.84 25.0195 217.774L25.0107 217.678H26.5928L26.6016 217.774C26.7158 219.04 28.0342 219.84 29.8623 219.84C31.585 219.84 32.8418 218.952 32.8418 217.66V217.651C32.8418 216.597 32.1123 215.876 30.3721 215.489L28.9658 215.182C26.4258 214.619 25.3271 213.45 25.3271 211.613V211.604C25.3359 209.504 27.1729 208.019 29.792 208.019C32.3232 208.019 34.0898 209.513 34.2217 211.402L34.2305 211.525H32.6484L32.6309 211.411C32.4551 210.295 31.4004 209.469 29.748 209.478C28.166 209.486 26.9443 210.233 26.9443 211.561V211.569C26.9443 212.58 27.6387 213.266 29.3613 213.644L30.7676 213.96C33.4131 214.549 34.459 215.612 34.459 217.44V217.449C34.459 219.822 32.6045 221.299 29.7744 221.299ZM36.9902 221V207.764H38.5195V215.665H38.6602L42.7559 211.525H44.6104L40.4795 215.507L44.8828 221H42.958L39.4072 216.544L38.5195 217.405V221H36.9902ZM47.4844 209.697C46.9043 209.697 46.4297 209.223 46.4297 208.643C46.4297 208.062 46.9043 207.588 47.4844 207.588C48.0645 207.588 48.5391 208.062 48.5391 208.643C48.5391 209.223 48.0645 209.697 47.4844 209.697ZM46.7109 221V211.525H48.2402V221H46.7109ZM51.123 224.164V211.525H52.6523V213.037H52.793C53.373 211.982 54.4277 211.358 55.7461 211.358C58.1455 211.358 59.7188 213.301 59.7188 216.254V216.271C59.7188 219.242 58.1543 221.167 55.7461 221.167C54.4453 221.167 53.3115 220.517 52.793 219.506H52.6523V224.164H51.123ZM55.3945 219.813C57.126 219.813 58.1543 218.478 58.1543 216.271V216.254C58.1543 214.048 57.126 212.712 55.3945 212.712C53.6719 212.712 52.6172 214.065 52.6172 216.254V216.271C52.6172 218.46 53.6719 219.813 55.3945 219.813Z" fill="white" fill-opacity="0.7"/>
<path d="M362.226 89.7543H350.323V93.5102H362.226V89.7543Z" fill="#835B30"/>
<path d="M182 270.28C192.221 205.824 202.055 140.762 211.629 75.4579C214.087 58.3747 216.674 41.1703 219.132 24.087C231.294 19.1196 252.383 12.2136 279.553 11.8501C309.181 11.4866 332.21 18.9984 344.76 24.2082C346.442 38.8683 347.995 53.6495 349.677 68.3096C357.828 136.521 365.849 204.612 374 272.824C360.635 272.824 334.383 272.824 284.159 272.824C236.547 271.128 195.766 272.824 182 270.28Z" fill="#D29B5A"/>
<path d="M220.943 215.879C222.587 215.879 223.919 214.631 223.919 213.092C223.919 211.553 222.587 210.306 220.943 210.306C219.3 210.306 217.968 211.553 217.968 213.092C217.968 214.631 219.3 215.879 220.943 215.879Z" fill="#76512B"/>
<path d="M244.103 218.665C245.746 218.665 247.079 217.418 247.079 215.879C247.079 214.34 245.746 213.092 244.103 213.092C242.459 213.092 241.127 214.34 241.127 215.879C241.127 217.418 242.459 218.665 244.103 218.665Z" fill="#76512B"/>
<path d="M269.72 220.847C271.364 220.847 272.696 219.599 272.696 218.06C272.696 216.521 271.364 215.274 269.72 215.274C268.077 215.274 266.744 216.521 266.744 218.06C266.744 219.599 268.077 220.847 269.72 220.847Z" fill="#76512B"/>
<path d="M294.948 219.878C296.591 219.878 297.924 218.63 297.924 217.091C297.924 215.552 296.591 214.305 294.948 214.305C293.304 214.305 291.972 215.552 291.972 217.091C291.972 218.63 293.304 219.878 294.948 219.878Z" fill="#76512B"/>
<path d="M319.659 215.879C321.302 215.879 322.634 214.631 322.634 213.092C322.634 211.553 321.302 210.306 319.659 210.306C318.015 210.306 316.683 211.553 316.683 213.092C316.683 214.631 318.015 215.879 319.659 215.879Z" fill="#76512B"/>
<path d="M342.299 210.185C343.943 210.185 345.275 208.937 345.275 207.398C345.275 205.859 343.943 204.612 342.299 204.612C340.656 204.612 339.324 205.859 339.324 207.398C339.324 208.937 340.656 210.185 342.299 210.185Z" fill="#76512B"/>
<path d="M355.885 227.752C357.529 227.752 358.861 226.504 358.861 224.965C358.861 223.426 357.529 222.179 355.885 222.179C354.242 222.179 352.91 223.426 352.91 224.965C352.91 226.504 354.242 227.752 355.885 227.752Z" fill="#76512B"/>
<path d="M332.985 235.144C334.628 235.144 335.961 233.896 335.961 232.357C335.961 230.818 334.628 229.571 332.985 229.571C331.341 229.571 330.009 230.818 330.009 232.357C330.009 233.896 331.341 235.144 332.985 235.144Z" fill="#76512B"/>
<path d="M305.3 241.443C306.943 241.443 308.275 240.196 308.275 238.656C308.275 237.117 306.943 235.87 305.3 235.87C303.657 235.87 302.324 237.117 302.324 238.656C302.324 240.196 303.657 241.443 305.3 241.443Z" fill="#76512B"/>
<path d="M277.87 244.351C279.513 244.351 280.845 243.103 280.845 241.564C280.845 240.025 279.513 238.777 277.87 238.777C276.226 238.777 274.894 240.025 274.894 241.564C274.894 243.103 276.226 244.351 277.87 244.351Z" fill="#76512B"/>
<path d="M253.418 243.018C255.061 243.018 256.393 241.771 256.393 240.232C256.393 238.692 255.061 237.445 253.418 237.445C251.774 237.445 250.442 238.692 250.442 240.232C250.442 241.771 251.774 243.018 253.418 243.018Z" fill="#76512B"/>
<path d="M226.895 240.232C228.539 240.232 229.871 238.984 229.871 237.445C229.871 235.906 228.539 234.658 226.895 234.658C225.252 234.658 223.919 235.906 223.919 237.445C223.919 238.984 225.252 240.232 226.895 240.232Z" fill="#76512B"/>
<path d="M204.124 234.053C205.768 234.053 207.1 232.805 207.1 231.266C207.1 229.727 205.768 228.479 204.124 228.479C202.481 228.479 201.148 229.727 201.148 231.266C201.148 232.805 202.481 234.053 204.124 234.053Z" fill="#76512B"/>
<path d="M341.654 115.56C343.297 115.56 344.629 114.313 344.629 112.774C344.629 111.235 343.297 109.987 341.654 109.987C340.011 109.987 338.678 111.235 338.678 112.774C338.678 114.313 340.011 115.56 341.654 115.56Z" fill="#76512B"/>
<path d="M318.623 111.805C320.266 111.805 321.599 110.557 321.599 109.018C321.599 107.479 320.266 106.232 318.623 106.232C316.979 106.232 315.647 107.479 315.647 109.018C315.647 110.557 316.979 111.805 318.623 111.805Z" fill="#76512B"/>
<path d="M293.136 108.655C294.78 108.655 296.112 107.407 296.112 105.868C296.112 104.329 294.78 103.081 293.136 103.081C291.493 103.081 290.16 104.329 290.16 105.868C290.16 107.407 291.493 108.655 293.136 108.655Z" fill="#76512B"/>
<path d="M267.907 108.533C269.551 108.533 270.883 107.286 270.883 105.747C270.883 104.208 269.551 102.96 267.907 102.96C266.264 102.96 264.932 104.208 264.932 105.747C264.932 107.286 266.264 108.533 267.907 108.533Z" fill="#76512B"/>
<path d="M243.068 111.562C244.711 111.562 246.043 110.315 246.043 108.776C246.043 107.237 244.711 105.989 243.068 105.989C241.424 105.989 240.092 107.237 240.092 108.776C240.092 110.315 241.424 111.562 243.068 111.562Z" fill="#76512B"/>
<path d="M220.166 116.288C221.81 116.288 223.142 115.04 223.142 113.501C223.142 111.962 221.81 110.714 220.166 110.714C218.523 110.714 217.191 111.962 217.191 113.501C217.191 115.04 218.523 116.288 220.166 116.288Z" fill="#76512B"/>
<path d="M217.485 25.0842C216.326 39.1319 215.038 53.1795 213.879 67.2272C227.917 61.6545 252.13 53.9922 283.426 53.4117C312.404 52.9473 335.457 58.8682 349.366 63.5121C348.98 50.0449 348.593 36.5777 348.207 23.2267C333.396 18.4667 308.797 12.4297 278.145 13.5907C252.001 14.5194 231.137 20.3243 217.485 25.2003V25.0842Z" fill="#D29B5A" stroke="#76512B" stroke-width="0.25" stroke-miterlimit="10"/>
<path d="M253.157 45.4102C254.514 45.4102 255.615 44.3796 255.615 43.1082C255.615 41.8368 254.514 40.8062 253.157 40.8062C251.799 40.8062 250.698 41.8368 250.698 43.1082C250.698 44.3796 251.799 45.4102 253.157 45.4102Z" fill="#76512B"/>
<path d="M331.302 33.1747C332.66 33.1747 333.76 32.144 333.76 30.8727C333.76 29.6013 332.66 28.5707 331.302 28.5707C329.945 28.5707 328.844 29.6013 328.844 30.8727C328.844 32.144 329.945 33.1747 331.302 33.1747Z" fill="#76512B"/>
<path d="M267.649 26.389C269.006 26.389 270.107 25.3584 270.107 24.087C270.107 22.8157 269.006 21.785 267.649 21.785C266.291 21.785 265.19 22.8157 265.19 24.087C265.19 25.3584 266.291 26.389 267.649 26.389Z" fill="#76512B"/>
<path d="M235.304 30.9933C236.661 30.9933 237.762 29.9626 237.762 28.6913C237.762 27.4199 236.661 26.3893 235.304 26.3893C233.946 26.3893 232.845 27.4199 232.845 28.6913C232.845 29.9626 233.946 30.9933 235.304 30.9933Z" fill="#76512B"/>
<path d="M225.6 51.4681C226.958 51.4681 228.059 50.4374 228.059 49.1661C228.059 47.8947 226.958 46.8641 225.6 46.8641C224.243 46.8641 223.142 47.8947 223.142 49.1661C223.142 50.4374 224.243 51.4681 225.6 51.4681Z" fill="#76512B"/>
<path d="M341.135 51.4681C342.493 51.4681 343.593 50.4374 343.593 49.1661C343.593 47.8947 342.493 46.8641 341.135 46.8641C339.778 46.8641 338.677 47.8947 338.677 49.1661C338.677 50.4374 339.778 51.4681 341.135 51.4681Z" fill="#76512B"/>
<path d="M297.018 27.4791C298.375 27.4791 299.476 26.4484 299.476 25.1771C299.476 23.9057 298.375 22.8751 297.018 22.8751C295.66 22.8751 294.56 23.9057 294.56 25.1771C294.56 26.4484 295.66 27.4791 297.018 27.4791Z" fill="#76512B"/>
<path d="M281.622 43.1088C282.98 43.1088 284.08 42.0782 284.08 40.8068C284.08 39.5355 282.98 38.5048 281.622 38.5048C280.264 38.5048 279.164 39.5355 279.164 40.8068C279.164 42.0782 280.264 43.1088 281.622 43.1088Z" fill="#76512B"/>
<path d="M312.024 45.4102C313.382 45.4102 314.483 44.3796 314.483 43.1082C314.483 41.8368 313.382 40.8062 312.024 40.8062C310.667 40.8062 309.566 41.8368 309.566 43.1082C309.566 44.3796 310.667 45.4102 312.024 45.4102Z" fill="#76512B"/>
<path d="M217.502 23.4343C220.179 19.4899 222.727 15.6616 225.404 11.7172C226.551 12.2972 234.069 16.4736 235.216 17.0537L236.109 17.5177C239.167 13.3413 242.226 9.28092 245.285 5.10451C249.491 7.54075 253.568 9.97699 257.774 12.2972C261.343 8.58485 264.784 4.75647 268.352 1.04411C272.048 3.94439 275.871 6.96069 279.567 9.86098C283.773 6.61266 287.851 3.36433 292.057 0C295.752 3.36433 299.321 6.84468 303.017 10.209C307.732 7.42474 312.448 4.52445 317.036 1.74017C320.732 6.26462 324.428 10.6731 328.123 15.1975C331.819 12.8773 335.515 10.557 339.211 8.23682C342.27 12.5292 345.455 16.8217 348.514 21.1141C348.514 22.2742 348.514 23.5503 348.642 24.7104C338.701 21.3461 326.084 17.9818 311.173 16.0096C285.939 12.7613 265.676 14.9655 254.843 16.5896C240.06 18.9099 227.57 22.5062 217.629 26.2186C217.629 25.1745 217.629 24.2464 217.629 23.2023L217.502 23.4343Z" fill="#D29B5A"/>
<path d="M284.079 89.6331V82.4852H276.446V89.6331H284.079Z" fill="#835B30"/>
<path d="M4 216.785C4 221.421 5.7151 225.716 8.29619 228.217C9.33871 229.232 9.81795 231.002 9.63299 232.772C9.09491 238.046 10.1206 244.016 13.6433 249.927C13.8283 250.233 14.0384 250.517 14.2654 250.741C21.4454 258.056 28.8272 255.13 32.9636 248.145C33.8212 246.706 35.2336 246.198 36.5031 246.777C38.2687 247.579 40.2613 247.626 42.3127 246.576C46.1381 244.617 48.5762 239.332 48.5678 233.609C48.5678 231.769 49.2824 230.034 50.4594 229.244C53.7299 227.026 56 222.141 56 216.785C56 212.75 54.7052 209.151 52.6706 206.732C51.9812 205.918 51.6029 204.715 51.5272 203.452C50.6696 188.645 41.8419 177 31.0719 177C20.756 177 12.2225 187.678 10.7596 201.588C10.5998 203.098 9.96088 204.408 9.00243 205.128C6.0262 207.346 4 211.735 4 216.785Z" fill="#74C20F" fill-opacity="0.7"/>
<path d="M4 216.785C4 221.421 5.7151 225.716 8.29619 228.217C9.33871 229.232 9.81795 231.002 9.63299 232.772C9.09491 238.046 10.1206 244.016 13.6433 249.927C13.8283 250.233 14.0384 250.517 14.2654 250.741C21.4454 258.056 28.8272 255.13 32.9636 248.145C33.8212 246.706 35.2336 246.198 36.5031 246.777C38.2687 247.579 40.2613 247.626 42.3127 246.576C46.1381 244.617 48.5762 239.332 48.5678 233.609C48.5678 231.769 49.2824 230.034 50.4594 229.244C53.7299 227.026 56 222.141 56 216.785C56 212.75 54.7052 209.151 52.6706 206.732C51.9812 205.918 51.6029 204.715 51.5272 203.452C50.6696 188.645 41.8419 177 31.0719 177C20.756 177 12.2225 187.678 10.7596 201.588C10.5998 203.098 9.96088 204.408 9.00243 205.128C6.0262 207.346 4 211.735 4 216.785Z" fill="#74C20F" fill-opacity="0.7"/>
<path d="M129 216.785C129 221.421 130.715 225.716 133.296 228.217C134.339 229.232 134.818 231.002 134.633 232.772C134.095 238.046 135.121 244.016 138.643 249.927C138.828 250.233 139.038 250.517 139.265 250.741C146.445 258.056 153.827 255.13 157.964 248.145C158.821 246.706 160.234 246.198 161.503 246.777C163.269 247.579 165.261 247.626 167.313 246.576C171.138 244.617 173.576 239.332 173.568 233.609C173.568 231.769 174.282 230.034 175.459 229.244C178.73 227.026 181 222.141 181 216.785C181 212.75 179.705 209.151 177.671 206.732C176.981 205.918 176.603 204.715 176.527 203.452C175.67 188.645 166.842 177 156.072 177C145.756 177 137.222 187.678 135.76 201.588C135.6 203.098 134.961 204.408 134.002 205.128C131.026 207.346 129 211.735 129 216.785Z" fill="#74C20F" fill-opacity="0.7"/>
<path d="M45.9115 226.431C45.9115 227.47 45.3104 228.32 44.5569 228.32H42.9906C36.8017 228.32 32.9833 233.549 32.9833 242.662V265.87C32.9833 266.909 32.3822 267.759 31.6287 267.759H27.8019C27.0568 267.759 26.4473 266.921 26.4473 265.87V222.359C26.4473 221.32 27.0484 220.47 27.8019 220.47H31.3154C32.0182 220.47 32.6023 221.225 32.6616 222.205C32.7547 223.787 29.9674 221.603 30.7717 220.47C32.5412 217.979 39.2908 219.407 42.4318 219.407C43.2531 219.407 43.9812 219.502 44.7855 219.691C45.4289 219.844 45.903 220.635 45.903 221.544V226.431H45.9115Z" fill="black"/>
<path opacity="0.8" d="M19.4797 231.047C23.7891 231.047 27.0232 233.88 28.5895 238.224C28.6827 238.484 28.725 238.779 28.725 239.074V242.639C28.725 244.315 27.2348 245.2 26.4136 243.961C24.678 241.352 22.1212 239.959 18.9209 239.959H17.3546C16.6096 239.959 16 239.121 16 238.07V233.183C16 232.274 16.4741 231.472 17.1175 231.33C17.9303 231.141 18.6584 231.047 19.4797 231.047Z" fill="black"/>
<path d="M169.911 226.431C169.911 227.47 169.31 228.32 168.557 228.32H166.991C160.802 228.32 156.983 233.549 156.983 242.662V265.87C156.983 266.909 156.382 267.759 155.629 267.759H151.802C151.057 267.759 150.447 266.921 150.447 265.87V222.359C150.447 221.32 151.048 220.47 151.802 220.47H155.315C156.018 220.47 156.602 221.225 156.662 222.205C156.755 223.787 153.967 221.603 154.772 220.47C156.541 217.979 163.291 219.407 166.432 219.407C167.253 219.407 167.981 219.502 168.786 219.691C169.429 219.844 169.903 220.635 169.903 221.544V226.431H169.911Z" fill="black"/>
<path opacity="0.8" d="M143.48 231.047C147.789 231.047 151.023 233.88 152.59 238.224C152.683 238.484 152.725 238.779 152.725 239.074V242.639C152.725 244.315 151.235 245.2 150.414 243.961C148.678 241.352 146.121 239.959 142.921 239.959H141.355C140.61 239.959 140 239.121 140 238.07V233.183C140 232.274 140.474 231.472 141.118 231.33C141.93 231.141 142.658 231.047 143.48 231.047Z" fill="black"/>
<path d="M69 188.125C69 171.201 79.5008 171 92.449 171C105.397 171 115.898 171.201 115.898 188.125C115.898 205.049 115.907 260.101 92.449 260.101C69 260.101 69 205.049 69 188.125Z" fill="#60BF91" fill-opacity="0.7"/>
<path d="M110.346 226.077C110.346 227.181 109.707 228.084 108.906 228.084H107.242C100.664 228.084 96.606 233.642 96.606 243.328V267.993C96.606 269.097 95.9671 270 95.1663 270H91.0992C90.3073 270 89.6594 269.109 89.6594 267.993V221.749C89.6594 220.645 90.2983 219.741 91.0992 219.741H94.8333C95.5802 219.741 102.205 219.658 102.268 220.699C102.367 222.38 97.5525 219.419 101.08 220.698C102.96 218.051 103.31 218.612 106.648 218.612C107.521 218.612 108.294 218.713 109.149 218.913C109.833 219.076 110.337 219.917 110.337 220.883V226.077H110.346Z" fill="black"/>
<path opacity="0.8" d="M82.2536 230.983C86.8336 230.983 90.2709 233.993 91.9356 238.61C92.0345 238.886 92.0795 239.2 92.0795 239.514V243.302C92.0795 245.084 90.4959 246.025 89.6231 244.708C87.7784 241.935 85.061 240.455 81.6598 240.455H79.9951C79.2033 240.455 78.5554 239.564 78.5554 238.447V233.253C78.5554 232.287 79.0593 231.434 79.7432 231.284C80.616 231.083 81.3808 230.983 82.2536 230.983Z" fill="black"/>
</svg>
