<svg width="321" height="320" viewBox="0 0 321 320" fill="none" xmlns="http://www.w3.org/2000/svg">
<path d="M196 235.125C196 218.201 206.501 218 219.449 218C232.397 218 242.898 218.201 242.898 235.125C242.898 252.049 242.907 307.101 219.449 307.101C196 307.101 196 252.049 196 235.125Z" fill="#60BF91" fill-opacity="0.7"/>
<path d="M237.346 273.077C237.346 274.181 236.707 275.084 235.906 275.084H234.242C227.664 275.084 223.606 280.642 223.606 290.328V314.993C223.606 316.097 222.967 317 222.166 317H218.099C217.307 317 216.659 316.109 216.659 314.993V268.749C216.659 267.645 217.298 266.741 218.099 266.741H221.833C222.58 266.741 229.205 266.658 229.268 267.699C229.367 269.38 224.553 266.419 228.08 267.698C229.96 265.051 230.31 265.612 233.648 265.612C234.521 265.612 235.294 265.713 236.149 265.913C236.833 266.076 237.337 266.917 237.337 267.883V273.077H237.346Z" fill="black"/>
<path opacity="0.8" d="M209.254 277.982C213.834 277.982 217.271 280.993 218.936 285.61C219.035 285.886 219.08 286.2 219.08 286.514V290.302C219.08 292.084 217.496 293.025 216.623 291.708C214.778 288.935 212.061 287.455 208.66 287.455H206.995C206.203 287.455 205.555 286.564 205.555 285.447V280.253C205.555 279.287 206.059 278.434 206.743 278.284C207.616 278.083 208.381 277.982 209.254 277.982Z" fill="black"/>
<path d="M257 258.785C257 263.421 258.715 267.716 261.296 270.217C262.339 271.232 262.818 273.002 262.633 274.772C262.095 280.046 263.121 286.016 266.643 291.927C266.828 292.233 267.038 292.517 267.265 292.741C274.445 300.056 281.827 297.13 285.964 290.145C286.821 288.706 288.234 288.198 289.503 288.777C291.269 289.579 293.261 289.626 295.313 288.576C299.138 286.617 301.576 281.332 301.568 275.609C301.568 273.769 302.282 272.034 303.459 271.244C306.73 269.026 309 264.141 309 258.785C309 254.75 307.705 251.151 305.671 248.732C304.981 247.918 304.603 246.715 304.527 245.452C303.67 230.645 294.842 219 284.072 219C273.756 219 265.222 229.678 263.76 243.588C263.6 245.098 262.961 246.408 262.002 247.128C259.026 249.346 257 253.735 257 258.785Z" fill="#74C20F" fill-opacity="0.7"/>
<path d="M297.912 276.431C297.912 277.47 297.311 278.32 296.557 278.32H294.991C288.802 278.32 284.983 283.549 284.983 292.662V315.87C284.983 316.909 284.382 317.759 283.629 317.759H279.802C279.057 317.759 278.447 316.921 278.447 315.87V272.359C278.447 271.32 279.048 270.47 279.802 270.47H283.316C284.018 270.47 284.602 271.225 284.662 272.205C284.755 273.787 281.968 271.603 282.772 270.47C284.541 267.979 291.291 269.407 294.432 269.407C295.253 269.407 295.981 269.502 296.786 269.691C297.429 269.844 297.903 270.635 297.903 271.544V276.431H297.912Z" fill="black"/>
<path opacity="0.8" d="M271.48 281.047C275.789 281.047 279.023 283.88 280.59 288.224C280.683 288.484 280.725 288.779 280.725 289.074V292.639C280.725 294.315 279.235 295.2 278.414 293.961C276.678 291.352 274.121 289.959 270.921 289.959H269.355C268.61 289.959 268 289.121 268 288.07V283.183C268 282.274 268.474 281.472 269.118 281.33C269.93 281.141 270.658 281.047 271.48 281.047Z" fill="black"/>
<path d="M130 257.785C130 262.421 131.715 266.716 134.296 269.217C135.339 270.232 135.818 272.002 135.633 273.772C135.095 279.046 136.121 285.016 139.643 290.927C139.828 291.233 140.038 291.517 140.265 291.741C147.445 299.056 154.827 296.13 158.964 289.145C159.821 287.706 161.234 287.198 162.503 287.776C164.269 288.579 166.261 288.626 168.313 287.576C172.138 285.617 174.576 280.332 174.568 274.609C174.568 272.769 175.282 271.034 176.459 270.244C179.73 268.026 182 263.141 182 257.785C182 253.75 180.705 250.151 178.671 247.732C177.981 246.918 177.603 245.715 177.527 244.452C176.67 229.645 167.842 218 157.072 218C146.756 218 138.222 228.678 136.76 242.588C136.6 244.098 135.961 245.408 135.002 246.128C132.026 248.346 130 252.735 130 257.785Z" fill="#74C20F" fill-opacity="0.7"/>
<path d="M173.912 278.431C173.912 279.47 173.311 280.32 172.557 280.32H170.991C164.802 280.32 160.983 285.549 160.983 294.662V317.87C160.983 318.909 160.382 319.759 159.629 319.759H155.802C155.057 319.759 154.447 318.921 154.447 317.87V274.359C154.447 273.32 155.048 272.47 155.802 272.47H159.316C160.018 272.47 160.602 273.225 160.662 274.205C160.755 275.787 157.968 273.603 158.772 272.47C160.541 269.979 167.291 271.407 170.432 271.407C171.253 271.407 171.981 271.502 172.786 271.691C173.429 271.844 173.903 272.635 173.903 273.544V278.431H173.912Z" fill="black"/>
<path opacity="0.8" d="M147.48 283.047C151.789 283.047 155.023 285.88 156.59 290.224C156.683 290.484 156.725 290.779 156.725 291.074V294.639C156.725 296.315 155.235 297.2 154.414 295.961C152.678 293.352 150.121 291.959 146.921 291.959H145.355C144.61 291.959 144 291.121 144 290.07V285.183C144 284.274 144.474 283.472 145.118 283.33C145.93 283.141 146.658 283.047 147.48 283.047Z" fill="black"/>
<path d="M304.749 308.137C305.305 308.485 305.166 309.509 305.704 309.666C306.26 309.839 307.042 308.919 307.702 307.946C310.22 305.671 312.721 303.396 315.239 301.12C315.517 300.947 317.063 300.026 318.487 300.651C318.487 300.651 319.929 301.277 320.398 303.465C320.919 305.931 318.192 308.155 315.622 310.308C313.728 311.889 310.776 314.025 306.59 315.779C306.138 315.918 305.478 316.092 304.645 316.075C303.568 316.057 302.752 315.745 302.265 315.536C302.005 315.241 301.727 314.893 301.466 314.494C300.563 313.087 300.233 311.698 300.112 310.725C302.891 308.189 304.158 307.79 304.732 308.155L304.749 308.137Z" fill="#2D1A8E"/>
<path d="M297.212 303.778C297.212 304.021 297.316 304.09 297.715 304.82C297.715 304.82 297.907 305.167 298.74 306.991C299.904 309.544 299.539 310.395 300.234 310.812C301.536 311.576 304.316 310.048 304.646 308.102C304.75 307.477 304.298 306.522 303.378 304.629C302.162 302.11 301.728 301.659 301.502 301.52C301.484 301.52 301.467 301.503 301.432 301.485C299.765 300.686 297.194 302.458 297.247 303.778H297.212Z" fill="#FF004F"/>
<path d="M151.508 309.127C150.397 310.1 149.493 310.985 148.781 311.68C147.583 312.879 147.079 313.487 147.01 314.338C146.992 314.563 146.958 315.171 147.322 315.762C147.757 316.456 148.469 316.648 148.677 316.7C149.528 316.7 150.813 316.734 152.359 316.734C154.565 316.734 155.416 316.7 156.371 316.7C162.398 316.682 163.753 316.891 166.74 316.7C167.817 316.63 168.668 315.744 168.685 314.668C168.703 313.608 167.904 312.688 166.827 312.566C164.257 312.601 161.564 312.566 158.751 312.444C157.292 312.375 155.868 312.288 154.478 312.167C154.496 312.01 154.496 311.784 154.391 311.559C154.079 310.985 153.28 311.124 152.585 310.708C152.22 310.482 151.769 310.048 151.491 309.11L151.508 309.127Z" fill="#2D1A8E"/>
<path d="M154.548 304.576C155.712 305.306 156.875 306.035 158.022 306.764C157.726 307.685 157.292 308.814 156.632 309.995C156.111 310.933 155.555 311.715 155.034 312.34C154.67 312.375 153.645 312.409 152.585 311.749C151.734 311.228 151.3 310.516 151.109 310.169C151.422 309.335 151.856 308.362 152.464 307.32C153.158 306.157 153.905 305.253 154.548 304.576Z" fill="#FF004F"/>
<path d="M198.125 198.647C199.028 197.588 199.775 196.737 200.262 196.198C200.262 196.198 206.914 188.712 213.722 183.207C213.965 182.998 214.452 182.616 215.181 182.182C217.508 180.827 219.749 180.706 221.329 180.619C222.84 180.549 225.81 180.445 229.041 181.939C230.882 182.79 232.098 183.849 232.81 184.475C237.968 189.077 244.308 196.024 246.01 197.918C251.064 203.128 256.118 208.356 261.172 213.567C266.192 218.76 271.229 223.953 276.248 229.146C278.958 232.012 281.65 234.877 284.359 237.761C284.724 238.247 285.071 238.733 285.419 239.237C289.605 245.212 292.453 251.43 294.346 257.439C297.681 263.97 301.015 270.5 304.35 277.03C305.67 279.809 306.973 282.606 308.293 285.385C308.605 286.548 309.873 291.742 306.973 296.935C303.256 303.604 295.892 304.525 294.85 304.646C285.975 305.601 280.243 298.671 279.843 298.168C277.412 293.253 274.98 288.337 272.549 283.422C270.777 279.809 268.988 276.197 267.217 272.567C265.706 269.44 264.177 266.297 262.666 263.171C261.763 260.947 260.86 258.724 259.957 256.501C259.245 255.719 258.168 254.538 256.865 253.132C245.454 240.8 236.874 232.672 232.879 228.764C226.835 222.841 218.429 213.949 208.668 201.374C207.504 202.59 206.358 203.823 205.194 205.039C202.832 202.902 200.47 200.766 198.108 198.63L198.125 198.647Z" fill="#2D1A8E"/>
<path d="M208.685 201.373C205.073 204.726 200.383 209.936 196.684 217.283C189.285 231.959 190.449 245.906 191.3 251.777C190.275 253.427 188.434 254.364 186.558 254.208C183.988 254 182.702 251.846 182.581 251.638C172.281 262.701 161.982 273.782 151.665 284.846C150.831 286.235 147.115 292.818 149.616 299.088C152.968 307.494 165.369 309.891 173.341 307.164C179.333 305.115 181.261 300.721 188.729 291.255C193.106 285.714 199.359 278.489 207.834 270.604C208.529 270.031 209.467 269.11 210.266 267.79C211.447 265.827 211.725 263.952 211.812 262.91C217.144 249.796 222.476 236.701 227.791 223.588C221.416 216.171 215.042 208.755 208.685 201.339V201.373Z" fill="#2D1A8E"/>
<path d="M198.35 198.213C200.816 200.349 203.3 202.485 205.766 204.621C202.622 208.772 198.714 214.956 195.831 223.154C191.576 235.259 191.611 245.941 192.114 252.176C192.028 252.419 191.107 254.868 188.797 255.476C186.591 256.067 184.038 254.747 182.892 252.193C182.579 248.112 182.544 243.527 183.013 238.542C184.577 222.059 190.985 209.502 195.797 201.964C196.648 200.714 197.499 199.446 198.367 198.195L198.35 198.213Z" fill="#CE1963"/>
<path d="M217.855 246.74L221.729 237.709C224.577 240.974 227.408 244.257 230.256 247.522C231.941 249.172 232.15 251.847 230.777 253.722C229.371 255.65 226.678 256.223 224.577 255.008C222.336 252.246 220.096 249.502 217.855 246.74Z" fill="#CE1963"/>
<path d="M209.171 173.473C210.517 175.873 215.659 179.484 222.187 179.648C228.124 179.792 232.225 177.043 234.021 175.34C234.408 174.971 235.225 174.13 235.735 172.735C236.428 170.889 236.347 169.001 236.061 168.94C235.877 168.899 235.653 169.678 235.306 169.637C235.021 169.596 234.755 169.042 234.653 168.796C234.653 168.796 234.653 168.796 234.653 168.776C233.858 166.683 235.796 164.714 235.571 161.206C235.571 161.206 235.408 158.785 234.245 157.411C234.204 157.37 234.062 157.165 233.837 156.98C233.429 156.652 233.286 156.426 233.205 156.467C233.021 156.549 233.348 157.329 233.266 158.457C233.246 158.724 233.164 159.647 232.858 159.709C232.491 159.791 231.981 158.56 231.879 158.334C230.777 155.77 231.573 152.775 231.654 151.544C231.817 149.226 229.961 145.821 221.086 141C221.412 143.174 221.412 144.651 221.249 145.636C221.106 146.477 220.576 147.031 220.331 147.4C219.474 148.652 218.576 149.267 217.372 150.17C215.312 151.708 214.292 152.467 213.884 152.96C211.252 156.119 213.557 161.678 212.965 161.801C212.557 161.883 211.231 159.442 211.129 157.514C211.129 157.309 211.088 156.693 210.986 156.673C210.884 156.673 210.742 157.247 210.578 157.78C210.048 159.462 209.375 159.791 208.864 161.534C208.742 161.945 208.62 162.457 208.763 162.991C208.865 163.36 209.007 163.627 209.089 163.729C209.334 164.14 210.272 167.011 209.558 167.401C209.354 167.504 209.089 167.381 209.007 167.34C208.171 166.909 208.293 165.35 208.11 165.35C207.946 165.35 207.722 166.519 207.742 167.955C207.742 168.406 207.742 169.063 207.906 169.924C207.906 169.924 208.232 171.812 209.211 173.555L209.171 173.473Z" fill="#FF004F"/>
<path d="M231.462 174.676C230.47 176.365 226.817 178.794 222.291 178.732C218.182 178.67 215.402 176.591 214.211 175.335C213.437 174.532 213.08 173.441 213.08 173.441C212.584 172.309 212.445 171.341 212.405 171.032C212.167 169.118 212.663 167.553 213.06 166.276C213.199 165.844 213.219 165.865 213.556 164.876C213.814 164.115 213.933 163.724 214.033 163.724C214.132 163.724 214.172 164.094 214.251 164.444C214.45 165.391 214.886 165.926 215.144 166.359C216.137 168.088 215.522 170.538 215.819 170.579C216.018 170.6 216.435 169.612 216.574 168.376C216.812 166.05 215.74 164.979 215.541 162.879C215.363 161.129 215.919 159.771 216.474 158.371C218.4 153.574 223.184 151.494 224.058 151.124C223.78 152.668 223.74 153.718 223.819 154.418C223.899 155.035 224.256 155.427 224.415 155.694C225.05 156.724 225.685 157.053 226.38 157.753C227.333 158.721 227.81 159.812 227.968 160.285C229.04 163.332 226.281 166.215 227.512 167.553C227.532 167.594 227.949 168.006 228.405 167.944C229.596 167.779 230.41 164.465 230.509 163.168C230.509 163.044 230.549 162.591 230.629 162.571C230.708 162.571 230.787 162.982 230.887 163.374C231.204 164.588 231.661 164.835 231.978 166.091C232.058 166.4 232.117 166.75 231.998 167.121C231.919 167.388 231.82 167.574 231.76 167.635C231.581 167.924 230.847 169.941 231.343 170.25C231.482 170.332 231.681 170.25 231.72 170.209C232.316 169.921 232.256 168.809 232.395 168.809C232.514 168.809 232.633 169.653 232.574 170.682C232.574 170.991 232.534 171.465 232.415 172.082C232.415 172.082 232.137 173.42 231.423 174.635L231.462 174.676Z" fill="#CE1963"/>
<path d="M222.33 160.219C220.616 158.893 220.289 158.546 220.33 158.485C220.391 158.403 220.881 158.791 221.799 158.975C222.881 159.199 223.574 158.975 223.656 159.158C223.697 159.281 223.513 159.546 222.35 160.219H222.33Z" fill="black"/>
<path d="M222.8 159.505C221.657 157.669 221.473 157.22 221.535 157.179C221.616 157.118 221.963 157.648 222.738 158.158C223.677 158.75 224.411 158.77 224.411 158.995C224.411 159.117 224.126 159.301 222.8 159.525V159.505Z" fill="black"/>
<path d="M224.105 159.281C223.248 157.628 223.105 157.241 223.166 157.2C223.248 157.159 223.493 157.628 224.145 158.118C224.921 158.71 225.553 158.791 225.553 158.955C225.553 159.057 225.288 159.199 224.105 159.261V159.281Z" fill="black"/>
<path d="M229.92 160.342C228.43 158.363 223.493 158.281 222.493 159.628C221.942 160.383 222.595 161.546 223.309 162.158C225.247 163.872 229.573 163.198 230.266 161.852C230.593 161.219 230.062 160.505 229.92 160.322V160.342Z" fill="white"/>
<path d="M229.226 159.159C230.124 159.648 230.43 160.811 230.042 161.729C229.655 162.627 228.614 163.219 227.676 162.933C226.594 162.607 226.043 161.219 226.533 160.158C226.982 159.179 228.267 158.648 229.246 159.179L229.226 159.159Z" fill="black"/>
<path d="M49.3195 1.87142C55.7827 1.83815 62.3523 1.71475 68.8155 1.68148C71.4021 32.3111 73.5592 63.5745 75.1809 95.4708C78.9467 171.93 79.243 245.443 76.9213 315.471C52.6617 315.162 28.2969 314.762 4.03729 314.454C0.949481 245.106 0.32605 172.684 2.69419 97.4639C3.72913 64.6805 5.39396 32.5404 7.4769 1.04163C14.2555 1.28445 20.9286 1.43524 27.7072 1.67807C31.1935 14.6441 34.786 27.6112 38.2723 40.5773C41.99 27.6756 45.6018 14.773 49.3195 1.87142Z" fill="#7695CE" stroke="#7695CE" stroke-miterlimit="10"/>
<path d="M75.9003 109.686C66.3657 109.6 56.9377 109.425 47.4038 109.249C47.4592 126.738 47.5146 144.228 47.5701 161.718C57.0485 144.405 66.4219 126.999 75.9003 109.686Z" fill="#0D295B"/>
<path d="M2.81017 108.124C12.3465 108.027 21.7769 107.93 31.3132 107.833C31.3687 125.323 31.4241 142.813 31.4795 160.302C21.8877 142.909 12.4019 125.517 2.81017 108.124Z" fill="#0D295B"/>
<path d="M75.8997 109.778C66.3633 109.875 56.9329 109.972 47.3966 110.069C47.3412 92.5794 47.2858 75.0895 47.2303 57.5996C56.8221 74.9926 66.3079 92.3847 75.8997 109.778Z" fill="#0D295B"/>
<path d="M2.80826 108.305C12.3429 108.391 21.7709 108.566 31.3048 108.742C31.2494 91.2525 31.194 73.7625 31.1385 56.2726C21.6601 73.5862 12.2867 90.9917 2.80826 108.305Z" fill="#0D295B"/>
<path d="M78.1833 316.574C67.6951 316.48 57.2066 316.386 46.7184 316.293C47.0306 305.091 47.2372 293.889 47.5494 282.688C57.7254 293.983 68.0072 305.279 78.1825 316.665L78.1833 316.574Z" fill="#0D295B"/>
<path d="M2.75571 315.443C12.5023 315.53 22.1421 315.707 31.8879 315.885C31.9889 304.591 32.0899 293.297 32.085 282.001C22.3441 293.118 12.6025 304.327 2.75571 315.443Z" fill="#0D295B"/>
<path d="M76.2535 224.375C66.7188 224.29 57.2908 224.115 47.757 223.938C47.8124 241.428 47.8678 258.918 47.9232 276.408C57.4017 259.095 66.775 241.689 76.2535 224.375Z" fill="#0D295B"/>
<path d="M3.16158 222.899C12.6963 222.984 22.1259 222.977 31.6614 222.971C31.293 240.457 30.9248 257.944 30.6624 275.431C21.4953 257.95 12.3288 240.379 3.26762 222.9L3.16158 222.899Z" fill="#0D295B"/>
<path d="M76.2534 224.373C66.7171 224.47 57.2867 224.568 47.7503 224.665C47.6949 207.175 47.6395 189.685 47.5841 172.195C57.1759 189.588 66.6617 206.98 76.2534 224.373Z" fill="#0D295B"/>
<path d="M3.16092 222.99C12.6956 223.076 22.1236 223.251 31.6575 223.427C31.602 205.937 31.5466 188.448 31.4912 170.958C22.0128 188.271 12.6394 205.677 3.16092 222.99Z" fill="#0D295B"/>
<path d="M22.8009 171.062C18.0336 171.02 13.2666 170.977 8.6052 170.935C8.52697 179.679 8.66029 188.425 8.688 197.17C13.4276 188.468 18.1665 179.857 22.9062 171.154L22.8009 171.062Z" fill="#0D295B"/>
<path d="M22.7411 166.141C17.973 166.189 13.2045 166.238 8.54232 166.287C8.5146 157.542 8.48723 148.797 8.45951 140.052C13.2554 148.749 18.0512 157.445 22.7411 166.141Z" fill="#0D295B"/>
<path d="M55.3121 172.72C60.0811 172.58 64.8496 172.532 69.5126 172.391C69.6463 181.137 69.78 189.883 70.0196 198.63C65.117 190.024 60.2148 181.326 55.3121 172.72Z" fill="#0D295B"/>
<path d="M55.2668 166.163C60.0358 166.023 64.6999 165.792 69.4689 165.652C68.8055 156.902 68.0365 148.15 67.3724 139.491C63.3727 148.382 59.2665 157.272 55.2668 166.163Z" fill="#0D295B"/>
<path d="M70.4736 88.8715L52.4731 52.092L54.8861 7.38799L65.1635 7.38885L70.4736 88.8715Z" fill="#0D295B"/>
<path d="M8.06822 88.7691L25.8781 52.0367L23.3113 7.37923L12.9286 7.37743L8.06822 88.7691Z" fill="#0D295B"/>
<path d="M21.9301 280.274C16.739 280.228 11.5482 280.181 6.35706 280.135C6.27639 289.152 6.40726 298.171 6.43253 307.189C11.5984 298.218 16.7643 289.246 22.0353 280.366L21.9301 280.274Z" fill="#0D295B"/>
<path d="M21.9747 275.262C16.7828 275.307 11.5911 275.351 6.39922 275.396C6.37395 266.378 6.34837 257.36 6.3231 248.342C11.5403 257.315 16.7576 266.289 22.0807 275.263L21.9747 275.262Z" fill="#0D295B"/>
<path d="M57.7275 281.962C62.9202 281.826 68.1125 281.781 73.3052 281.646C73.4364 290.665 73.6736 299.685 73.8049 308.704C68.4809 299.821 63.0514 290.845 57.7275 281.962Z" fill="#0D295B"/>
<path d="M57.681 275.219C62.8737 275.083 68.0676 274.856 73.2604 274.72C72.4935 265.696 71.7268 256.671 70.9591 247.737C66.5332 256.898 62.1074 266.058 57.5748 275.309L57.681 275.219Z" fill="#0D295B"/>
</svg>
