<svg width="12" height="14" viewBox="0 0 12 14" fill="none" xmlns="http://www.w3.org/2000/svg">
<path d="M1.092 11.9433C1.62951 12.7992 3.61732 14.029 6.06148 13.9995C8.29267 13.97 9.79367 12.9173 10.4529 12.2778C10.8687 11.8646 11.0614 11.3137 11.0614 11.3137C11.325 10.7431 11.4062 10.2512 11.4264 10.0938C11.5583 9.11983 11.2845 8.32293 11.0715 7.67362C11.0005 7.44735 10.9802 7.46702 10.8078 6.96529C10.6658 6.58161 10.605 6.37501 10.5441 6.38485C10.4833 6.38485 10.4731 6.57178 10.4326 6.7587C10.3312 7.23092 10.0878 7.50638 9.94579 7.73265C9.40828 8.60823 9.74291 9.85768 9.58064 9.87736C9.47923 9.88719 9.246 9.38545 9.17501 8.76566C9.04317 7.5851 9.63138 7.04401 9.74294 5.97167C9.83422 5.07641 9.54011 4.39757 9.23586 3.6794C8.19126 1.23958 5.59497 0.186922 5.11831 0C5.27043 0.78704 5.29071 1.3183 5.24 1.67247C5.19944 1.97745 5.00675 2.19386 4.92561 2.32175C4.58079 2.853 4.23599 3.01041 3.86074 3.36458C3.34351 3.84664 3.08993 4.40742 2.99866 4.64354C2.41043 6.1881 3.92154 7.64412 3.24205 8.33278C3.22176 8.35246 3.00881 8.56888 2.75526 8.52952C2.11633 8.44098 1.67009 6.76855 1.60924 6.09957C1.60924 6.0307 1.58895 5.8044 1.53824 5.79456C1.49767 5.79456 1.4571 6.00117 1.40639 6.19793C1.23398 6.81772 0.980474 6.94562 0.808064 7.58509C0.767497 7.73266 0.72691 7.91958 0.787761 8.1065C0.828328 8.24423 0.889183 8.33279 0.919608 8.37214C1.02103 8.51971 1.40644 9.54286 1.14276 9.69043C1.06163 9.72978 0.92976 9.67074 0.92976 9.67074C0.605224 9.52317 0.635664 8.9624 0.564672 8.9624C0.564672 8.9624 0.442934 9.39529 0.463217 9.90687C0.463217 10.0643 0.483528 10.3102 0.55452 10.6152C0.55452 10.6152 0.706614 11.294 1.092 11.9138V11.9433Z" fill="#2D1A8E"/>
</svg>
