<svg width="189" height="72" viewBox="0 0 189 72" fill="none" xmlns="http://www.w3.org/2000/svg">
<path d="M11.3399 44.0092C8.30813 44.701 7.26401 45.6575 6.07912 47.9507C5.8592 49.2859 5.84885 50.3125 6.07912 51.2427L5.21357 51.1057C5.24907 51.1448 2.43625 51.8289 1.32983 53.2538C-0.16989 55.3776 -0.268713 56.6073 0.379968 58.8435C1.85841 61.5405 3.12685 62.421 6.07912 63H26.8299C28.171 62.9671 28.8594 62.729 29.9717 61.9251C32.3762 58.7791 32.6723 56.8679 30.7024 53.1105C28.7679 51.3469 27.5647 50.9008 25.2224 51.0322C25.264 48.5588 24.8825 47.7454 22.139 46.4366C20.2475 45.7206 19.08 45.6863 17.2582 47.0191C16.05 44.6381 14.8202 43.9069 11.3399 44.0092Z" fill="#E4F5FF" fill-opacity="0.4"/>
<path d="M10.1561 61.2194L10.4207 67.1309C10.2821 68.1768 9.95863 68.5388 8.86685 68.7117L4.73465 68.7473" stroke="#A3AEBD" stroke-width="2"/>
<path d="M16.8795 61.8146L16.814 67.7283" stroke="#A3AEBD" stroke-width="2"/>
<path d="M22.0277 60.3873L21.8043 66.3005C21.9502 67.3454 22.2762 67.7052 23.3692 67.8705L27.5015 67.8772" stroke="#A3AEBD" stroke-width="2"/>
<circle cx="2" cy="69" r="2" fill="#E4F5FF" fill-opacity="0.4"/>
<circle cx="17" cy="70" r="2" fill="#E4F5FF" fill-opacity="0.4"/>
<circle cx="30" cy="68" r="2" fill="#E4F5FF" fill-opacity="0.4"/>
<path d="M168.34 3.00924C165.308 3.70105 164.264 4.65755 163.079 6.95072C162.859 8.28594 162.849 9.31246 163.079 10.2427L162.214 10.1057C162.249 10.1448 159.436 10.8289 158.33 12.2538C156.83 14.3776 156.731 15.6073 157.38 17.8435C158.858 20.5405 160.127 21.421 163.079 22H183.83C185.171 21.9671 185.859 21.729 186.972 20.9251C189.376 17.7791 189.672 15.8679 187.702 12.1105C185.768 10.3469 184.565 9.90084 182.222 10.0322C182.264 7.55884 181.882 6.74544 179.139 5.43655C177.247 4.72055 176.08 4.68627 174.258 6.0191C173.05 3.63812 171.82 2.90692 168.34 3.00924Z" fill="#E4F5FF" fill-opacity="0.4"/>
<path d="M167.156 20.2194L167.421 26.1309C167.282 27.1768 166.959 27.5388 165.867 27.7117L161.735 27.7473" stroke="#A3AEBD" stroke-width="2"/>
<path d="M173.88 20.8146L173.814 26.7283" stroke="#A3AEBD" stroke-width="2"/>
<path d="M179.028 19.3873L178.804 25.3005C178.95 26.3454 179.276 26.7052 180.369 26.8705L184.502 26.8772" stroke="#A3AEBD" stroke-width="2"/>
<circle cx="159" cy="28" r="2" fill="#E4F5FF" fill-opacity="0.4"/>
<circle cx="174" cy="29" r="2" fill="#E4F5FF" fill-opacity="0.4"/>
<circle cx="187" cy="27" r="2" fill="#E4F5FF" fill-opacity="0.4"/>
<path d="M41.3399 0.00924029C38.3081 0.701048 37.264 1.65755 36.0791 3.95072C35.8592 5.28594 35.8488 6.31246 36.0791 7.24267L35.2136 7.10568C35.2491 7.14478 32.4362 7.8289 31.3298 9.2538C29.8301 11.3776 29.7313 12.6073 30.38 14.8435C31.8584 17.5405 33.1268 18.421 36.0791 19H56.8299C58.171 18.9671 58.8594 18.729 59.9717 17.9251C62.3762 14.7791 62.6723 12.8679 60.7024 9.11047C58.7679 7.34693 57.5647 6.90084 55.2224 7.03224C55.264 4.55884 54.8825 3.74544 52.139 2.43655C50.2475 1.72055 49.08 1.68627 47.2582 3.0191C46.05 0.638125 44.8202 -0.0930842 41.3399 0.00924029Z" fill="#E4F5FF" fill-opacity="0.4"/>
<path d="M40.1561 17.2194L40.4207 23.1309C40.2821 24.1768 39.9586 24.5388 38.8669 24.7117L34.7346 24.7473" stroke="#A3AEBD" stroke-width="2"/>
<path d="M46.8795 17.8146L46.814 23.7283" stroke="#A3AEBD" stroke-width="2"/>
<path d="M52.0277 16.3873L51.8043 22.3005C51.9502 23.3454 52.2762 23.7052 53.3692 23.8705L57.5016 23.8772" stroke="#A3AEBD" stroke-width="2"/>
<circle cx="32" cy="25" r="2" fill="#E4F5FF" fill-opacity="0.4"/>
<circle cx="47" cy="26" r="2" fill="#E4F5FF" fill-opacity="0.4"/>
<circle cx="60" cy="24" r="2" fill="#E4F5FF" fill-opacity="0.4"/>
<path d="M130.34 40.0092C127.308 40.701 126.264 41.6575 125.079 43.9507C124.859 45.2859 124.849 46.3125 125.079 47.2427L124.214 47.1057C124.249 47.1448 121.436 47.8289 120.33 49.2538C118.83 51.3776 118.731 52.6073 119.38 54.8435C120.858 57.5405 122.127 58.421 125.079 59H145.83C147.171 58.9671 147.859 58.729 148.972 57.9251C151.376 54.7791 151.672 52.8679 149.702 49.1105C147.768 47.3469 146.565 46.9008 144.222 47.0322C144.264 44.5588 143.882 43.7454 141.139 42.4366C139.247 41.7206 138.08 41.6863 136.258 43.0191C135.05 40.6381 133.82 39.9069 130.34 40.0092Z" fill="#E4F5FF" fill-opacity="0.4"/>
<path d="M129.156 57.2194L129.421 63.1309C129.282 64.1768 128.959 64.5388 127.867 64.7117L123.735 64.7473" stroke="#A3AEBD" stroke-width="2"/>
<path d="M135.88 57.8146L135.814 63.7283" stroke="#A3AEBD" stroke-width="2"/>
<path d="M141.028 56.3873L140.804 62.3005C140.95 63.3454 141.276 63.7052 142.369 63.8705L146.502 63.8772" stroke="#A3AEBD" stroke-width="2"/>
<circle cx="121" cy="65" r="2" fill="#E4F5FF" fill-opacity="0.4"/>
<circle cx="136" cy="66" r="2" fill="#E4F5FF" fill-opacity="0.4"/>
<circle cx="149" cy="64" r="2" fill="#E4F5FF" fill-opacity="0.4"/>
</svg>
