<svg width="198" height="57" viewBox="0 0 198 57" fill="none" xmlns="http://www.w3.org/2000/svg">
<path d="M104 12.9221C104 4.1046 111.628 4 121.034 4C130.439 4 138.067 4.1046 138.067 12.9221C138.067 21.7397 138.074 50.4212 121.034 50.4212C104 50.4212 104 21.7397 104 12.9221Z" fill="#60BF91" fill-opacity="0.7"/>
<path d="M134.034 32.6951C134.034 33.2703 133.57 33.7409 132.989 33.7409H131.779C127.001 33.7409 124.054 36.6365 124.054 41.6826V54.5331C124.054 55.1083 123.589 55.5789 123.008 55.5789H120.053C119.478 55.5789 119.007 55.1148 119.007 54.5331V30.4401C119.007 29.8649 119.472 29.3943 120.053 29.3943H122.766C123.308 29.3943 128.121 29.3507 128.166 29.8933C128.238 30.7691 124.741 29.226 127.303 29.8927C128.669 28.5136 128.923 28.806 131.348 28.806C131.982 28.806 132.544 28.8582 133.165 28.9628C133.662 29.0478 134.028 29.4857 134.028 29.989V32.6951H134.034Z" fill="black"/>
<path opacity="0.8" d="M113.628 35.2508C116.955 35.2508 119.452 36.8195 120.661 39.2249C120.733 39.3687 120.765 39.5321 120.765 39.6955V41.6695C120.765 42.5977 119.615 43.0879 118.981 42.4016C117.641 40.957 115.667 40.1858 113.196 40.1858H111.987C111.412 40.1858 110.941 39.7217 110.941 39.1399V36.4339C110.941 35.9306 111.307 35.4861 111.804 35.4077C112.438 35.3031 112.994 35.2508 113.628 35.2508Z" fill="black"/>
<path d="M51 24.0408C51 26.724 52.2908 29.2092 54.2332 30.6566C55.0178 31.2437 55.3785 32.2678 55.2393 33.2919C54.8343 36.3437 55.6062 39.7983 58.2574 43.2188C58.3966 43.3963 58.5548 43.5602 58.7256 43.6899C64.1291 47.9229 69.6845 46.2296 72.7975 42.1879C73.4429 41.3549 74.5058 41.0614 75.4613 41.396C76.79 41.8602 78.2896 41.8875 79.8334 41.2799C82.7124 40.1465 84.5472 37.0879 84.5409 33.7766C84.5409 32.7116 85.0787 31.708 85.9645 31.2506C88.4259 29.967 90.1343 27.1405 90.1343 24.0408C90.1343 21.7059 89.1598 19.6236 87.6286 18.2239C87.1098 17.7529 86.8251 17.0565 86.7681 16.3259C86.1227 7.75763 79.4791 1.0191 71.3739 1.0191C63.6103 1.0191 57.1881 7.19782 56.0871 15.2472C55.9669 16.1211 55.4861 16.879 54.7647 17.2954C52.5249 18.579 51 21.1187 51 24.0408Z" fill="#74C20F" fill-opacity="0.7"/>
<path d="M51 24.0408C51 26.724 52.2908 29.2092 54.2332 30.6566C55.0178 31.2437 55.3785 32.2678 55.2393 33.2919C54.8343 36.3437 55.6062 39.7983 58.2574 43.2188C58.3966 43.3963 58.5548 43.5602 58.7256 43.6899C64.1291 47.9229 69.6845 46.2296 72.7975 42.1879C73.4429 41.3549 74.5058 41.0614 75.4613 41.396C76.79 41.8602 78.2896 41.8875 79.8334 41.2799C82.7124 40.1465 84.5472 37.0879 84.5409 33.7766C84.5409 32.7116 85.0787 31.708 85.9645 31.2506C88.4259 29.967 90.1343 27.1405 90.1343 24.0408C90.1343 21.7059 89.1598 19.6236 87.6286 18.2239C87.1098 17.7529 86.8251 17.0565 86.7681 16.3259C86.1227 7.75763 79.4791 1.0191 71.3739 1.0191C63.6103 1.0191 57.1881 7.19782 56.0871 15.2472C55.9669 16.1211 55.4861 16.879 54.7647 17.2954C52.5249 18.579 51 21.1187 51 24.0408Z" fill="#74C20F" fill-opacity="0.7"/>
<path d="M82.7384 31.1553C82.7384 31.7561 82.2892 32.2477 81.7261 32.2477H80.5556C75.9303 32.2477 73.0767 35.2722 73.0767 40.5429V53.9654C73.0767 54.5662 72.6274 55.0578 72.0643 55.0578H69.2044C68.6476 55.0578 68.192 54.573 68.192 53.9654V28.7998C68.192 28.199 68.6412 27.7075 69.2044 27.7075H71.8302C72.3554 27.7075 72.7919 28.1444 72.8362 28.7111C72.9058 29.6259 70.8228 28.3631 71.4239 27.7076C72.7463 26.2671 77.7905 27.093 80.1379 27.093C80.7517 27.093 81.2958 27.1476 81.8969 27.2568C82.3778 27.3456 82.7321 27.8031 82.7321 28.3288V31.1553H82.7384Z" fill="black"/>
<path opacity="0.8" d="M62.9822 33.8243C66.2028 33.8243 68.6198 35.4629 69.7904 37.9754C69.86 38.1256 69.8916 38.2962 69.8916 38.4669V40.5288C69.8916 41.4983 68.778 42.0103 68.1642 41.2935C66.8671 39.7846 64.9563 38.979 62.5646 38.979H61.3941C60.8373 38.979 60.3817 38.4943 60.3817 37.8866V35.0601C60.3817 34.5344 60.736 34.0701 61.2169 33.9882C61.8243 33.8789 62.3685 33.8243 62.9822 33.8243Z" fill="black"/>
<path d="M0 9.69023C0 0.113602 8.28453 0 18.5 0C28.7155 0 37 0.113602 37 9.69023C37 19.2669 37.0071 50.4175 18.5 50.4175C-1.35403e-06 50.4175 0 19.2669 0 9.69023Z" fill="#60BF91" fill-opacity="0.7"/>
<path d="M32.6201 31.1653C32.6201 31.79 32.116 32.3011 31.4842 32.3011H30.1709C24.9815 32.3011 21.7799 35.446 21.7799 40.9265V54.8833C21.7799 55.508 21.2759 56.0191 20.6441 56.0191H17.4353C16.8106 56.0191 16.2994 55.5151 16.2994 54.8833V28.7161C16.2994 28.0914 16.8035 27.5802 17.4353 27.5802H20.3814C20.9706 27.5802 28.0719 27.533 28.1216 28.1222C28.1216 28.1222 21.2662 27.2746 23.4347 28.6238C20.3814 27.5802 27.0686 26.9413 29.7024 26.9413C30.391 26.9413 31.0015 26.9981 31.6759 27.1117C32.2154 27.204 32.613 27.6796 32.613 28.2262V31.1653H32.6201Z" fill="black"/>
<path d="M153 24.0285C153 26.8267 154.453 29.4185 156.638 30.928C157.521 31.5404 157.927 32.6084 157.771 33.6764C157.315 36.8592 158.183 40.4619 161.167 44.0292C161.323 44.2143 161.501 44.3852 161.694 44.5205C167.774 48.9351 174.026 47.1692 177.529 42.954C178.255 42.0854 179.451 41.7792 180.527 42.1281C182.022 42.6123 183.709 42.6408 185.447 42.0071C188.686 40.8251 190.751 37.6352 190.744 34.1819C190.744 33.0712 191.349 32.0245 192.346 31.5475C195.116 30.2089 197.038 27.2611 197.038 24.0285C197.038 21.5934 195.942 19.4217 194.219 17.962C193.635 17.4707 193.314 16.7445 193.25 15.9826C192.524 7.04671 185.048 0.019104 175.927 0.019104C167.191 0.019104 159.964 6.46288 158.725 14.8576C158.589 15.769 158.048 16.5594 157.237 16.9937C154.716 18.3323 153 20.981 153 24.0285Z" fill="#74C20F" fill-opacity="0.7"/>
<path d="M153 24.0285C153 26.8267 154.453 29.4185 156.638 30.928C157.521 31.5404 157.927 32.6084 157.771 33.6764C157.315 36.8592 158.183 40.4619 161.167 44.0292C161.323 44.2143 161.501 44.3852 161.694 44.5205C167.774 48.9351 174.026 47.1692 177.529 42.954C178.255 42.0854 179.451 41.7792 180.527 42.1281C182.022 42.6123 183.709 42.6408 185.447 42.0071C188.686 40.8251 190.751 37.6352 190.744 34.1819C190.744 33.0712 191.349 32.0245 192.346 31.5475C195.116 30.2089 197.038 27.2611 197.038 24.0285C197.038 21.5934 195.942 19.4217 194.219 17.962C193.635 17.4707 193.314 16.7445 193.25 15.9826C192.524 7.04671 185.048 0.019104 175.927 0.019104C167.191 0.019104 159.964 6.46288 158.725 14.8576C158.589 15.769 158.048 16.5594 157.237 16.9937C154.716 18.3323 153 20.981 153 24.0285Z" fill="#74C20F" fill-opacity="0.7"/>
<path d="M188.715 31.4478C188.715 32.0744 188.209 32.587 187.576 32.587H186.258C181.053 32.587 177.842 35.7413 177.842 41.2381V55.2364C177.842 55.863 177.337 56.3757 176.703 56.3757H173.485C172.858 56.3757 172.345 55.8701 172.345 55.2364V28.9913C172.345 28.3647 172.851 27.8521 173.485 27.8521H176.44C177.031 27.8521 177.522 28.3077 177.572 28.8987C177.65 29.8528 175.306 28.5358 175.982 27.8523C177.47 26.3499 183.147 27.2112 185.788 27.2112C186.479 27.2112 187.091 27.2682 187.768 27.3821C188.309 27.4747 188.708 27.9518 188.708 28.5V31.4478H188.715Z" fill="black"/>
<path opacity="0.8" d="M166.486 34.2316C170.11 34.2316 172.83 35.9405 174.147 38.5608C174.225 38.7174 174.261 38.8954 174.261 39.0734V41.2237C174.261 42.2348 173.008 42.7688 172.317 42.0212C170.857 40.4476 168.707 39.6074 166.016 39.6074H164.699C164.072 39.6074 163.559 39.1019 163.559 38.4682V35.5204C163.559 34.9722 163.958 34.4879 164.499 34.4025C165.183 34.2886 165.795 34.2316 166.486 34.2316Z" fill="black"/>
<path opacity="0.8" d="M9.91768 31C13.5311 31 16.2429 32.7037 17.5562 35.3162C17.6343 35.4724 17.6698 35.6499 17.6698 35.8274V37.9712C17.6698 38.9793 16.4204 39.5117 15.7318 38.7663C14.2765 37.1974 12.1326 36.3598 9.44916 36.3598H8.13582C7.51111 36.3598 7 35.8557 7 35.2239V32.2849C7 31.7383 7.39755 31.2556 7.93707 31.1704C8.62568 31.0568 9.22908 31 9.91768 31Z" fill="black"/>
</svg>
