<svg width="301" height="328" viewBox="0 0 301 328" fill="none" xmlns="http://www.w3.org/2000/svg">
<path d="M190 270.785C190 275.421 191.715 279.716 194.296 282.217C195.339 283.232 195.818 285.002 195.633 286.772C195.095 292.046 196.121 298.016 199.643 303.927C199.828 304.233 200.038 304.517 200.265 304.741C207.445 312.056 214.827 309.13 218.964 302.145C219.821 300.706 221.234 300.198 222.503 300.777C224.269 301.579 226.261 301.626 228.313 300.576C232.138 298.617 234.576 293.332 234.568 287.609C234.568 285.769 235.282 284.034 236.459 283.244C239.73 281.026 242 276.141 242 270.785C242 266.75 240.705 263.151 238.671 260.732C237.981 259.918 237.603 258.715 237.527 257.452C236.67 242.645 227.842 231 217.072 231C206.756 231 198.222 241.678 196.76 255.588C196.6 257.098 195.961 258.408 195.002 259.128C192.026 261.346 190 265.735 190 270.785Z" fill="#74C20F" fill-opacity="0.7"/>
<path d="M234.911 286.431C234.911 287.47 234.31 288.32 233.557 288.32H231.991C225.802 288.32 221.983 293.549 221.983 302.662V325.87C221.983 326.909 221.382 327.759 220.629 327.759H216.802C216.057 327.759 215.447 326.921 215.447 325.87V282.359C215.447 281.32 216.048 280.47 216.802 280.47H220.315C221.018 280.47 221.602 281.225 221.662 282.205C221.755 283.787 218.967 281.603 219.772 280.47C221.541 277.979 228.291 279.407 231.432 279.407C232.253 279.407 232.981 279.502 233.786 279.691C234.429 279.844 234.903 280.635 234.903 281.544V286.431H234.911Z" fill="black"/>
<path opacity="0.8" d="M208.48 291.047C212.789 291.047 216.023 293.88 217.59 298.224C217.683 298.484 217.725 298.779 217.725 299.074V302.639C217.725 304.315 216.235 305.2 215.414 303.961C213.678 301.352 211.121 299.959 207.921 299.959H206.355C205.61 299.959 205 299.121 205 298.07V293.183C205 292.274 205.474 291.472 206.118 291.33C206.93 291.141 207.658 291.047 208.48 291.047Z" fill="black"/>
<path d="M254 246.125C254 229.201 264.501 229 277.449 229C290.397 229 300.898 229.201 300.898 246.125C300.898 263.049 300.907 318.101 277.449 318.101C254 318.101 254 263.049 254 246.125Z" fill="#60BF91" fill-opacity="0.7"/>
<path d="M295.346 284.077C295.346 285.181 294.707 286.084 293.906 286.084H292.242C285.664 286.084 281.606 291.642 281.606 301.328V325.993C281.606 327.097 280.967 328 280.166 328H276.099C275.307 328 274.659 327.109 274.659 325.993V279.749C274.659 278.645 275.298 277.741 276.099 277.741H279.833C280.58 277.741 287.205 277.658 287.268 278.699C287.367 280.38 282.553 277.419 286.08 278.698C287.96 276.051 288.31 276.612 291.648 276.612C292.521 276.612 293.294 276.713 294.149 276.913C294.833 277.076 295.337 277.917 295.337 278.883V284.077H295.346Z" fill="black"/>
<path opacity="0.8" d="M267.254 288.983C271.834 288.983 275.271 291.993 276.936 296.61C277.035 296.886 277.08 297.2 277.08 297.514V301.302C277.08 303.084 275.496 304.025 274.623 302.708C272.778 299.935 270.061 298.455 266.66 298.455H264.995C264.203 298.455 263.555 297.564 263.555 296.447V291.253C263.555 290.287 264.059 289.434 264.743 289.284C265.616 289.083 266.381 288.983 267.254 288.983Z" fill="black"/>
<path d="M126 246.125C126 229.201 136.501 229 149.449 229C162.397 229 172.898 229.201 172.898 246.125C172.898 263.049 172.907 318.101 149.449 318.101C126 318.101 126 263.049 126 246.125Z" fill="#60BF91" fill-opacity="0.7"/>
<path d="M167.346 284.077C167.346 285.181 166.707 286.084 165.906 286.084H164.242C157.664 286.084 153.606 291.642 153.606 301.328V325.993C153.606 327.097 152.967 328 152.166 328H148.099C147.307 328 146.659 327.109 146.659 325.993V279.749C146.659 278.645 147.298 277.741 148.099 277.741H151.833C152.58 277.741 159.205 277.658 159.268 278.699C159.367 280.38 154.553 277.419 158.08 278.698C159.96 276.051 160.31 276.612 163.648 276.612C164.521 276.612 165.294 276.713 166.149 276.913C166.833 277.076 167.337 277.917 167.337 278.883V284.077H167.346Z" fill="black"/>
<path opacity="0.8" d="M139.254 288.983C143.834 288.983 147.271 291.993 148.936 296.61C149.035 296.886 149.08 297.2 149.08 297.514V301.302C149.08 303.084 147.496 304.025 146.623 302.708C144.778 299.935 142.061 298.455 138.66 298.455H136.995C136.203 298.455 135.555 297.564 135.555 296.447V291.253C135.555 290.287 136.059 289.434 136.743 289.284C137.616 289.083 138.381 288.983 139.254 288.983Z" fill="black"/>
<path d="M0.705708 0C36.4232 0 72.2825 0 108 0C107.294 109.125 106.588 218.25 105.882 327.374C70.588 327.625 35.294 327.75 0 328C0.141176 218.625 0.423218 109.375 0.564394 0H0.705708Z" fill="#A8D8DE"/>
<path d="M8.04858 7.5105C38.6838 7.5105 69.4604 7.5105 100.096 7.5105C99.2486 13.2671 80.3307 144.667 53.9308 144.667C27.672 144.667 8.89564 13.1419 8.04858 7.5105Z" fill="#75C2C0"/>
<path d="M15.6721 24.0282C25.2721 21.9007 38.2603 19.7733 53.6485 19.7733C69.4602 19.7733 82.7308 21.9007 92.4719 24.2785C84.8484 81.9694 69.7431 123.892 55.0608 124.018C40.3785 124.018 24.2839 82.2197 15.6721 24.0282Z" fill="white"/>
<path d="M14.1176 14.2639C14.5412 15.6405 14.8238 16.8919 15.2473 18.2685C25.9767 16.7667 38.5407 15.5153 52.5171 15.3902C67.7641 15.3902 81.3174 16.3913 92.6115 18.0182C93.035 16.6416 93.4589 15.1399 93.8824 13.7633C81.6001 12.3867 67.4819 11.3856 51.8114 11.6359C37.835 11.761 25.1292 12.8873 13.9763 14.2639H14.1176Z" fill="#769591"/>
<path d="M200.264 319.933C200.6 320.143 200.516 320.762 200.841 320.856C201.176 320.961 201.648 320.405 202.047 319.818C203.568 318.444 205.078 317.07 206.599 315.696C206.767 315.591 207.7 315.035 208.56 315.413C208.56 315.413 209.431 315.79 209.714 317.112C210.029 318.601 208.382 319.944 206.83 321.244C205.686 322.199 203.903 323.489 201.376 324.548C201.103 324.632 200.704 324.737 200.201 324.727C199.551 324.716 199.058 324.527 198.764 324.402C198.607 324.223 198.439 324.013 198.282 323.772C197.736 322.923 197.537 322.084 197.463 321.496C199.142 319.965 199.907 319.724 200.253 319.944L200.264 319.933Z" fill="#2D1A8E"/>
<path d="M195.712 317.3C195.712 317.447 195.775 317.489 196.016 317.93C196.016 317.93 196.132 318.139 196.635 319.241C197.338 320.782 197.118 321.296 197.537 321.548C198.324 322.01 200.002 321.087 200.201 319.912C200.264 319.534 199.992 318.957 199.436 317.814C198.701 316.293 198.439 316.021 198.303 315.937C198.292 315.937 198.282 315.926 198.261 315.916C197.254 315.433 195.702 316.503 195.733 317.3H195.712Z" fill="#FF004F"/>
<path d="M107.722 320.531C107.051 321.118 106.506 321.653 106.076 322.073C105.352 322.796 105.048 323.164 105.006 323.677C104.995 323.814 104.974 324.181 105.195 324.537C105.457 324.957 105.887 325.072 106.013 325.104C106.527 325.104 107.303 325.125 108.236 325.125C109.568 325.125 110.082 325.104 110.659 325.104C114.299 325.093 115.117 325.219 116.921 325.104C117.571 325.062 118.085 324.527 118.096 323.877C118.106 323.237 117.624 322.681 116.973 322.608C115.421 322.629 113.795 322.608 112.096 322.534C111.215 322.492 110.355 322.44 109.516 322.366C109.527 322.272 109.527 322.136 109.464 321.999C109.275 321.653 108.792 321.737 108.373 321.485C108.152 321.349 107.88 321.087 107.712 320.52L107.722 320.531Z" fill="#2D1A8E"/>
<path d="M109.558 317.783C110.261 318.223 110.964 318.664 111.656 319.104C111.478 319.66 111.215 320.342 110.817 321.055C110.502 321.622 110.167 322.094 109.852 322.471C109.632 322.492 109.013 322.513 108.373 322.115C107.859 321.8 107.597 321.37 107.481 321.16C107.67 320.657 107.932 320.069 108.3 319.44C108.719 318.737 109.17 318.192 109.558 317.783Z" fill="#FF004F"/>
<path d="M135.874 253.813C136.42 253.173 136.871 252.659 137.164 252.334C137.164 252.334 141.182 247.813 145.293 244.488C145.44 244.363 145.734 244.132 146.174 243.87C147.58 243.052 148.933 242.978 149.887 242.926C150.8 242.884 152.593 242.821 154.544 243.723C155.656 244.237 156.39 244.877 156.82 245.254C159.935 248.034 163.764 252.229 164.792 253.372C167.844 256.519 170.896 259.676 173.948 262.823C176.979 265.959 180.021 269.095 183.052 272.231C184.689 273.962 186.314 275.692 187.95 277.433C188.171 277.727 188.381 278.021 188.59 278.325C191.118 281.933 192.838 285.688 193.981 289.317C195.995 293.261 198.009 297.204 200.023 301.148C200.82 302.826 201.607 304.515 202.404 306.193C202.593 306.896 203.358 310.032 201.607 313.168C199.362 317.196 194.915 317.752 194.286 317.825C188.926 318.402 185.465 314.217 185.223 313.913C183.755 310.945 182.287 307.976 180.818 305.008C179.748 302.826 178.668 300.645 177.598 298.453C176.686 296.565 175.763 294.666 174.85 292.778C174.305 291.436 173.759 290.093 173.214 288.751C172.784 288.279 172.134 287.565 171.347 286.716C164.456 279.269 159.274 274.36 156.862 272C153.212 268.424 148.136 263.053 142.241 255.46C141.538 256.194 140.846 256.939 140.143 257.673C138.717 256.383 137.29 255.093 135.864 253.802L135.874 253.813Z" fill="#2D1A8E"/>
<path d="M142.251 255.459C140.07 257.484 137.238 260.63 135.004 265.067C130.536 273.93 131.238 282.352 131.752 285.897C131.133 286.894 130.022 287.46 128.889 287.366C127.337 287.24 126.56 285.939 126.487 285.814C120.267 292.495 114.047 299.187 107.817 305.868C107.314 306.707 105.069 310.682 106.579 314.469C108.604 319.545 116.093 320.993 120.907 319.346C124.526 318.108 125.69 315.455 130.2 309.738C132.843 306.392 136.619 302.029 141.737 297.267C142.157 296.921 142.723 296.365 143.206 295.568C143.919 294.383 144.087 293.25 144.139 292.621C147.359 284.702 150.579 276.793 153.789 268.874C149.94 264.396 146.09 259.917 142.251 255.438V255.459Z" fill="#2D1A8E"/>
<path d="M136.01 253.55C137.499 254.841 138.999 256.131 140.488 257.421C138.59 259.927 136.23 263.661 134.489 268.612C131.919 275.923 131.94 282.373 132.244 286.139C132.192 286.286 131.636 287.764 130.241 288.132C128.909 288.488 127.367 287.691 126.675 286.149C126.486 283.684 126.465 280.915 126.748 277.905C127.692 267.951 131.563 260.368 134.468 255.816C134.982 255.061 135.496 254.295 136.02 253.54L136.01 253.55Z" fill="#CE1963"/>
<path d="M147.789 282.856L150.128 277.402C151.848 279.374 153.558 281.356 155.278 283.328C156.296 284.324 156.421 285.94 155.593 287.072C154.743 288.237 153.118 288.583 151.848 287.848C150.495 286.181 149.142 284.524 147.789 282.856Z" fill="#CE1963"/>
<path d="M142.544 238.61C143.358 240.06 146.462 242.24 150.405 242.339C153.991 242.426 156.467 240.766 157.551 239.738C157.785 239.515 158.278 239.007 158.586 238.165C159.005 237.05 158.956 235.91 158.783 235.873C158.673 235.848 158.537 236.319 158.328 236.294C158.155 236.269 157.995 235.935 157.933 235.786C157.933 235.786 157.933 235.786 157.933 235.774C157.453 234.51 158.623 233.321 158.488 231.202C158.488 231.202 158.389 229.741 157.687 228.911C157.662 228.886 157.576 228.762 157.44 228.65C157.194 228.452 157.108 228.316 157.058 228.341C156.948 228.39 157.145 228.861 157.095 229.542C157.083 229.703 157.034 230.261 156.849 230.298C156.627 230.348 156.319 229.604 156.258 229.468C155.592 227.919 156.073 226.111 156.122 225.368C156.221 223.968 155.099 221.911 149.74 219C149.937 220.313 149.937 221.205 149.838 221.8C149.752 222.308 149.432 222.642 149.284 222.865C148.766 223.621 148.224 223.992 147.497 224.538C146.253 225.467 145.637 225.925 145.391 226.222C143.801 228.13 145.193 231.487 144.836 231.562C144.59 231.611 143.789 230.137 143.727 228.973C143.727 228.849 143.703 228.477 143.641 228.465C143.579 228.465 143.493 228.811 143.395 229.134C143.074 230.149 142.668 230.348 142.36 231.401C142.286 231.648 142.212 231.958 142.298 232.28C142.36 232.503 142.446 232.664 142.495 232.726C142.643 232.974 143.21 234.708 142.779 234.944C142.655 235.006 142.495 234.931 142.446 234.906C141.941 234.646 142.015 233.705 141.904 233.705C141.805 233.705 141.67 234.411 141.682 235.278C141.682 235.551 141.682 235.947 141.781 236.467C141.781 236.467 141.978 237.607 142.569 238.66L142.544 238.61Z" fill="#FF004F"/>
<path d="M156.006 239.337C155.407 240.356 153.201 241.823 150.468 241.786C147.986 241.749 146.308 240.493 145.589 239.735C145.121 239.25 144.905 238.591 144.905 238.591C144.606 237.907 144.522 237.323 144.498 237.136C144.354 235.98 144.654 235.035 144.893 234.264C144.977 234.003 144.989 234.015 145.193 233.419C145.349 232.959 145.421 232.722 145.481 232.722C145.541 232.722 145.565 232.946 145.613 233.158C145.732 233.729 145.996 234.053 146.152 234.314C146.751 235.358 146.38 236.838 146.56 236.863C146.68 236.875 146.931 236.278 147.015 235.532C147.159 234.127 146.512 233.481 146.392 232.213C146.284 231.156 146.62 230.335 146.955 229.49C148.118 226.593 151.007 225.337 151.535 225.113C151.367 226.046 151.343 226.68 151.391 227.103C151.439 227.476 151.655 227.712 151.751 227.874C152.134 228.495 152.518 228.694 152.937 229.117C153.513 229.701 153.801 230.36 153.896 230.646C154.544 232.486 152.877 234.227 153.621 235.035C153.633 235.06 153.884 235.308 154.16 235.271C154.879 235.172 155.371 233.17 155.431 232.387C155.431 232.312 155.455 232.039 155.503 232.026C155.551 232.026 155.599 232.275 155.659 232.511C155.851 233.245 156.126 233.394 156.318 234.152C156.366 234.339 156.402 234.55 156.33 234.774C156.282 234.935 156.222 235.047 156.186 235.085C156.078 235.259 155.635 236.477 155.934 236.664C156.018 236.713 156.138 236.664 156.162 236.639C156.522 236.465 156.486 235.793 156.57 235.793C156.642 235.793 156.714 236.303 156.678 236.925C156.678 237.111 156.654 237.397 156.582 237.77C156.582 237.77 156.414 238.578 155.982 239.312L156.006 239.337Z" fill="#CE1963"/>
<path d="M168.491 91.6067C167.456 90.8059 167.259 90.5964 167.284 90.5595C167.321 90.5102 167.616 90.7443 168.171 90.8551C168.824 90.9907 169.243 90.8552 169.292 90.9661C169.317 91.04 169.206 91.2002 168.503 91.6067H168.491Z" fill="black"/>
<path d="M168.775 91.1748C168.085 90.0659 167.974 89.7949 168.011 89.7703C168.06 89.7333 168.27 90.0536 168.738 90.3616C169.305 90.7189 169.748 90.7313 169.748 90.8668C169.748 90.9407 169.576 91.0516 168.775 91.1872V91.1748Z" fill="black"/>
<path d="M169.563 91.0399C169.046 90.0419 168.959 89.8078 168.996 89.7831C169.046 89.7585 169.193 90.0419 169.588 90.3376C170.056 90.6949 170.438 90.7442 170.438 90.8427C170.438 90.9043 170.278 90.9906 169.563 91.0275V91.0399Z" fill="black"/>
<path d="M155.075 230.68C154.175 229.485 151.194 229.436 150.59 230.249C150.257 230.705 150.652 231.407 151.083 231.777C152.253 232.812 154.865 232.405 155.284 231.592C155.481 231.21 155.161 230.779 155.075 230.668V230.68Z" fill="white"/>
<path d="M154.656 229.966C155.198 230.262 155.383 230.964 155.149 231.519C154.915 232.061 154.286 232.418 153.72 232.245C153.067 232.048 152.734 231.211 153.03 230.57C153.301 229.978 154.077 229.658 154.668 229.978L154.656 229.966Z" fill="black"/>
<path d="M200.264 319.933C200.6 320.143 200.516 320.762 200.841 320.856C201.176 320.961 201.648 320.405 202.047 319.818C203.568 318.444 205.078 317.07 206.599 315.696C206.767 315.591 207.7 315.035 208.56 315.413C208.56 315.413 209.431 315.79 209.714 317.112C210.029 318.601 208.382 319.944 206.83 321.244C205.686 322.199 203.903 323.489 201.376 324.548C201.103 324.632 200.704 324.737 200.201 324.727C199.551 324.716 199.058 324.527 198.764 324.402C198.607 324.223 198.439 324.013 198.282 323.772C197.736 322.923 197.537 322.084 197.463 321.496C199.142 319.965 199.907 319.724 200.253 319.944L200.264 319.933Z" fill="#2D1A8E"/>
<path d="M195.712 317.3C195.712 317.447 195.775 317.489 196.016 317.93C196.016 317.93 196.132 318.139 196.635 319.241C197.338 320.782 197.118 321.296 197.537 321.548C198.324 322.01 200.002 321.087 200.201 319.912C200.264 319.534 199.992 318.957 199.436 317.814C198.701 316.293 198.439 316.021 198.303 315.937C198.292 315.937 198.282 315.926 198.261 315.916C197.254 315.433 195.702 316.503 195.733 317.3H195.712Z" fill="#FF004F"/>
<path d="M107.722 320.531C107.051 321.118 106.506 321.653 106.076 322.073C105.352 322.796 105.048 323.164 105.006 323.677C104.995 323.814 104.974 324.181 105.195 324.537C105.457 324.957 105.887 325.072 106.013 325.104C106.527 325.104 107.303 325.125 108.236 325.125C109.568 325.125 110.082 325.104 110.659 325.104C114.299 325.093 115.117 325.219 116.921 325.104C117.571 325.062 118.085 324.527 118.096 323.877C118.106 323.237 117.624 322.681 116.973 322.608C115.421 322.629 113.795 322.608 112.096 322.534C111.215 322.492 110.355 322.44 109.516 322.366C109.527 322.272 109.527 322.136 109.464 321.999C109.275 321.653 108.792 321.737 108.373 321.485C108.152 321.349 107.88 321.087 107.712 320.52L107.722 320.531Z" fill="#2D1A8E"/>
<path d="M109.558 317.783C110.261 318.223 110.964 318.664 111.656 319.104C111.478 319.66 111.215 320.342 110.817 321.055C110.502 321.622 110.167 322.094 109.852 322.471C109.632 322.492 109.013 322.513 108.373 322.115C107.859 321.8 107.597 321.37 107.481 321.16C107.67 320.657 107.932 320.069 108.3 319.44C108.719 318.737 109.17 318.192 109.558 317.783Z" fill="#FF004F"/>
<path d="M135.874 253.813C136.42 253.173 136.871 252.659 137.164 252.334C137.164 252.334 141.182 247.813 145.293 244.488C145.44 244.363 145.734 244.132 146.174 243.87C147.58 243.052 148.933 242.978 149.887 242.926C150.8 242.884 152.593 242.821 154.544 243.723C155.656 244.237 156.39 244.877 156.82 245.254C159.935 248.034 163.764 252.229 164.792 253.372C167.844 256.519 170.896 259.676 173.948 262.823C176.979 265.959 180.021 269.095 183.052 272.231C184.689 273.962 186.314 275.692 187.95 277.433C188.171 277.727 188.381 278.021 188.59 278.325C191.118 281.933 192.838 285.688 193.981 289.317C195.995 293.261 198.009 297.204 200.023 301.148C200.82 302.826 201.607 304.515 202.404 306.193C202.593 306.896 203.358 310.032 201.607 313.168C199.362 317.196 194.915 317.752 194.286 317.825C188.926 318.402 185.465 314.217 185.223 313.913C183.755 310.945 182.287 307.976 180.818 305.008C179.748 302.826 178.668 300.645 177.598 298.453C176.686 296.565 175.763 294.666 174.85 292.778C174.305 291.436 173.759 290.093 173.214 288.751C172.784 288.279 172.134 287.565 171.347 286.716C164.456 279.269 159.274 274.36 156.862 272C153.212 268.424 148.136 263.053 142.241 255.46C141.538 256.194 140.846 256.939 140.143 257.673C138.717 256.383 137.29 255.093 135.864 253.802L135.874 253.813Z" fill="#2D1A8E"/>
<path d="M142.251 255.459C140.07 257.484 137.238 260.63 135.004 265.067C130.536 273.93 131.238 282.352 131.752 285.897C131.133 286.894 130.022 287.46 128.889 287.366C127.337 287.24 126.56 285.939 126.487 285.814C120.267 292.495 114.047 299.187 107.817 305.868C107.314 306.707 105.069 310.682 106.579 314.469C108.604 319.545 116.093 320.993 120.907 319.346C124.526 318.108 125.69 315.455 130.2 309.738C132.843 306.392 136.619 302.029 141.737 297.267C142.157 296.921 142.723 296.365 143.206 295.568C143.919 294.383 144.087 293.25 144.139 292.621C147.359 284.702 150.579 276.793 153.789 268.874C149.94 264.396 146.09 259.917 142.251 255.438V255.459Z" fill="#2D1A8E"/>
<path d="M136.01 253.55C137.499 254.841 138.999 256.131 140.488 257.421C138.59 259.927 136.23 263.661 134.489 268.612C131.919 275.923 131.94 282.373 132.244 286.139C132.192 286.286 131.636 287.764 130.241 288.132C128.909 288.488 127.367 287.691 126.675 286.149C126.486 283.684 126.465 280.915 126.748 277.905C127.692 267.951 131.563 260.368 134.468 255.816C134.982 255.061 135.496 254.295 136.02 253.54L136.01 253.55Z" fill="#CE1963"/>
<path d="M147.789 282.856L150.128 277.402C151.848 279.374 153.558 281.356 155.278 283.328C156.296 284.324 156.421 285.94 155.593 287.072C154.743 288.237 153.118 288.583 151.848 287.848C150.495 286.181 149.142 284.524 147.789 282.856Z" fill="#CE1963"/>
<path d="M142.544 238.61C143.358 240.06 146.462 242.24 150.405 242.339C153.991 242.426 156.467 240.766 157.551 239.738C157.785 239.515 158.278 239.007 158.586 238.165C159.005 237.05 158.956 235.91 158.783 235.873C158.673 235.848 158.537 236.319 158.328 236.294C158.155 236.269 157.995 235.935 157.933 235.786C157.933 235.786 157.933 235.786 157.933 235.774C157.453 234.51 158.623 233.321 158.488 231.202C158.488 231.202 158.389 229.741 157.687 228.911C157.662 228.886 157.576 228.762 157.44 228.65C157.194 228.452 157.108 228.316 157.058 228.341C156.948 228.39 157.145 228.861 157.095 229.542C157.083 229.703 157.034 230.261 156.849 230.298C156.627 230.348 156.319 229.604 156.258 229.468C155.592 227.919 156.073 226.111 156.122 225.368C156.221 223.968 155.099 221.911 149.74 219C149.937 220.313 149.937 221.205 149.838 221.8C149.752 222.308 149.432 222.642 149.284 222.865C148.766 223.621 148.224 223.992 147.497 224.538C146.253 225.467 145.637 225.925 145.391 226.222C143.801 228.13 145.193 231.487 144.836 231.562C144.59 231.611 143.789 230.137 143.727 228.973C143.727 228.849 143.703 228.477 143.641 228.465C143.579 228.465 143.493 228.811 143.395 229.134C143.074 230.149 142.668 230.348 142.36 231.401C142.286 231.648 142.212 231.958 142.298 232.28C142.36 232.503 142.446 232.664 142.495 232.726C142.643 232.974 143.21 234.708 142.779 234.944C142.655 235.006 142.495 234.931 142.446 234.906C141.941 234.646 142.015 233.705 141.904 233.705C141.805 233.705 141.67 234.411 141.682 235.278C141.682 235.551 141.682 235.947 141.781 236.467C141.781 236.467 141.978 237.607 142.569 238.66L142.544 238.61Z" fill="#FF004F"/>
<path d="M156.006 239.337C155.407 240.356 153.201 241.823 150.468 241.786C147.986 241.749 146.308 240.493 145.589 239.735C145.121 239.25 144.905 238.591 144.905 238.591C144.606 237.907 144.522 237.323 144.498 237.136C144.354 235.98 144.654 235.035 144.893 234.264C144.977 234.003 144.989 234.015 145.193 233.419C145.349 232.959 145.421 232.722 145.481 232.722C145.541 232.722 145.565 232.946 145.613 233.158C145.732 233.729 145.996 234.053 146.152 234.314C146.751 235.358 146.38 236.838 146.56 236.863C146.68 236.875 146.931 236.278 147.015 235.532C147.159 234.127 146.512 233.481 146.392 232.213C146.284 231.156 146.62 230.335 146.955 229.49C148.118 226.593 151.007 225.337 151.535 225.113C151.367 226.046 151.343 226.68 151.391 227.103C151.439 227.476 151.655 227.712 151.751 227.874C152.134 228.495 152.518 228.694 152.937 229.117C153.513 229.701 153.801 230.36 153.896 230.646C154.544 232.486 152.877 234.227 153.621 235.035C153.633 235.06 153.884 235.308 154.16 235.271C154.879 235.172 155.371 233.17 155.431 232.387C155.431 232.312 155.455 232.039 155.503 232.026C155.551 232.026 155.599 232.275 155.659 232.511C155.851 233.245 156.126 233.394 156.318 234.152C156.366 234.339 156.402 234.55 156.33 234.774C156.282 234.935 156.222 235.047 156.186 235.085C156.078 235.259 155.635 236.477 155.934 236.664C156.018 236.713 156.138 236.664 156.162 236.639C156.522 236.465 156.486 235.793 156.57 235.793C156.642 235.793 156.714 236.303 156.678 236.925C156.678 237.111 156.654 237.397 156.582 237.77C156.582 237.77 156.414 238.578 155.982 239.312L156.006 239.337Z" fill="#CE1963"/>
<path d="M168.491 91.6067C167.456 90.8059 167.259 90.5964 167.284 90.5595C167.321 90.5102 167.616 90.7443 168.171 90.8551C168.824 90.9907 169.243 90.8552 169.292 90.9661C169.317 91.04 169.206 91.2002 168.503 91.6067H168.491Z" fill="black"/>
<path d="M168.775 91.1748C168.085 90.0659 167.974 89.7949 168.011 89.7703C168.06 89.7333 168.27 90.0536 168.738 90.3616C169.305 90.7189 169.748 90.7313 169.748 90.8668C169.748 90.9407 169.576 91.0516 168.775 91.1872V91.1748Z" fill="black"/>
<path d="M169.563 91.0399C169.046 90.0419 168.959 89.8078 168.996 89.7831C169.046 89.7585 169.193 90.0419 169.588 90.3376C170.056 90.6949 170.438 90.7442 170.438 90.8427C170.438 90.9043 170.278 90.9906 169.563 91.0275V91.0399Z" fill="black"/>
<path d="M155.075 230.68C154.175 229.485 151.194 229.436 150.59 230.249C150.257 230.705 150.652 231.407 151.083 231.777C152.253 232.812 154.865 232.405 155.284 231.592C155.481 231.21 155.161 230.779 155.075 230.668V230.68Z" fill="white"/>
<path d="M154.656 229.966C155.198 230.262 155.383 230.964 155.149 231.519C154.915 232.061 154.286 232.418 153.72 232.245C153.067 232.048 152.734 231.211 153.03 230.57C153.301 229.978 154.077 229.658 154.668 229.978L154.656 229.966Z" fill="black"/>
</svg>
