<svg width="186" height="24" viewBox="0 0 186 24" fill="none" xmlns="http://www.w3.org/2000/svg">
<path d="M0.460938 23.388L0.460938 0.136597L185.461 0.136597V23.388L0.460938 23.388Z" fill="#2D1A8E"/>
<path d="M0.460938 7.70088L15.8708 7.70088L8.15836 0.151367L0.460938 7.70088Z" fill="#ECE5FC"/>
<path d="M23.5834 0.151245L15.8709 7.70075L31.2808 7.70075" fill="#ECE5FC"/>
<path d="M8.15897 15.2658L23.5839 15.2658L15.8714 7.70117L8.15897 15.2658Z" fill="#BDABE4"/>
<path d="M31.2802 7.70117L23.5828 15.2658L38.9927 15.2658" fill="#BDABE4"/>
<path d="M15.8709 22.83L31.2808 22.83L23.5834 15.2654L15.8709 22.83Z" fill="#ECE5FC"/>
<path d="M38.9931 0.151245L31.2806 7.70075L46.7056 7.70075" fill="#ECE5FC"/>
<path d="M46.7054 7.70075L62.1153 7.70075L54.4178 0.151245L46.7054 7.70075Z" fill="#ECE5FC"/>
<path d="M69.828 0.151245L62.1156 7.70075L77.5405 7.70075" fill="#ECE5FC"/>
<path d="M54.4179 15.2658L69.8278 15.2658L62.1153 7.70117L54.4179 15.2658Z" fill="#BDABE4"/>
<path d="M77.5405 7.70117L69.828 15.2658L85.2379 15.2658" fill="#BDABE4"/>
<path d="M62.1156 22.83L77.5405 22.83L69.828 15.2654L62.1156 22.83Z" fill="#ECE5FC"/>
<path d="M85.2379 0.151245L77.5405 7.70075L92.9504 7.70075" fill="#ECE5FC"/>
<path d="M92.9655 7.70075L108.375 7.70075L100.678 0.151245L92.9655 7.70075Z" fill="#ECE5FC"/>
<path d="M116.088 0.151245L108.375 7.70075L123.8 7.70075" fill="#ECE5FC"/>
<path d="M100.678 15.2658L116.088 15.2658L108.375 7.70117L100.678 15.2658Z" fill="#BDABE4"/>
<path d="M123.8 7.70117L116.087 15.2658L131.512 15.2658" fill="#BDABE4"/>
<path d="M108.375 22.83L123.8 22.83L116.088 15.2654L108.375 22.83Z" fill="#ECE5FC"/>
<path d="M131.512 0.151245L123.8 7.70075L139.21 7.70075" fill="#ECE5FC"/>
<path d="M139.21 7.70075L154.635 7.70075L146.923 0.151245L139.21 7.70075Z" fill="#ECE5FC"/>
<path d="M162.333 0.151245L154.635 7.70075L170.045 7.70075" fill="#ECE5FC"/>
<path d="M146.922 15.2658L162.332 15.2658L154.635 7.70117L146.922 15.2658Z" fill="#BDABE4"/>
<path d="M170.045 7.70117L162.332 15.2658L177.757 15.2658" fill="#BDABE4"/>
<path d="M154.635 22.83L170.045 22.83L162.333 15.2654L154.635 22.83Z" fill="#ECE5FC"/>
<path d="M177.757 0.151245L170.045 7.70075L185.455 7.70075" fill="#ECE5FC"/>
</svg>
