<svg width="174" height="176" viewBox="0 0 174 176" fill="none" xmlns="http://www.w3.org/2000/svg">
<path d="M157.749 167.137C158.305 167.485 158.166 168.509 158.704 168.666C159.26 168.839 160.042 167.919 160.702 166.946C163.22 164.671 165.721 162.396 168.239 160.12C168.517 159.947 170.063 159.026 171.487 159.651C171.487 159.651 172.929 160.277 173.398 162.465C173.919 164.931 171.192 167.155 168.622 169.308C166.728 170.889 163.776 173.025 159.59 174.779C159.138 174.918 158.478 175.092 157.645 175.075C156.568 175.057 155.752 174.745 155.265 174.536C155.005 174.241 154.727 173.893 154.466 173.494C153.563 172.087 153.233 170.698 153.112 169.725C155.891 167.189 157.158 166.79 157.732 167.155L157.749 167.137Z" fill="#2D1A8E"/>
<path d="M150.212 162.778C150.212 163.021 150.316 163.09 150.715 163.82C150.715 163.82 150.907 164.167 151.74 165.991C152.904 168.544 152.539 169.395 153.234 169.812C154.536 170.576 157.316 169.048 157.646 167.102C157.75 166.477 157.298 165.522 156.378 163.629C155.162 161.11 154.728 160.659 154.502 160.52C154.484 160.52 154.467 160.503 154.432 160.485C152.765 159.686 150.194 161.458 150.247 162.778H150.212Z" fill="#FF004F"/>
<path d="M4.50817 168.127C3.3966 169.1 2.49343 169.985 1.78133 170.68C0.582909 171.879 0.0792452 172.487 0.00977169 173.338C-0.00759667 173.563 -0.0423461 174.171 0.32239 174.762C0.756599 175.456 1.4687 175.648 1.67712 175.7C2.52817 175.7 3.81342 175.734 5.35921 175.734C7.56499 175.734 8.41603 175.7 9.37129 175.7C15.3981 175.682 16.7529 175.891 19.7402 175.7C20.817 175.63 21.6681 174.744 21.6855 173.668C21.7028 172.608 20.9039 171.688 19.827 171.566C17.2565 171.601 14.5644 171.566 11.7508 171.444C10.2918 171.375 8.86762 171.288 7.47815 171.167C7.49552 171.01 7.49554 170.784 7.39133 170.559C7.0787 169.985 6.27974 170.124 5.585 169.708C5.22027 169.482 4.76868 169.048 4.49079 168.11L4.50817 168.127Z" fill="#2D1A8E"/>
<path d="M7.54796 163.576C8.71165 164.306 9.87533 165.035 11.0216 165.764C10.7264 166.685 10.2921 167.814 9.63214 168.995C9.11109 169.933 8.55533 170.715 8.03428 171.34C7.66954 171.375 6.6448 171.409 5.58533 170.749C4.73428 170.228 4.30006 169.516 4.10901 169.169C4.42164 168.335 4.85585 167.362 5.46374 166.32C6.15847 165.157 6.90534 164.253 7.54796 163.576Z" fill="#FF004F"/>
<path d="M51.1253 57.6471C52.0285 56.5876 52.7753 55.7366 53.2616 55.1982C53.2616 55.1982 59.9137 47.7124 66.7221 42.2066C66.9652 41.9982 67.4516 41.6161 68.181 41.1819C70.5084 39.8271 72.7489 39.7056 74.3294 39.6187C75.8405 39.5493 78.8105 39.445 82.041 40.9387C83.882 41.7897 85.0978 42.8493 85.8099 43.4745C90.9683 48.0771 97.3078 55.0245 99.0099 56.9176C104.064 62.1281 109.118 67.356 114.172 72.5665C119.192 77.7597 124.229 82.9528 129.248 88.1459C131.958 91.0117 134.65 93.8775 137.359 96.7606C137.724 97.247 138.071 97.7333 138.419 98.237C142.605 104.212 145.453 110.43 147.346 116.439C150.681 122.97 154.015 129.5 157.35 136.03C158.67 138.809 159.973 141.606 161.293 144.385C161.605 145.548 162.873 150.742 159.973 155.935C156.256 162.604 148.892 163.525 147.85 163.646C138.975 164.601 133.243 157.671 132.843 157.168C130.412 152.253 127.98 147.337 125.549 142.422C123.777 138.809 121.988 135.197 120.217 131.567C118.706 128.441 117.177 125.297 115.666 122.171C114.763 119.947 113.86 117.724 112.957 115.501C112.245 114.719 111.168 113.538 109.865 112.132C98.4541 99.8001 89.8741 91.6717 85.8794 87.7638C79.8352 81.8412 71.4289 72.9486 61.6679 60.3739C60.5042 61.5897 59.3579 62.8229 58.1942 64.0387C55.8321 61.9023 53.47 59.766 51.1079 57.6297L51.1253 57.6471Z" fill="#2D1A8E"/>
<path d="M61.6854 60.3735C58.0728 63.7256 53.3833 68.9361 49.6838 76.2829C42.2849 90.9592 43.4486 104.906 44.2997 110.777C43.275 112.427 41.4339 113.364 39.5581 113.208C36.9876 113 35.7023 110.846 35.5807 110.638C25.2813 121.701 14.9819 132.782 4.66506 143.846C3.83138 145.235 0.114566 151.818 2.61561 158.088C5.96771 166.494 18.3687 168.891 26.3408 166.164C32.3328 164.115 34.2608 159.721 41.7292 150.255C46.106 144.714 52.3586 137.489 60.8344 129.604C61.5291 129.031 62.467 128.11 63.2659 126.79C64.447 124.827 64.7249 122.952 64.8117 121.91C70.1438 108.796 75.4759 95.7007 80.7906 82.5876C74.4164 75.1713 68.0422 67.755 61.6854 60.3387V60.3735Z" fill="#2D1A8E"/>
<path d="M51.3497 57.2126C53.816 59.3489 56.2996 61.4851 58.7659 63.6215C55.6223 67.7725 51.7144 73.9557 48.8312 82.1535C44.576 94.2593 44.6107 104.941 45.1144 111.176C45.0275 111.419 44.1071 113.868 41.7971 114.476C39.5913 115.067 37.0381 113.747 35.8918 111.193C35.5791 107.112 35.5444 102.527 36.0134 97.5419C37.5765 81.0593 43.9855 68.502 48.7965 60.9641C49.6476 59.7136 50.4986 58.4457 51.367 57.1952L51.3497 57.2126Z" fill="#CE1963"/>
<path d="M70.8553 105.74L74.7285 96.7088C77.5769 99.9741 80.408 103.257 83.2564 106.522C84.9411 108.172 85.1495 110.847 83.7774 112.722C82.3706 114.65 79.6785 115.223 77.5769 114.008C75.3364 111.246 73.0959 108.502 70.8553 105.74Z" fill="#CE1963"/>
<path d="M62.1706 32.4734C63.5171 34.8735 68.6586 38.4839 75.1874 38.648C81.1245 38.7916 85.2254 36.0428 87.0208 34.3401C87.4084 33.9709 88.2246 33.1298 88.7347 31.7348C89.4283 29.8886 89.3467 28.0013 89.061 27.9398C88.8774 27.8987 88.653 28.6783 88.3062 28.6373C88.0205 28.5963 87.7553 28.0424 87.6533 27.7962C87.6533 27.7962 87.6533 27.7962 87.6533 27.7757C86.8576 25.6833 88.7958 23.714 88.5714 20.2061C88.5714 20.2061 88.4081 17.7855 87.2452 16.411C87.2044 16.37 87.0615 16.1649 86.8371 15.9803C86.4291 15.652 86.2863 15.4264 86.2046 15.4674C86.021 15.5495 86.3475 16.329 86.2659 17.4573C86.2455 17.7239 86.1639 18.647 85.8578 18.7086C85.4906 18.7906 84.9806 17.5598 84.8786 17.3342C83.7768 14.77 84.5725 11.7749 84.6542 10.5441C84.8174 8.22606 82.9606 4.82074 74.0856 0C74.412 2.17446 74.412 3.65148 74.2488 4.63614C74.106 5.4772 73.5755 6.03104 73.3307 6.40029C72.4738 7.65163 71.5762 8.26706 70.3724 9.16967C68.3118 10.7082 67.2916 11.4672 66.8836 11.9596C64.2516 15.1187 66.5571 20.6779 65.9654 20.801C65.5574 20.8831 64.2312 18.4419 64.1291 16.5136C64.1291 16.3085 64.0884 15.6931 63.9864 15.6726C63.8844 15.6726 63.7416 16.247 63.5784 16.7803C63.0479 18.4625 62.3746 18.7907 61.8645 20.5343C61.7421 20.9446 61.6197 21.4574 61.7625 21.9908C61.8645 22.36 62.0073 22.6267 62.0889 22.7293C62.3337 23.1396 63.2723 26.0115 62.5582 26.4012C62.3542 26.5038 62.0889 26.3807 62.0073 26.3397C61.1708 25.9089 61.2932 24.3499 61.1096 24.3499C60.9464 24.3499 60.722 25.5192 60.7424 26.9552C60.7424 27.4065 60.7424 28.0629 60.9056 28.9245C60.9056 28.9245 61.2321 30.8117 62.2114 32.5554L62.1706 32.4734Z" fill="#FF004F"/>
<path d="M84.4623 33.6763C83.4697 35.3645 79.817 37.7939 75.2909 37.7321C71.1816 37.6704 68.4024 35.591 67.2113 34.3351C66.4371 33.5322 66.0799 32.441 66.0799 32.441C65.5836 31.3087 65.4446 30.3411 65.4049 30.0323C65.1667 28.1176 65.663 26.5529 66.06 25.2765C66.199 24.8441 66.2188 24.8647 66.5563 23.8764C66.8144 23.1147 66.9335 22.7235 67.0327 22.7235C67.132 22.7235 67.1716 23.0941 67.2511 23.4441C67.4496 24.3911 67.8863 24.9264 68.1444 25.3588C69.137 27.0882 68.5215 29.5382 68.8193 29.5793C69.0178 29.5999 69.4347 28.6117 69.5736 27.3764C69.8119 25.05 68.74 23.9794 68.5414 21.8794C68.3628 20.1294 68.9186 18.7707 69.4744 17.3707C71.4 12.5737 76.1842 10.4943 77.0577 10.1237C76.7798 11.6678 76.7401 12.7178 76.8195 13.4178C76.8989 14.0354 77.2562 14.4266 77.415 14.6942C78.0503 15.7236 78.6855 16.053 79.3803 16.753C80.3332 17.7207 80.8097 18.8118 80.9685 19.2854C82.0405 22.3324 79.281 25.2147 80.5118 26.5529C80.5317 26.5941 80.9486 27.0058 81.4052 26.9441C82.5963 26.7794 83.4102 23.4647 83.5094 22.1677C83.5094 22.0441 83.5491 21.5912 83.6285 21.5706C83.7079 21.5706 83.7874 21.9824 83.8866 22.3736C84.2042 23.5882 84.6608 23.8353 84.9784 25.0912C85.0578 25.4 85.1174 25.75 84.9983 26.1206C84.9189 26.3882 84.8196 26.5735 84.7601 26.6353C84.5814 26.9235 83.8469 28.9411 84.3432 29.2499C84.4821 29.3323 84.6806 29.2499 84.7203 29.2088C85.3159 28.9205 85.2564 27.8087 85.3953 27.8087C85.5145 27.8087 85.6335 28.6528 85.5739 29.6822C85.5739 29.9911 85.5343 30.4646 85.4152 31.0822C85.4152 31.0822 85.1373 32.4205 84.4226 33.6351L84.4623 33.6763Z" fill="#CE1963"/>
<path d="M75.3298 19.2193C73.616 17.8931 73.2895 17.5463 73.3303 17.4851C73.3915 17.4035 73.8812 17.7911 74.7993 17.9747C75.8806 18.1991 76.5743 17.9748 76.6559 18.1584C76.6967 18.2808 76.513 18.546 75.3501 19.2193H75.3298Z" fill="black"/>
<path d="M75.7996 18.5048C74.6571 16.6685 74.4734 16.2197 74.5347 16.1789C74.6163 16.1177 74.963 16.6481 75.7383 17.1582C76.6768 17.7499 77.4114 17.7703 77.4114 17.9947C77.4114 18.1171 77.1258 18.3008 75.7996 18.5252V18.5048Z" fill="black"/>
<path d="M77.1048 18.2811C76.2479 16.6285 76.105 16.2408 76.1662 16.2C76.2478 16.1592 76.4926 16.6285 77.1455 17.1181C77.9208 17.7098 78.5533 17.7914 78.5533 17.9546C78.5533 18.0566 78.2881 18.1995 77.1048 18.2607V18.2811Z" fill="black"/>
<path d="M82.9195 19.342C81.4301 17.3629 76.4927 17.2813 75.493 18.6279C74.9421 19.3827 75.595 20.5457 76.3091 21.1577C78.2474 22.8715 82.5726 22.1983 83.2663 20.8517C83.5928 20.2192 83.0623 19.5052 82.9195 19.3215V19.342Z" fill="white"/>
<path d="M82.2262 18.1586C83.1239 18.6482 83.4298 19.8111 83.0422 20.7292C82.6545 21.627 81.6141 22.2186 80.6756 21.933C79.5942 21.6065 79.0434 20.2192 79.533 19.1583C79.9819 18.179 81.2671 17.6485 82.2465 18.1789L82.2262 18.1586Z" fill="black"/>
</svg>
