<svg width="377" height="273" viewBox="0 0 377 273" fill="none" xmlns="http://www.w3.org/2000/svg">
<path d="M32.7744 221.299C29.9971 221.299 28.2041 219.84 28.0195 217.774L28.0107 217.678H29.5928L29.6016 217.774C29.7158 219.04 31.0342 219.84 32.8623 219.84C34.585 219.84 35.8418 218.952 35.8418 217.66V217.651C35.8418 216.597 35.1123 215.876 33.3721 215.489L31.9658 215.182C29.4258 214.619 28.3271 213.45 28.3271 211.613V211.604C28.3359 209.504 30.1729 208.019 32.792 208.019C35.3232 208.019 37.0898 209.513 37.2217 211.402L37.2305 211.525H35.6484L35.6309 211.411C35.4551 210.295 34.4004 209.469 32.748 209.478C31.166 209.486 29.9443 210.233 29.9443 211.561V211.569C29.9443 212.58 30.6387 213.266 32.3613 213.644L33.7676 213.96C36.4131 214.549 37.459 215.612 37.459 217.44V217.449C37.459 219.822 35.6045 221.299 32.7744 221.299ZM39.9902 221V207.764H41.5195V215.665H41.6602L45.7559 211.525H47.6104L43.4795 215.507L47.8828 221H45.958L42.4072 216.544L41.5195 217.405V221H39.9902ZM50.4844 209.697C49.9043 209.697 49.4297 209.223 49.4297 208.643C49.4297 208.062 49.9043 207.588 50.4844 207.588C51.0645 207.588 51.5391 208.062 51.5391 208.643C51.5391 209.223 51.0645 209.697 50.4844 209.697ZM49.7109 221V211.525H51.2402V221H49.7109ZM54.123 224.164V211.525H55.6523V213.037H55.793C56.373 211.982 57.4277 211.358 58.7461 211.358C61.1455 211.358 62.7188 213.301 62.7188 216.254V216.271C62.7188 219.242 61.1543 221.167 58.7461 221.167C57.4453 221.167 56.3115 220.517 55.793 219.506H55.6523V224.164H54.123ZM58.3945 219.813C60.126 219.813 61.1543 218.478 61.1543 216.271V216.254C61.1543 214.048 60.126 212.712 58.3945 212.712C56.6719 212.712 55.6172 214.065 55.6172 216.254V216.271C55.6172 218.46 56.6719 219.813 58.3945 219.813Z" fill="white" fill-opacity="0.7"/>
<path d="M365.226 89.7543H353.323V93.5102H365.226V89.7543Z" fill="#835B30"/>
<path d="M185 270.28C195.221 205.824 205.055 140.762 214.629 75.4579C217.087 58.3747 219.674 41.1703 222.132 24.087C234.294 19.1196 255.383 12.2136 282.553 11.8501C312.181 11.4866 335.21 18.9984 347.76 24.2082C349.442 38.8683 350.995 53.6495 352.677 68.3096C360.827 136.521 368.849 204.612 377 272.824C363.635 272.824 337.383 272.824 287.159 272.824C239.547 271.128 198.766 272.824 185 270.28Z" fill="#D29B5A"/>
<path d="M223.943 215.879C225.587 215.879 226.919 214.631 226.919 213.092C226.919 211.553 225.587 210.306 223.943 210.306C222.3 210.306 220.968 211.553 220.968 213.092C220.968 214.631 222.3 215.879 223.943 215.879Z" fill="#76512B"/>
<path d="M247.103 218.665C248.746 218.665 250.079 217.418 250.079 215.879C250.079 214.34 248.746 213.092 247.103 213.092C245.459 213.092 244.127 214.34 244.127 215.879C244.127 217.418 245.459 218.665 247.103 218.665Z" fill="#76512B"/>
<path d="M272.72 220.847C274.364 220.847 275.696 219.599 275.696 218.06C275.696 216.521 274.364 215.274 272.72 215.274C271.077 215.274 269.744 216.521 269.744 218.06C269.744 219.599 271.077 220.847 272.72 220.847Z" fill="#76512B"/>
<path d="M297.948 219.878C299.591 219.878 300.924 218.63 300.924 217.091C300.924 215.552 299.591 214.305 297.948 214.305C296.304 214.305 294.972 215.552 294.972 217.091C294.972 218.63 296.304 219.878 297.948 219.878Z" fill="#76512B"/>
<path d="M322.659 215.879C324.302 215.879 325.634 214.631 325.634 213.092C325.634 211.553 324.302 210.306 322.659 210.306C321.015 210.306 319.683 211.553 319.683 213.092C319.683 214.631 321.015 215.879 322.659 215.879Z" fill="#76512B"/>
<path d="M345.299 210.185C346.943 210.185 348.275 208.937 348.275 207.398C348.275 205.859 346.943 204.612 345.299 204.612C343.656 204.612 342.324 205.859 342.324 207.398C342.324 208.937 343.656 210.185 345.299 210.185Z" fill="#76512B"/>
<path d="M358.885 227.752C360.529 227.752 361.861 226.504 361.861 224.965C361.861 223.426 360.529 222.179 358.885 222.179C357.242 222.179 355.91 223.426 355.91 224.965C355.91 226.504 357.242 227.752 358.885 227.752Z" fill="#76512B"/>
<path d="M335.985 235.144C337.628 235.144 338.961 233.896 338.961 232.357C338.961 230.818 337.628 229.571 335.985 229.571C334.341 229.571 333.009 230.818 333.009 232.357C333.009 233.896 334.341 235.144 335.985 235.144Z" fill="#76512B"/>
<path d="M308.3 241.443C309.943 241.443 311.275 240.196 311.275 238.656C311.275 237.117 309.943 235.87 308.3 235.87C306.657 235.87 305.324 237.117 305.324 238.656C305.324 240.196 306.657 241.443 308.3 241.443Z" fill="#76512B"/>
<path d="M280.87 244.351C282.513 244.351 283.845 243.103 283.845 241.564C283.845 240.025 282.513 238.777 280.87 238.777C279.226 238.777 277.894 240.025 277.894 241.564C277.894 243.103 279.226 244.351 280.87 244.351Z" fill="#76512B"/>
<path d="M256.418 243.018C258.061 243.018 259.393 241.771 259.393 240.232C259.393 238.692 258.061 237.445 256.418 237.445C254.774 237.445 253.442 238.692 253.442 240.232C253.442 241.771 254.774 243.018 256.418 243.018Z" fill="#76512B"/>
<path d="M229.895 240.232C231.539 240.232 232.871 238.984 232.871 237.445C232.871 235.906 231.539 234.659 229.895 234.659C228.252 234.659 226.919 235.906 226.919 237.445C226.919 238.984 228.252 240.232 229.895 240.232Z" fill="#76512B"/>
<path d="M207.124 234.053C208.768 234.053 210.1 232.805 210.1 231.266C210.1 229.727 208.768 228.479 207.124 228.479C205.481 228.479 204.148 229.727 204.148 231.266C204.148 232.805 205.481 234.053 207.124 234.053Z" fill="#76512B"/>
<path d="M344.654 115.56C346.297 115.56 347.629 114.313 347.629 112.774C347.629 111.234 346.297 109.987 344.654 109.987C343.011 109.987 341.678 111.234 341.678 112.774C341.678 114.313 343.011 115.56 344.654 115.56Z" fill="#76512B"/>
<path d="M321.623 111.805C323.266 111.805 324.599 110.557 324.599 109.018C324.599 107.479 323.266 106.232 321.623 106.232C319.979 106.232 318.647 107.479 318.647 109.018C318.647 110.557 319.979 111.805 321.623 111.805Z" fill="#76512B"/>
<path d="M296.136 108.655C297.78 108.655 299.112 107.407 299.112 105.868C299.112 104.329 297.78 103.081 296.136 103.081C294.493 103.081 293.16 104.329 293.16 105.868C293.16 107.407 294.493 108.655 296.136 108.655Z" fill="#76512B"/>
<path d="M270.907 108.533C272.551 108.533 273.883 107.286 273.883 105.747C273.883 104.208 272.551 102.96 270.907 102.96C269.264 102.96 267.932 104.208 267.932 105.747C267.932 107.286 269.264 108.533 270.907 108.533Z" fill="#76512B"/>
<path d="M246.068 111.562C247.711 111.562 249.043 110.315 249.043 108.776C249.043 107.237 247.711 105.989 246.068 105.989C244.424 105.989 243.092 107.237 243.092 108.776C243.092 110.315 244.424 111.562 246.068 111.562Z" fill="#76512B"/>
<path d="M223.166 116.288C224.81 116.288 226.142 115.04 226.142 113.501C226.142 111.962 224.81 110.714 223.166 110.714C221.523 110.714 220.191 111.962 220.191 113.501C220.191 115.04 221.523 116.288 223.166 116.288Z" fill="#76512B"/>
<path d="M220.485 25.0842C219.326 39.1319 218.038 53.1795 216.879 67.2272C230.917 61.6545 255.13 53.9922 286.426 53.4117C315.404 52.9473 338.457 58.8682 352.366 63.5121C351.98 50.0449 351.593 36.5777 351.207 23.2267C336.396 18.4667 311.797 12.4297 281.145 13.5907C255.001 14.5194 234.137 20.3243 220.485 25.2003V25.0842Z" fill="#D29B5A" stroke="#76512B" stroke-width="0.25" stroke-miterlimit="10"/>
<path d="M256.157 45.4101C257.514 45.4101 258.615 44.3795 258.615 43.1081C258.615 41.8368 257.514 40.8062 256.157 40.8062C254.799 40.8062 253.698 41.8368 253.698 43.1081C253.698 44.3795 254.799 45.4101 256.157 45.4101Z" fill="#76512B"/>
<path d="M334.302 33.1746C335.66 33.1746 336.76 32.1439 336.76 30.8726C336.76 29.6012 335.66 28.5706 334.302 28.5706C332.945 28.5706 331.844 29.6012 331.844 30.8726C331.844 32.1439 332.945 33.1746 334.302 33.1746Z" fill="#76512B"/>
<path d="M270.649 26.3889C272.006 26.3889 273.107 25.3583 273.107 24.0869C273.107 22.8156 272.006 21.7849 270.649 21.7849C269.291 21.7849 268.19 22.8156 268.19 24.0869C268.19 25.3583 269.291 26.3889 270.649 26.3889Z" fill="#76512B"/>
<path d="M238.304 30.9932C239.661 30.9932 240.762 29.9625 240.762 28.6912C240.762 27.4198 239.661 26.3892 238.304 26.3892C236.946 26.3892 235.845 27.4198 235.845 28.6912C235.845 29.9625 236.946 30.9932 238.304 30.9932Z" fill="#76512B"/>
<path d="M228.6 51.468C229.958 51.468 231.059 50.4374 231.059 49.166C231.059 47.8946 229.958 46.864 228.6 46.864C227.243 46.864 226.142 47.8946 226.142 49.166C226.142 50.4374 227.243 51.468 228.6 51.468Z" fill="#76512B"/>
<path d="M344.135 51.468C345.493 51.468 346.593 50.4374 346.593 49.166C346.593 47.8946 345.493 46.864 344.135 46.864C342.778 46.864 341.677 47.8946 341.677 49.166C341.677 50.4374 342.778 51.468 344.135 51.468Z" fill="#76512B"/>
<path d="M300.018 27.479C301.375 27.479 302.476 26.4484 302.476 25.177C302.476 23.9056 301.375 22.875 300.018 22.875C298.66 22.875 297.56 23.9056 297.56 25.177C297.56 26.4484 298.66 27.479 300.018 27.479Z" fill="#76512B"/>
<path d="M284.622 43.1087C285.98 43.1087 287.08 42.0781 287.08 40.8068C287.08 39.5354 285.98 38.5048 284.622 38.5048C283.264 38.5048 282.164 39.5354 282.164 40.8068C282.164 42.0781 283.264 43.1087 284.622 43.1087Z" fill="#76512B"/>
<path d="M315.024 45.4101C316.382 45.4101 317.483 44.3795 317.483 43.1081C317.483 41.8368 316.382 40.8062 315.024 40.8062C313.667 40.8062 312.566 41.8368 312.566 43.1081C312.566 44.3795 313.667 45.4101 315.024 45.4101Z" fill="#76512B"/>
<path d="M220.502 23.4343C223.179 19.4899 225.727 15.6616 228.404 11.7172C229.551 12.2972 237.069 16.4736 238.216 17.0537L239.109 17.5177C242.167 13.3413 245.226 9.28092 248.285 5.10451C252.491 7.54075 256.568 9.97699 260.774 12.2972C264.343 8.58485 267.784 4.75647 271.352 1.04411C275.048 3.94439 278.871 6.96069 282.567 9.86098C286.773 6.61266 290.851 3.36433 295.057 0C298.752 3.36433 302.321 6.84468 306.017 10.209C310.732 7.42474 315.448 4.52445 320.036 1.74017C323.732 6.26462 327.428 10.6731 331.123 15.1975C334.819 12.8773 338.515 10.557 342.211 8.23682C345.27 12.5292 348.455 16.8217 351.514 21.1141C351.514 22.2742 351.514 23.5503 351.642 24.7104C341.701 21.3461 329.084 17.9818 314.173 16.0096C288.939 12.7613 268.676 14.9655 257.843 16.5896C243.06 18.9099 230.57 22.5062 220.629 26.2186C220.629 25.1745 220.629 24.2464 220.629 23.2023L220.502 23.4343Z" fill="#D29B5A"/>
<path d="M287.079 89.6331V82.4852H279.446V89.6331H287.079Z" fill="#835B30"/>
<path d="M7 216.785C7 221.421 8.7151 225.716 11.2962 228.217C12.3387 229.232 12.818 231.002 12.633 232.772C12.0949 238.046 13.1206 244.016 16.6433 249.927C16.8283 250.233 17.0384 250.517 17.2654 250.741C24.4454 258.056 31.8272 255.13 35.9636 248.145C36.8212 246.706 38.2336 246.198 39.5031 246.777C41.2687 247.579 43.2613 247.626 45.3127 246.576C49.1381 244.617 51.5762 239.332 51.5678 233.609C51.5678 231.769 52.2824 230.034 53.4594 229.244C56.7299 227.026 59 222.141 59 216.785C59 212.75 57.7052 209.151 55.6706 206.732C54.9812 205.918 54.6029 204.715 54.5272 203.452C53.6696 188.645 44.8419 177 34.0719 177C23.756 177 15.2225 187.678 13.7596 201.588C13.5998 203.098 12.9609 204.408 12.0024 205.128C9.0262 207.346 7 211.735 7 216.785Z" fill="#74C20F" fill-opacity="0.7"/>
<path d="M7 216.785C7 221.421 8.7151 225.716 11.2962 228.217C12.3387 229.232 12.818 231.002 12.633 232.772C12.0949 238.046 13.1206 244.016 16.6433 249.927C16.8283 250.233 17.0384 250.517 17.2654 250.741C24.4454 258.056 31.8272 255.13 35.9636 248.145C36.8212 246.706 38.2336 246.198 39.5031 246.777C41.2687 247.579 43.2613 247.626 45.3127 246.576C49.1381 244.617 51.5762 239.332 51.5678 233.609C51.5678 231.769 52.2824 230.034 53.4594 229.244C56.7299 227.026 59 222.141 59 216.785C59 212.75 57.7052 209.151 55.6706 206.732C54.9812 205.918 54.6029 204.715 54.5272 203.452C53.6696 188.645 44.8419 177 34.0719 177C23.756 177 15.2225 187.678 13.7596 201.588C13.5998 203.098 12.9609 204.408 12.0024 205.128C9.0262 207.346 7 211.735 7 216.785Z" fill="#74C20F" fill-opacity="0.7"/>
<path d="M132 216.785C132 221.421 133.715 225.716 136.296 228.217C137.339 229.232 137.818 231.002 137.633 232.772C137.095 238.046 138.121 244.016 141.643 249.927C141.828 250.233 142.038 250.517 142.265 250.741C149.445 258.056 156.827 255.13 160.964 248.145C161.821 246.706 163.234 246.198 164.503 246.777C166.269 247.579 168.261 247.626 170.313 246.576C174.138 244.617 176.576 239.332 176.568 233.609C176.568 231.769 177.282 230.034 178.459 229.244C181.73 227.026 184 222.141 184 216.785C184 212.75 182.705 209.151 180.671 206.732C179.981 205.918 179.603 204.715 179.527 203.452C178.67 188.645 169.842 177 159.072 177C148.756 177 140.222 187.678 138.76 201.588C138.6 203.098 137.961 204.408 137.002 205.128C134.026 207.346 132 211.735 132 216.785Z" fill="#74C20F" fill-opacity="0.7"/>
<path d="M48.9115 226.431C48.9115 227.47 48.3104 228.32 47.5569 228.32H45.9906C39.8017 228.32 35.9833 233.549 35.9833 242.662V265.87C35.9833 266.909 35.3822 267.759 34.6287 267.759H30.8019C30.0568 267.759 29.4473 266.921 29.4473 265.87V222.359C29.4473 221.32 30.0484 220.47 30.8019 220.47H34.3154C35.0182 220.47 35.6023 221.225 35.6616 222.205C35.7547 223.787 32.9674 221.603 33.7717 220.47C35.5412 217.979 42.2908 219.407 45.4318 219.407C46.2531 219.407 46.9812 219.502 47.7855 219.691C48.4289 219.844 48.903 220.635 48.903 221.544V226.431H48.9115Z" fill="black"/>
<path opacity="0.8" d="M22.4797 231.047C26.7891 231.047 30.0232 233.88 31.5895 238.224C31.6827 238.484 31.725 238.779 31.725 239.074V242.639C31.725 244.315 30.2348 245.2 29.4136 243.961C27.678 241.352 25.1212 239.959 21.9209 239.959H20.3546C19.6096 239.959 19 239.121 19 238.07V233.183C19 232.274 19.4741 231.472 20.1175 231.33C20.9303 231.141 21.6584 231.047 22.4797 231.047Z" fill="black"/>
<path d="M172.911 226.431C172.911 227.47 172.31 228.32 171.557 228.32H169.991C163.802 228.32 159.983 233.549 159.983 242.662V265.87C159.983 266.909 159.382 267.759 158.629 267.759H154.802C154.057 267.759 153.447 266.921 153.447 265.87V222.359C153.447 221.32 154.048 220.47 154.802 220.47H158.315C159.018 220.47 159.602 221.225 159.662 222.205C159.755 223.787 156.967 221.603 157.772 220.47C159.541 217.979 166.291 219.407 169.432 219.407C170.253 219.407 170.981 219.502 171.786 219.691C172.429 219.844 172.903 220.635 172.903 221.544V226.431H172.911Z" fill="black"/>
<path opacity="0.8" d="M146.48 231.047C150.789 231.047 154.023 233.88 155.59 238.224C155.683 238.484 155.725 238.779 155.725 239.074V242.639C155.725 244.315 154.235 245.2 153.414 243.961C151.678 241.352 149.121 239.959 145.921 239.959H144.355C143.61 239.959 143 239.121 143 238.07V233.183C143 232.274 143.474 231.472 144.118 231.33C144.93 231.141 145.658 231.047 146.48 231.047Z" fill="black"/>
<path d="M72 188.125C72 171.201 82.5008 171 95.449 171C108.397 171 118.898 171.201 118.898 188.125C118.898 205.049 118.907 260.101 95.449 260.101C72 260.101 72 205.049 72 188.125Z" fill="#60BF91" fill-opacity="0.7"/>
<path d="M113.346 226.077C113.346 227.181 112.707 228.084 111.906 228.084H110.242C103.664 228.084 99.606 233.642 99.606 243.328V267.993C99.606 269.097 98.9671 270 98.1663 270H94.0992C93.3073 270 92.6594 269.109 92.6594 267.993V221.749C92.6594 220.645 93.2983 219.741 94.0992 219.741H97.8333C98.5802 219.741 105.205 219.658 105.268 220.699C105.367 222.38 100.553 219.419 104.08 220.698C105.96 218.051 106.31 218.612 109.648 218.612C110.521 218.612 111.294 218.713 112.149 218.913C112.833 219.076 113.337 219.917 113.337 220.883V226.077H113.346Z" fill="black"/>
<path opacity="0.8" d="M85.2536 230.982C89.8336 230.982 93.2709 233.993 94.9356 238.61C95.0345 238.886 95.0795 239.2 95.0795 239.514V243.302C95.0795 245.084 93.4959 246.025 92.6231 244.708C90.7784 241.935 88.061 240.455 84.6598 240.455H82.9951C82.2033 240.455 81.5554 239.564 81.5554 238.447V233.253C81.5554 232.287 82.0593 231.434 82.7432 231.284C83.616 231.083 84.3808 230.982 85.2536 230.982Z" fill="black"/>
<path d="M157.749 263.137C158.305 263.485 158.166 264.509 158.704 264.666C159.26 264.839 160.042 263.919 160.702 262.946C163.22 260.671 165.721 258.396 168.239 256.12C168.517 255.947 170.063 255.026 171.487 255.651C171.487 255.651 172.929 256.277 173.398 258.465C173.919 260.931 171.192 263.155 168.622 265.308C166.728 266.889 163.776 269.025 159.59 270.779C159.138 270.918 158.478 271.092 157.645 271.075C156.568 271.057 155.752 270.745 155.265 270.536C155.005 270.241 154.727 269.893 154.466 269.494C153.563 268.087 153.233 266.698 153.112 265.725C155.891 263.189 157.158 262.79 157.732 263.155L157.749 263.137Z" fill="#2D1A8E"/>
<path d="M150.212 258.778C150.212 259.021 150.316 259.09 150.716 259.82C150.716 259.82 150.907 260.167 151.74 261.991C152.904 264.544 152.539 265.395 153.234 265.812C154.537 266.576 157.316 265.048 157.646 263.102C157.75 262.477 157.298 261.522 156.378 259.629C155.162 257.11 154.728 256.659 154.502 256.52C154.485 256.52 154.467 256.503 154.432 256.485C152.765 255.686 150.195 257.458 150.247 258.778H150.212Z" fill="#FF004F"/>
<path d="M4.50817 264.127C3.3966 265.1 2.49343 265.985 1.78133 266.68C0.582909 267.879 0.0792452 268.487 0.00977169 269.338C-0.00759667 269.563 -0.0423461 270.171 0.32239 270.762C0.756599 271.456 1.4687 271.648 1.67712 271.7C2.52817 271.7 3.81342 271.734 5.35921 271.734C7.56499 271.734 8.41603 271.7 9.37129 271.7C15.3981 271.682 16.7529 271.891 19.7402 271.7C20.817 271.63 21.6681 270.744 21.6855 269.668C21.7028 268.608 20.9039 267.688 19.827 267.566C17.2565 267.601 14.5644 267.566 11.7508 267.444C10.2918 267.375 8.86762 267.288 7.47815 267.167C7.49552 267.01 7.49554 266.784 7.39133 266.559C7.0787 265.985 6.27974 266.124 5.585 265.708C5.22027 265.482 4.76868 265.048 4.49079 264.11L4.50817 264.127Z" fill="#2D1A8E"/>
<path d="M7.54809 259.576C8.71177 260.306 9.87545 261.035 11.0218 261.764C10.7265 262.685 10.2923 263.814 9.63226 264.995C9.11121 265.933 8.55545 266.715 8.0344 267.34C7.66966 267.375 6.64492 267.409 5.58545 266.749C4.7344 266.228 4.30018 265.516 4.10913 265.169C4.42176 264.335 4.85597 263.362 5.46386 262.32C6.1586 261.157 6.90546 260.253 7.54809 259.576Z" fill="#FF004F"/>
<path d="M51.1253 153.647C52.0285 152.588 52.7753 151.737 53.2616 151.198C53.2616 151.198 59.9137 143.712 66.7221 138.207C66.9652 137.998 67.4516 137.616 68.181 137.182C70.5084 135.827 72.7489 135.706 74.3294 135.619C75.8405 135.549 78.8105 135.445 82.041 136.939C83.882 137.79 85.0978 138.849 85.8099 139.475C90.9683 144.077 97.3078 151.024 99.0099 152.918C104.064 158.128 109.118 163.356 114.172 168.567C119.192 173.76 124.229 178.953 129.248 184.146C131.958 187.012 134.65 189.877 137.359 192.761C137.724 193.247 138.071 193.733 138.419 194.237C142.605 200.212 145.453 206.43 147.346 212.439C150.681 218.97 154.015 225.5 157.35 232.03C158.67 234.809 159.973 237.606 161.293 240.385C161.605 241.548 162.873 246.742 159.973 251.935C156.256 258.604 148.892 259.525 147.85 259.646C138.975 260.601 133.243 253.671 132.843 253.168C130.412 248.253 127.98 243.337 125.549 238.422C123.777 234.809 121.988 231.197 120.217 227.567C118.706 224.44 117.177 221.297 115.666 218.171C114.763 215.947 113.86 213.724 112.957 211.501C112.245 210.719 111.168 209.538 109.865 208.132C98.4541 195.8 89.8741 187.672 85.8794 183.764C79.8352 177.841 71.4289 168.949 61.6679 156.374C60.5042 157.59 59.3579 158.823 58.1942 160.039C55.8321 157.902 53.47 155.766 51.1079 153.63L51.1253 153.647Z" fill="#2D1A8E"/>
<path d="M61.6854 156.373C58.0728 159.726 53.3833 164.936 49.6838 172.283C42.2849 186.959 43.4486 200.906 44.2997 206.777C43.275 208.427 41.4339 209.364 39.5581 209.208C36.9876 209 35.7023 206.846 35.5807 206.638C25.2813 217.701 14.9819 228.782 4.66507 239.846C3.83138 241.235 0.114565 247.818 2.61561 254.088C5.96771 262.494 18.3687 264.891 26.3408 262.164C32.3328 260.115 34.2608 255.721 41.7292 246.255C46.106 240.714 52.3586 233.489 60.8344 225.604C61.5291 225.031 62.467 224.11 63.2659 222.79C64.447 220.827 64.7249 218.952 64.8117 217.91C70.1438 204.796 75.4759 191.701 80.7906 178.588C74.4164 171.171 68.0422 163.755 61.6854 156.339V156.373Z" fill="#2D1A8E"/>
<path d="M51.3498 153.213C53.8161 155.349 56.2998 157.485 58.7661 159.621C55.6224 163.772 51.7145 169.956 48.8314 178.154C44.5761 190.259 44.6108 200.941 45.1145 207.176C45.0277 207.419 44.1072 209.868 41.7972 210.476C39.5914 211.067 37.0382 209.747 35.8919 207.193C35.5793 203.112 35.5445 198.527 36.0135 193.542C37.5766 177.059 43.9856 164.502 48.7966 156.964C49.6477 155.714 50.4987 154.446 51.3671 153.195L51.3498 153.213Z" fill="#CE1963"/>
<path d="M70.8555 201.74L74.7286 192.709C77.577 195.974 80.4081 199.257 83.2565 202.522C84.9412 204.172 85.1496 206.847 83.7775 208.722C82.3707 210.65 79.6786 211.223 77.577 210.008C75.3365 207.246 73.096 204.502 70.8555 201.74Z" fill="#CE1963"/>
<path d="M62.1705 128.473C63.517 130.873 68.6585 134.484 75.1873 134.648C81.1244 134.792 85.2253 132.043 87.0207 130.34C87.4083 129.971 88.2245 129.13 88.7345 127.735C89.4282 125.889 89.3465 124.001 89.0609 123.94C88.8773 123.899 88.6529 124.678 88.306 124.637C88.0204 124.596 87.7552 124.042 87.6531 123.796C87.6531 123.796 87.6531 123.796 87.6531 123.776C86.8574 121.683 88.7957 119.714 88.5713 116.206C88.5713 116.206 88.408 113.785 87.2451 112.411C87.2043 112.37 87.0614 112.165 86.837 111.98C86.4289 111.652 86.2861 111.426 86.2045 111.467C86.0209 111.549 86.3474 112.329 86.2658 113.457C86.2454 113.724 86.1637 114.647 85.8577 114.709C85.4905 114.791 84.9804 113.56 84.8784 113.334C83.7767 110.77 84.5724 107.775 84.654 106.544C84.8173 104.226 82.9605 100.821 74.0854 96C74.4119 98.1745 74.4119 99.6515 74.2487 100.636C74.1059 101.477 73.5754 102.031 73.3306 102.4C72.4737 103.652 71.576 104.267 70.3723 105.17C68.3116 106.708 67.2915 107.467 66.8834 107.96C64.2515 111.119 66.557 116.678 65.9653 116.801C65.5572 116.883 64.231 114.442 64.129 112.514C64.129 112.309 64.0883 111.693 63.9863 111.673C63.8843 111.673 63.7415 112.247 63.5782 112.78C63.0478 114.462 62.3744 114.791 61.8644 116.534C61.742 116.945 61.6196 117.457 61.7624 117.991C61.8644 118.36 62.0072 118.627 62.0888 118.729C62.3336 119.14 63.2722 122.011 62.5581 122.401C62.3541 122.504 62.0888 122.381 62.0072 122.34C61.1707 121.909 61.2931 120.35 61.1095 120.35C60.9463 120.35 60.7219 121.519 60.7423 122.955C60.7423 123.406 60.7423 124.063 60.9055 124.924C60.9055 124.924 61.232 126.812 62.2113 128.555L62.1705 128.473Z" fill="#FF004F"/>
<path d="M84.4623 129.676C83.4697 131.365 79.817 133.794 75.2909 133.732C71.1816 133.67 68.4024 131.591 67.2113 130.335C66.4371 129.532 66.0799 128.441 66.0799 128.441C65.5836 127.309 65.4446 126.341 65.4049 126.032C65.1667 124.118 65.663 122.553 66.06 121.276C66.199 120.844 66.2188 120.865 66.5563 119.876C66.8144 119.115 66.9335 118.724 67.0327 118.724C67.132 118.724 67.1716 119.094 67.2511 119.444C67.4496 120.391 67.8863 120.926 68.1444 121.359C69.137 123.088 68.5215 125.538 68.8193 125.579C69.0178 125.6 69.4347 124.612 69.5736 123.376C69.8119 121.05 68.74 119.979 68.5414 117.879C68.3628 116.129 68.9186 114.771 69.4744 113.371C71.4 108.574 76.1842 106.494 77.0577 106.124C76.7798 107.668 76.7401 108.718 76.8195 109.418C76.8989 110.035 77.2562 110.427 77.415 110.694C78.0503 111.724 78.6855 112.053 79.3803 112.753C80.3332 113.721 80.8097 114.812 80.9685 115.285C82.0405 118.332 79.281 121.215 80.5118 122.553C80.5317 122.594 80.9486 123.006 81.4052 122.944C82.5963 122.779 83.4102 119.465 83.5094 118.168C83.5094 118.044 83.5491 117.591 83.6285 117.571C83.7079 117.571 83.7874 117.982 83.8866 118.374C84.2042 119.588 84.6608 119.835 84.9784 121.091C85.0578 121.4 85.1174 121.75 84.9983 122.121C84.9189 122.388 84.8196 122.574 84.7601 122.635C84.5814 122.924 83.8469 124.941 84.3432 125.25C84.4821 125.332 84.6806 125.25 84.7203 125.209C85.3159 124.921 85.2564 123.809 85.3953 123.809C85.5145 123.809 85.6335 124.653 85.5739 125.682C85.5739 125.991 85.5343 126.465 85.4152 127.082C85.4152 127.082 85.1373 128.42 84.4226 129.635L84.4623 129.676Z" fill="#CE1963"/>
<path d="M75.3297 115.219C73.6159 113.893 73.2893 113.546 73.3301 113.485C73.3914 113.403 73.8811 113.791 74.7992 113.975C75.8805 114.199 76.5742 113.975 76.6558 114.158C76.6966 114.281 76.5129 114.546 75.35 115.219H75.3297Z" fill="black"/>
<path d="M75.7995 114.505C74.6569 112.669 74.4733 112.22 74.5345 112.179C74.6161 112.118 74.9629 112.648 75.7382 113.158C76.6767 113.75 77.4112 113.77 77.4112 113.995C77.4112 114.117 77.1256 114.301 75.7995 114.525V114.505Z" fill="black"/>
<path d="M77.1048 114.281C76.2479 112.628 76.105 112.241 76.1662 112.2C76.2478 112.159 76.4926 112.628 77.1455 113.118C77.9208 113.71 78.5533 113.791 78.5533 113.955C78.5533 114.057 78.2881 114.199 77.1048 114.261V114.281Z" fill="black"/>
<path d="M82.9195 115.342C81.4301 113.363 76.4927 113.281 75.493 114.628C74.9421 115.383 75.595 116.546 76.3091 117.158C78.2474 118.872 82.5726 118.198 83.2663 116.852C83.5928 116.219 83.0623 115.505 82.9195 115.322V115.342Z" fill="white"/>
<path d="M82.226 114.159C83.1238 114.648 83.4297 115.811 83.0421 116.729C82.6544 117.627 81.6139 118.219 80.6754 117.933C79.5941 117.607 79.0432 116.219 79.5329 115.158C79.9818 114.179 81.267 113.648 82.2463 114.179L82.226 114.159Z" fill="black"/>
</svg>
