<svg width="301" height="328" viewBox="0 0 301 328" fill="none" xmlns="http://www.w3.org/2000/svg">
<path d="M190 270.785C190 275.421 191.715 279.716 194.296 282.217C195.339 283.232 195.818 285.002 195.633 286.772C195.095 292.046 196.121 298.016 199.643 303.927C199.828 304.233 200.038 304.517 200.265 304.741C207.445 312.056 214.827 309.13 218.964 302.145C219.821 300.706 221.234 300.198 222.503 300.777C224.269 301.579 226.261 301.626 228.313 300.576C232.138 298.617 234.576 293.332 234.568 287.609C234.568 285.769 235.282 284.034 236.459 283.244C239.73 281.026 242 276.141 242 270.785C242 266.75 240.705 263.151 238.671 260.732C237.981 259.918 237.603 258.715 237.527 257.452C236.67 242.645 227.842 231 217.072 231C206.756 231 198.222 241.678 196.76 255.588C196.6 257.098 195.961 258.408 195.002 259.128C192.026 261.346 190 265.735 190 270.785Z" fill="#74C20F" fill-opacity="0.7"/>
<path d="M234.912 286.431C234.912 287.47 234.311 288.32 233.557 288.32H231.991C225.802 288.32 221.983 293.549 221.983 302.662V325.87C221.983 326.909 221.382 327.759 220.629 327.759H216.802C216.057 327.759 215.447 326.921 215.447 325.87V282.359C215.447 281.32 216.048 280.47 216.802 280.47H220.316C221.018 280.47 221.602 281.225 221.662 282.205C221.755 283.787 218.968 281.603 219.772 280.47C221.541 277.979 228.291 279.407 231.432 279.407C232.253 279.407 232.981 279.502 233.786 279.691C234.429 279.844 234.903 280.635 234.903 281.544V286.431H234.912Z" fill="black"/>
<path opacity="0.8" d="M208.48 291.047C212.789 291.047 216.023 293.88 217.59 298.224C217.683 298.484 217.725 298.779 217.725 299.074V302.639C217.725 304.315 216.235 305.2 215.414 303.961C213.678 301.352 211.121 299.959 207.921 299.959H206.355C205.61 299.959 205 299.121 205 298.07V293.183C205 292.274 205.474 291.472 206.118 291.33C206.93 291.141 207.658 291.047 208.48 291.047Z" fill="black"/>
<path d="M254 246.125C254 229.201 264.501 229 277.449 229C290.397 229 300.898 229.201 300.898 246.125C300.898 263.049 300.907 318.101 277.449 318.101C254 318.101 254 263.049 254 246.125Z" fill="#60BF91" fill-opacity="0.7"/>
<path d="M295.346 284.077C295.346 285.181 294.707 286.084 293.906 286.084H292.242C285.664 286.084 281.606 291.642 281.606 301.328V325.993C281.606 327.097 280.967 328 280.166 328H276.099C275.307 328 274.659 327.109 274.659 325.993V279.749C274.659 278.645 275.298 277.741 276.099 277.741H279.833C280.58 277.741 287.205 277.658 287.268 278.699C287.367 280.38 282.553 277.419 286.08 278.698C287.96 276.051 288.31 276.612 291.648 276.612C292.521 276.612 293.294 276.713 294.149 276.913C294.833 277.076 295.337 277.917 295.337 278.883V284.077H295.346Z" fill="black"/>
<path opacity="0.8" d="M267.254 288.982C271.834 288.982 275.271 291.993 276.936 296.61C277.035 296.886 277.08 297.2 277.08 297.514V301.302C277.08 303.084 275.496 304.025 274.623 302.708C272.778 299.935 270.061 298.455 266.66 298.455H264.995C264.203 298.455 263.555 297.564 263.555 296.447V291.253C263.555 290.287 264.059 289.434 264.743 289.284C265.616 289.083 266.381 288.982 267.254 288.982Z" fill="black"/>
<path d="M126 246.125C126 229.201 136.501 229 149.449 229C162.397 229 172.898 229.201 172.898 246.125C172.898 263.049 172.907 318.101 149.449 318.101C126 318.101 126 263.049 126 246.125Z" fill="#60BF91" fill-opacity="0.7"/>
<path d="M167.346 284.077C167.346 285.181 166.707 286.084 165.906 286.084H164.242C157.664 286.084 153.606 291.642 153.606 301.328V325.993C153.606 327.097 152.967 328 152.166 328H148.099C147.307 328 146.659 327.109 146.659 325.993V279.749C146.659 278.645 147.298 277.741 148.099 277.741H151.833C152.58 277.741 159.205 277.658 159.268 278.699C159.367 280.38 154.553 277.419 158.08 278.698C159.96 276.051 160.31 276.612 163.648 276.612C164.521 276.612 165.294 276.713 166.149 276.913C166.833 277.076 167.337 277.917 167.337 278.883V284.077H167.346Z" fill="black"/>
<path opacity="0.8" d="M139.254 288.982C143.834 288.982 147.271 291.993 148.936 296.61C149.035 296.886 149.08 297.2 149.08 297.514V301.302C149.08 303.084 147.496 304.025 146.623 302.708C144.778 299.935 142.061 298.455 138.66 298.455H136.995C136.203 298.455 135.555 297.564 135.555 296.447V291.253C135.555 290.287 136.059 289.434 136.743 289.284C137.616 289.083 138.381 288.982 139.254 288.982Z" fill="black"/>
<path d="M0.705708 0C36.4232 0 72.2825 0 108 0C107.294 109.125 106.588 218.25 105.882 327.374C70.588 327.625 35.294 327.75 0 328C0.141176 218.625 0.423218 109.375 0.564394 0H0.705708Z" fill="#A8D8DE"/>
<path d="M8.04871 7.51047C38.6839 7.51047 69.4605 7.51047 100.096 7.51047C99.2487 13.267 80.3308 144.667 53.9309 144.667C27.6722 144.667 8.89576 13.1419 8.04871 7.51047Z" fill="#75C2C0"/>
<path d="M15.672 24.0282C25.272 21.9008 38.2602 19.7733 53.6484 19.7733C69.4601 19.7733 82.7306 21.9008 92.4718 24.2785C84.8483 81.9695 69.743 123.892 55.0607 124.018C40.3784 124.018 24.2837 82.2197 15.672 24.0282Z" fill="white"/>
<path d="M14.1175 14.2639C14.541 15.6404 14.8236 16.8919 15.2472 18.2684C25.9765 16.7667 38.5405 15.5153 52.517 15.3901C67.764 15.3901 81.3173 16.3913 92.6113 18.0181C93.0349 16.6416 93.4588 15.1399 93.8823 13.7633C81.6 12.3867 67.4818 11.3856 51.8113 11.6358C37.8348 11.761 25.1291 12.8873 13.9762 14.2639H14.1175Z" fill="#769591"/>
</svg>
